<?xml version="1.0" encoding="UTF-8"?>
<svg version="1.1" xmlns="http://www.w3.org/2000/svg" width="512" height="512">
<path d="M0 0 C12.44794101 10.32110796 21.16760721 23.59473728 26.45166016 38.84643555 C26.93119141 40.19608398 26.93119141 40.19608398 27.42041016 41.57299805 C29.63665898 49.18622319 29.79138424 56.7724322 29.88916016 64.65893555 C29.91147705 65.7135498 29.93379395 66.76816406 29.95678711 67.85473633 C29.93950952 73.97286962 29.16445255 79.26246656 27.4675293 85.14599609 C25.08285054 94.04292208 24.78655804 102.68141249 24.70166016 111.84643555 C24.67339806 113.41157106 24.64345706 114.97667719 24.61181641 116.54174805 C24.53918698 120.3099218 24.48888488 124.0777527 24.45166016 127.84643555 C25.13249759 127.84274837 25.81333502 127.8390612 26.51480389 127.8352623 C43.08174702 127.74692157 59.64861553 127.68073105 76.21573925 127.63918686 C84.22748969 127.61856234 92.2390829 127.59044399 100.25073242 127.54467773 C107.23376756 127.50480642 114.21668884 127.47900193 121.19983464 127.47008157 C124.89735053 127.46486725 128.59454066 127.45261449 132.29195213 127.42351532 C136.41979798 127.39129213 140.54707763 127.39047631 144.67504883 127.39233398 C146.51355659 127.37076233 146.51355659 127.37076233 148.38920593 127.34875488 C156.67431661 127.3892156 156.67431661 127.3892156 160.68769836 129.74981689 C163.22275277 132.76294472 163.57751075 134.37886614 163.58867455 138.23278522 C163.59628636 139.62400796 163.59628636 139.62400796 163.60405195 141.04333621 C163.6045497 142.06909218 163.60504746 143.09484814 163.6055603 144.15168762 C163.60994256 145.23609357 163.61432481 146.32049952 163.61883986 147.43776625 C163.63226624 151.09588232 163.6384153 154.75397428 163.64453125 158.41210938 C163.6524291 161.02494924 163.66069785 163.63778801 163.66931152 166.25062561 C163.69384599 174.10897742 163.70846364 181.96733558 163.72137159 189.8257139 C163.72508258 192.0444535 163.72905588 194.26319247 163.73312426 196.48193145 C163.7583584 210.25392042 163.78041598 224.02591037 163.7928524 237.79791737 C163.7957822 240.98865068 163.79874385 244.17938395 163.80175781 247.37011719 C163.80250386 248.16317816 163.80324991 248.95623914 163.80401857 249.77333226 C163.81667683 262.62534949 163.84990564 275.47722852 163.89155965 288.32918111 C163.9339547 301.51764424 163.95754456 314.70603656 163.96277297 327.89456767 C163.96618972 335.30207288 163.97797584 342.70936207 164.0108757 350.11680031 C164.04176423 357.08287544 164.04730672 364.04856774 164.03549194 371.01469994 C164.03527031 373.57496926 164.0436489 376.13525554 164.06114578 378.69546509 C164.08369519 382.18418082 164.07560714 385.67151171 164.05966187 389.16023254 C164.07354395 390.17929634 164.08742604 391.19836014 164.1017288 392.24830467 C164.04911921 396.90270189 163.97430493 399.13469619 161.1556797 402.97310925 C157.52947554 405.48531876 154.35396892 405.57549144 150.08837891 405.5534668 C149.29639603 405.5685881 148.50441315 405.58370941 147.68843079 405.59928894 C145.17171613 405.64209935 142.65620234 405.65099687 140.13916016 405.65893555 C138.42753984 405.68208524 136.71594797 405.70745157 135.00439453 405.73510742 C130.82004391 405.79789325 126.63644012 405.83028054 122.45166016 405.84643555 C122.77005859 406.76682617 123.08845703 407.6872168 123.41650391 408.63549805 C124.65491788 412.47691799 125.07462489 414.83177392 124.45166016 418.84643555 C122.45680372 421.85994208 119.99243364 424.29117096 117.45166016 426.84643555 C116.81486328 427.60053711 116.17806641 428.35463867 115.52197266 429.1315918 C110.79007032 434.51911916 110.79007032 434.51911916 107.11962891 435.41674805 C103.62944499 435.49778051 101.11679093 435.16237266 97.95166016 433.65893555 C93.84523221 432.32434646 90.32796466 434.27564549 86.45166016 435.84643555 C86.32791016 436.58893555 86.20416016 437.33143555 86.07666016 438.09643555 C85.07968831 442.48311166 84.25175054 444.31304196 80.45166016 446.84643555 C76.67624215 447.33399982 72.88020119 447.2629086 69.07666016 447.28393555 C68.03509766 447.31680664 66.99353516 447.34967773 65.92041016 447.38354492 C58.24865964 447.43750225 58.24865964 447.43750225 54.30712891 444.5144043 C52.45166016 441.84643555 52.45166016 441.84643555 51.13916016 438.72143555 C49.03875505 435.14296759 47.3021509 434.38801293 43.43603516 433.17456055 C40.59279536 432.70441853 38.96693335 433.52260755 36.45166016 434.84643555 C34.45922766 435.22236621 32.45979275 435.566231 30.45166016 435.84643555 C31.23541016 436.75393555 32.01916016 437.66143555 32.82666016 438.59643555 C38.48358858 445.1465632 37.81825728 451.47717563 37.82666016 459.84643555 C37.85115234 461.1303418 37.87564453 462.41424805 37.90087891 463.73706055 C37.90474609 464.9694043 37.90861328 466.20174805 37.91259766 467.47143555 C37.92081543 468.59807617 37.9290332 469.7247168 37.9375 470.88549805 C37.32509013 474.61781307 36.43412723 475.56191738 33.45166016 477.84643555 C30.2532196 478.34980011 30.2532196 478.34980011 26.3918457 478.35437012 C25.32514538 478.36373006 25.32514538 478.36373006 24.23689556 478.37327909 C21.85371952 478.3892356 19.47156255 478.37659532 17.08837891 478.36401367 C15.38000898 478.36943364 13.67164373 478.3765556 11.96328735 478.38525391 C7.32279143 478.40350516 2.68265081 478.39641234 -1.95785141 478.38373756 C-6.81134762 478.37361922 -11.66481316 478.383 -16.51831055 478.38928223 C-24.66932647 478.39656203 -32.82019748 478.38696219 -40.97119141 478.36791992 C-50.39845931 478.34615054 -59.8253812 478.35320168 -69.25264072 478.37522554 C-77.34276831 478.39337005 -85.43279165 478.39594252 -93.52293301 478.38547087 C-98.35654307 478.37923071 -103.18999044 478.37841463 -108.02359009 478.39161682 C-112.56763554 478.40316091 -117.11123434 478.39517612 -121.65523148 478.37203979 C-123.32415652 478.36674497 -124.99311908 478.3682797 -126.66202927 478.37709045 C-128.93803756 478.38799961 -131.21260901 478.37434053 -133.48852539 478.35437012 C-134.76277878 478.35286201 -136.03703217 478.35135391 -137.34989929 478.34980011 C-141.11516688 477.75722937 -142.30424999 476.8759676 -144.54833984 473.84643555 C-145.38450458 469.30474077 -145.15074304 464.7064281 -145.11083984 460.09643555 C-145.1346875 458.84604492 -145.15853516 457.5956543 -145.18310547 456.30737305 C-145.17129158 448.85674473 -144.58862132 443.53877812 -139.54833984 437.84643555 C-132.80408376 431.27965989 -126.4050734 430.50942439 -117.33544922 430.58276367 C-116.10632813 430.60790039 -114.87720703 430.63303711 -113.61083984 430.65893555 C-112.35464844 430.6724707 -111.09845703 430.68600586 -109.80419922 430.69995117 C-106.71872713 430.73514667 -103.63347711 430.78894852 -100.54833984 430.84643555 C-100.54833984 426.55643555 -100.54833984 422.26643555 -100.54833984 417.84643555 C-102.31878662 417.862146 -104.0892334 417.87785645 -105.91333008 417.89404297 C-111.79254744 417.942609 -117.67175791 417.97697601 -123.55111599 418.00187206 C-127.1123987 418.01746331 -130.67346242 418.0385801 -134.23461914 418.07275391 C-138.33791083 418.11187939 -142.44097598 418.12619872 -146.54443359 418.1394043 C-147.81040878 418.15488815 -149.07638397 418.17037201 -150.38072205 418.18632507 C-160.05258292 418.18815053 -167.79841596 416.97428234 -175.54833984 410.84643555 C-176.09321548 409.98957153 -176.63809113 409.13270752 -177.19947815 408.24987793 C-179.4337035 405.48827492 -179.4337035 405.48827492 -183.26060486 405.24084473 C-184.77954132 405.22388207 -186.29893309 405.23434755 -187.81762695 405.26635742 C-188.64898666 405.26390518 -189.48034637 405.26145294 -190.3368988 405.25892639 C-192.13971389 405.25675555 -193.94257095 405.26603067 -195.74528313 405.28541565 C-198.59965433 405.31543767 -201.45252492 405.31445816 -204.30702209 405.30529785 C-211.39548293 405.28900157 -218.4834825 405.32640832 -225.57183838 405.36187744 C-231.56210938 405.38981104 -237.55174425 405.39752192 -243.54205513 405.37831116 C-246.35266807 405.37769335 -249.16197124 405.40688358 -251.97239685 405.43713379 C-253.69815302 405.43505906 -255.42390826 405.43159336 -257.1496582 405.42651367 C-258.31951263 405.45123497 -258.31951263 405.45123497 -259.51300049 405.47645569 C-263.12549026 405.43627034 -265.25989154 405.04629224 -268.24903107 402.9752121 C-271.57974423 398.44295556 -271.24045764 394.67366959 -271.17652893 389.18041992 C-271.18362332 388.0934507 -271.19071771 387.00648148 -271.19802707 385.88657379 C-271.21565566 382.23742007 -271.1974762 378.58932456 -271.17944336 374.94018555 C-271.18458027 372.32689935 -271.19185982 369.71361661 -271.2011261 367.1003418 C-271.21950908 360.73512497 -271.21098621 354.37021503 -271.19303787 348.00500774 C-271.17901443 342.83209249 -271.17511851 337.65926057 -271.17848015 332.48632812 C-271.17895759 331.7502031 -271.17943503 331.01407807 -271.17992694 330.25564623 C-271.18095327 328.76024053 -271.18200863 327.26483486 -271.18309271 325.76942921 C-271.19166109 312.54503657 -271.17498035 299.32079213 -271.14526367 286.09643555 C-271.1164259 273.26303889 -271.10934251 260.42985572 -271.12475586 247.59643555 C-271.14151538 233.62302159 -271.1455548 219.64970901 -271.1280455 205.67629242 C-271.1262011 204.18637595 -271.12436638 202.69645946 -271.12254143 201.20654297 C-271.12162934 200.47346814 -271.12071725 199.7403933 -271.11977752 198.98510408 C-271.11417056 193.81817701 -271.11748078 188.6512994 -271.12408638 183.484375 C-271.13262344 176.53055908 -271.11966794 169.57705661 -271.09223747 162.62329102 C-271.08533804 160.06788041 -271.08527223 157.51244108 -271.092453 154.95703125 C-271.10111128 151.47515791 -271.08525154 147.99424409 -271.06300354 144.51245117 C-271.07536469 142.98692501 -271.07536469 142.98692501 -271.08797556 141.43058014 C-271.03603233 137.0417283 -270.9780628 134.54585755 -268.64117336 130.74230957 C-265.38749418 127.7948387 -263.56316916 127.7221278 -259.25863647 127.72618103 C-257.57588875 127.72411903 -257.57588875 127.72411903 -255.85914612 127.72201538 C-254.62268845 127.72561066 -253.38623077 127.72920593 -252.11230469 127.73291016 C-250.81478775 127.73276413 -249.51727081 127.7326181 -248.18043518 127.73246765 C-244.61660392 127.73218005 -241.05280614 127.7380708 -237.48898268 127.74504161 C-233.76671486 127.7512813 -230.04444632 127.75187943 -226.32217407 127.75306702 C-219.27091417 127.75617851 -212.21966971 127.76438946 -205.16841662 127.77441651 C-197.14192291 127.78558327 -189.11542848 127.79108952 -181.08892894 127.79611194 C-164.57539018 127.80657221 -148.06186698 127.82416815 -131.54833984 127.84643555 C-131.59328015 123.29661732 -131.6638911 118.74808566 -131.75585938 114.19897461 C-131.78366051 112.65936668 -131.80507245 111.11962684 -131.81933594 109.57983398 C-131.91611592 99.70827599 -132.91215057 90.87190667 -135.64782715 81.36669922 C-137.05728089 75.85689483 -137.14971249 70.50495179 -137.04833984 64.84643555 C-137.03480469 63.7270459 -137.02126953 62.60765625 -137.00732422 61.4543457 C-136.45559868 39.24097728 -127.35803036 20.30181778 -112.14599609 4.32299805 C-102.82645454 -4.52830074 -91.66374325 -10.95610186 -79.54833984 -15.15356445 C-78.64857422 -15.47325195 -77.74880859 -15.79293945 -76.82177734 -16.12231445 C-50.27305564 -23.85078331 -21.31518082 -16.91839981 0 0 Z M-100.16552734 17.44018555 C-107.71074987 25.05962338 -112.61967608 32.85955195 -116.54833984 42.84643555 C-116.88994141 43.67143555 -117.23154297 44.49643555 -117.58349609 45.34643555 C-122.84456531 60.61577132 -120.37873381 78.70240165 -114.11083984 93.1628418 C-106.13454462 109.40303904 -92.4252174 121.41714886 -75.54833984 127.84643555 C-74.76845703 128.16612305 -73.98857422 128.48581055 -73.18505859 128.81518555 C-57.83143521 134.10447207 -39.78690692 131.71780502 -25.23193359 125.40893555 C-8.99173635 117.43264032 3.02237347 103.7233131 9.45166016 86.84643555 C9.77134766 86.06655273 10.09103516 85.28666992 10.42041016 84.4831543 C15.70969668 69.12953092 13.32302963 51.08500262 7.01416016 36.5300293 C-1.39115494 19.41632285 -15.89310466 7.67853805 -33.54833984 0.84643555 C-36.54144242 -0.12206431 -39.43332438 -0.73290425 -42.54833984 -1.15356445 C-43.88058594 -1.35272461 -43.88058594 -1.35272461 -45.23974609 -1.5559082 C-65.94273891 -4.00939204 -85.15654217 3.32515247 -100.16552734 17.44018555 Z M-114.54833984 122.84643555 C-114.54833984 159.47643555 -114.54833984 196.10643555 -114.54833984 233.84643555 C-111.24833984 233.84643555 -107.94833984 233.84643555 -104.54833984 233.84643555 C-104.53375732 233.07976562 -104.5191748 232.3130957 -104.50415039 231.52319336 C-104.42964765 228.04710062 -104.33299338 224.57196587 -104.23583984 221.09643555 C-104.20200195 219.2865918 -104.20200195 219.2865918 -104.16748047 217.44018555 C-104.13203125 216.2800293 -104.09658203 215.11987305 -104.06005859 213.92456055 C-104.03387451 212.85625 -104.00769043 211.78793945 -103.98071289 210.68725586 C-103.49747367 207.51222954 -102.78554851 206.12026568 -100.54833984 203.84643555 C-96.83849058 202.60981913 -93.38535693 202.68412945 -89.52099609 202.6784668 C-88.73567001 202.6751384 -87.95034393 202.67181 -87.14122009 202.66838074 C-85.48111557 202.66332092 -83.8210009 202.66097212 -82.16088867 202.66113281 C-79.62385272 202.65894676 -77.08725198 202.64078259 -74.55029297 202.62182617 C-72.93636216 202.61889195 -71.32242929 202.61690735 -69.70849609 202.6159668 C-68.95109634 202.60878128 -68.19369659 202.60159576 -67.41334534 202.5941925 C-60.65583769 202.6234433 -60.65583769 202.6234433 -57.54833984 204.84643555 C-56.17994622 207.5832228 -56.33199167 209.88907978 -56.23193359 212.94799805 C-56.19003906 214.1597168 -56.14814453 215.37143555 -56.10498047 216.61987305 C-56.06566406 217.89088867 -56.02634766 219.1619043 -55.98583984 220.47143555 C-55.94265625 221.75018555 -55.89947266 223.02893555 -55.85498047 224.34643555 C-55.74864099 227.51298902 -55.64661151 230.67962307 -55.54833984 233.84643555 C-54.22833984 233.84643555 -52.90833984 233.84643555 -51.54833984 233.84643555 C-51.52852051 233.04423584 -51.50870117 232.24203613 -51.48828125 231.41552734 C-51.39314489 227.78799378 -51.28341904 224.1610451 -51.17333984 220.53393555 C-51.14240234 219.27129883 -51.11146484 218.00866211 -51.07958984 216.70776367 C-51.04091797 215.49926758 -51.00224609 214.29077148 -50.96240234 213.0456543 C-50.93098145 211.9302124 -50.89956055 210.81477051 -50.8671875 209.66552734 C-50.54833984 206.84643555 -50.54833984 206.84643555 -48.54833984 203.84643555 C-44.85272531 202.61456404 -41.4067426 202.66494855 -37.55615234 202.64331055 C-36.77319794 202.63761047 -35.99024353 202.6319104 -35.18356323 202.6260376 C-33.52766264 202.6165971 -31.87174333 202.61005739 -30.21582031 202.60620117 C-27.68960618 202.59649803 -25.16420676 202.56546773 -22.63818359 202.53393555 C-21.02751133 202.52740479 -19.41683326 202.5221546 -17.80615234 202.51831055 C-16.67779465 202.49979034 -16.67779465 202.49979034 -15.52664185 202.480896 C-11.02195354 202.49991847 -8.12188834 203.04455525 -4.54833984 205.84643555 C-3.20727579 208.52856365 -3.33383566 210.73041586 -3.23193359 213.72924805 C-3.19003906 214.89584961 -3.14814453 216.06245117 -3.10498047 217.2644043 C-3.06566406 218.48772461 -3.02634766 219.71104492 -2.98583984 220.97143555 C-2.94265625 222.20249023 -2.89947266 223.43354492 -2.85498047 224.7019043 C-2.7486528 227.74996408 -2.64662204 230.79810744 -2.54833984 233.84643555 C0.75166016 233.84643555 4.05166016 233.84643555 7.45166016 233.84643555 C7.45166016 197.21643555 7.45166016 160.58643555 7.45166016 122.84643555 C2.09986119 126.84050526 2.09986119 126.84050526 -3.17333984 130.9362793 C-22.39910756 145.89316767 -45.2447911 149.21814419 -69.03515625 146.56958008 C-82.10712768 144.51387188 -95.39135497 138.16200617 -105.45849609 129.5847168 C-108.35819607 127.17281681 -111.47920282 125.03867628 -114.54833984 122.84643555 Z M-253.54833984 144.84643555 C-253.54833984 225.03643555 -253.54833984 305.22643555 -253.54833984 387.84643555 C-230.44833984 387.84643555 -207.34833984 387.84643555 -183.54833984 387.84643555 C-183.52707031 373.51077148 -183.52707031 373.51077148 -183.50537109 358.88549805 C-183.48530991 352.82427321 -183.46399228 346.76309575 -183.43701172 340.7019043 C-183.39443725 331.08518123 -183.35693498 321.46863333 -183.3527832 311.85180664 C-183.34973543 304.84697602 -183.3291363 297.84244967 -183.28781527 290.83773649 C-183.26655676 287.13169746 -183.25384743 283.4260902 -183.26218605 279.71998978 C-183.27118513 275.5737278 -183.2409841 271.42860959 -183.20776367 267.2824707 C-183.21638931 266.0654245 -183.22501495 264.8483783 -183.23390198 263.5944519 C-183.11379002 254.6278332 -181.14469775 247.26586621 -174.73583984 240.72143555 C-174.01396484 240.10268555 -173.29208984 239.48393555 -172.54833984 238.84643555 C-173.44037109 238.80905273 -174.33240234 238.77166992 -175.25146484 238.7331543 C-176.42193359 238.66741211 -177.59240234 238.60166992 -178.79833984 238.53393555 C-179.95849609 238.47592773 -181.11865234 238.41791992 -182.31396484 238.3581543 C-185.91470993 237.7884712 -187.12963841 237.54475191 -189.54833984 234.84643555 C-190.15440135 231.80026424 -190.08433149 228.7868774 -190.04443359 225.69018555 C-190.04588882 224.79150757 -190.04734406 223.89282959 -190.04884338 222.96691895 C-190.04718364 221.06718707 -190.03561395 219.16744185 -190.01489258 217.26782227 C-189.98594738 214.35724876 -189.99427968 211.44849714 -190.00732422 208.5378418 C-190.00108658 206.69278085 -189.99269543 204.84772566 -189.98193359 203.00268555 C-189.98486923 202.13075562 -189.98780487 201.25882568 -189.99082947 200.36047363 C-189.97814529 199.54953247 -189.96546112 198.73859131 -189.95239258 197.90307617 C-189.94698959 197.19042603 -189.94158661 196.47777588 -189.9360199 195.74353027 C-189.423726 193.23664335 -188.59486839 192.35497739 -186.54833984 190.84643555 C-183.49930998 190.56011963 -180.65891888 190.45013055 -177.61083984 190.4831543 C-176.73435791 190.48265579 -175.85787598 190.48215729 -174.95483398 190.48164368 C-173.10219047 190.4839836 -171.24954375 190.49370736 -169.39697266 190.51025391 C-166.55911877 190.53384594 -163.72220436 190.53081439 -160.88427734 190.52416992 C-159.08479257 190.52974675 -157.28531176 190.53685667 -155.48583984 190.5456543 C-154.63578369 190.54474289 -153.78572754 190.54383148 -152.90991211 190.54289246 C-146.89491723 190.61538396 -146.89491723 190.61538396 -143.54833984 192.84643555 C-142.25346969 196.73104602 -142.42507945 200.40527511 -142.45068359 204.4519043 C-142.45209854 205.29110916 -142.45351349 206.13031403 -142.45497131 206.99494934 C-142.46056769 209.67464771 -142.4731195 212.35426244 -142.48583984 215.03393555 C-142.49085531 216.85099163 -142.49541814 218.66804903 -142.49951172 220.48510742 C-142.51053593 224.93891567 -142.52779806 229.39266143 -142.54833984 233.84643555 C-138.91833984 233.84643555 -135.28833984 233.84643555 -131.54833984 233.84643555 C-131.54833984 204.47643555 -131.54833984 175.10643555 -131.54833984 144.84643555 C-171.80833984 144.84643555 -212.06833984 144.84643555 -253.54833984 144.84643555 Z M24.45166016 144.84643555 C24.45166016 174.21643555 24.45166016 203.58643555 24.45166016 233.84643555 C28.08166016 233.84643555 31.71166016 233.84643555 35.45166016 233.84643555 C35.44118652 232.71625 35.43071289 231.58606445 35.41992188 230.42163086 C35.38369584 226.22472303 35.36075017 222.02782901 35.34179688 217.83081055 C35.33174524 216.01503169 35.31810187 214.19926899 35.30078125 212.38354492 C35.27649609 209.7721762 35.26516868 207.16102168 35.25634766 204.54956055 C35.24602509 203.73900208 35.23570251 202.9284436 35.22506714 202.09332275 C35.22363566 194.88687266 35.22363566 194.88687266 37.45166016 191.84643555 C40.80923898 190.16764614 44.59799113 190.66166492 48.29150391 190.64331055 C49.16940079 190.63761047 50.04729767 190.6319104 50.95179749 190.6260376 C52.81038201 190.61658404 54.66898332 190.6100522 56.52758789 190.60620117 C59.37431954 190.59648619 62.22033214 190.56546276 65.06689453 190.53393555 C66.87092669 190.52740649 68.67496403 190.52215564 70.47900391 190.51831055 C71.33219711 190.50596375 72.18539032 190.49361694 73.06443787 190.480896 C78.98548266 190.50327172 78.98548266 190.50327172 81.17520142 192.11517334 C82.72522721 194.2174748 82.83605687 195.31046019 82.85571289 197.90307617 C82.86839706 198.71401733 82.88108124 199.5249585 82.89414978 200.36047363 C82.89121414 201.23240356 82.8882785 202.1043335 82.88525391 203.00268555 C82.89049576 203.90136353 82.89573761 204.8000415 82.90113831 205.72595215 C82.90756063 207.62564053 82.90621878 209.52536867 82.89770508 211.42504883 C82.88919138 214.33576014 82.91795862 217.24451178 82.94970703 220.1550293 C82.951319 222.00008079 82.9507416 223.84513577 82.94775391 225.69018555 C82.95898788 226.56211548 82.97022186 227.43404541 82.98179626 228.33239746 C82.91238783 234.33244527 82.91238783 234.33244527 80.62280273 236.88671875 C77.6283636 238.21035984 74.96258567 238.37088927 71.70166016 238.53393555 C70.53119141 238.59967773 69.36072266 238.66541992 68.15478516 238.7331543 C67.26275391 238.77053711 66.37072266 238.80791992 65.45166016 238.84643555 C65.84998047 239.29374023 66.24830078 239.74104492 66.65869141 240.2019043 C72.44334077 246.80287888 75.51918311 251.63506072 75.65698242 260.53295898 C75.68690025 262.24428009 75.68690025 262.24428009 75.71742249 263.99017334 C75.73413498 265.21633362 75.75084747 266.4424939 75.76806641 267.70581055 C75.7888475 268.96532532 75.8096286 270.22484009 75.83103943 271.52252197 C75.88532317 274.86302426 75.93558085 278.20353777 75.98388672 281.54412842 C76.0342172 284.95614947 76.08984285 288.36808378 76.14501953 291.7800293 C76.25211129 298.46876219 76.35389556 305.15756018 76.45166016 311.84643555 C77.41152832 312.29929932 78.37139648 312.75216309 79.36035156 313.21875 C82.63175816 314.94126364 83.41853171 315.73024957 84.82666016 319.03393555 C85.30232422 320.10708008 85.30232422 320.10708008 85.78759766 321.2019043 C86.00673828 321.74459961 86.22587891 322.28729492 86.45166016 322.84643555 C86.78166016 322.84643555 87.11166016 322.84643555 87.45166016 322.84643555 C87.46624268 322.13511475 87.4808252 321.42379395 87.49584961 320.69091797 C87.57027021 317.47137223 87.66695016 314.25287036 87.76416016 311.03393555 C87.78671875 309.91438477 87.80927734 308.79483398 87.83251953 307.64135742 C87.86796875 306.56821289 87.90341797 305.49506836 87.93994141 304.3894043 C87.96612549 303.399646 87.99230957 302.4098877 88.01928711 301.39013672 C88.51589856 298.46851353 89.0910456 297.5804307 91.45166016 295.84643555 C95.02407295 294.65563128 98.28761734 294.6842746 102.00634766 294.6784668 C102.74490997 294.6751384 103.48347229 294.67181 104.24441528 294.66838074 C105.80616636 294.66332142 107.36792823 294.6609721 108.9296875 294.66113281 C111.31089242 294.65895 113.69163116 294.64079435 116.07275391 294.62182617 C117.59228358 294.61889125 119.11181544 294.61690711 120.63134766 294.6159668 C121.33983856 294.60878128 122.04832947 294.60159576 122.77828979 294.5941925 C126.76481508 294.61248097 129.93056072 294.91284894 133.45166016 296.84643555 C136.01137497 300.68600777 135.7574938 303.85889121 135.75244141 308.3112793 C135.75672653 309.14099747 135.76101166 309.97071564 135.76542664 310.82557678 C135.77116769 312.57983488 135.77167184 314.33411678 135.76733398 316.08837891 C135.76417596 318.77051481 135.78762833 321.45154556 135.81298828 324.13354492 C135.81526152 325.83862166 135.81596466 327.54370135 135.81494141 329.2487793 C135.82415115 330.04992661 135.8333609 330.85107391 135.84284973 331.67649841 C135.81518128 335.01158671 135.69477123 337.41149497 134.05004883 340.35400391 C132.10781716 342.16748523 131.06479536 342.283369 128.45166016 342.47143555 C126.31956696 342.82085866 126.31956696 342.82085866 124.45166016 343.84643555 C121.98518403 347.67672789 121.02879481 351.64603887 121.89306641 356.14331055 C123.60796689 360.23446326 125.59551808 362.23022869 129.57666016 364.15893555 C130.60146484 364.55532227 130.60146484 364.55532227 131.64697266 364.9597168 C133.45166016 365.84643555 133.45166016 365.84643555 135.45166016 368.84643555 C135.77050781 370.93115234 135.77050781 370.93115234 135.86572266 373.2956543 C135.90439453 374.14321289 135.94306641 374.99077148 135.98291016 375.86401367 C136.01384766 376.74508789 136.04478516 377.62616211 136.07666016 378.53393555 C136.11533203 379.42661133 136.15400391 380.31928711 136.19384766 381.23901367 C136.28805667 383.44114933 136.3709451 385.64376402 136.45166016 387.84643555 C139.75166016 387.84643555 143.05166016 387.84643555 146.45166016 387.84643555 C146.45166016 307.65643555 146.45166016 227.46643555 146.45166016 144.84643555 C106.19166016 144.84643555 65.93166016 144.84643555 24.45166016 144.84643555 Z M-173.54833984 206.84643555 C-173.54833984 211.79643555 -173.54833984 216.74643555 -173.54833984 221.84643555 C-168.59833984 221.84643555 -163.64833984 221.84643555 -158.54833984 221.84643555 C-158.54833984 216.89643555 -158.54833984 211.94643555 -158.54833984 206.84643555 C-163.49833984 206.84643555 -168.44833984 206.84643555 -173.54833984 206.84643555 Z M51.45166016 206.84643555 C51.45166016 211.79643555 51.45166016 216.74643555 51.45166016 221.84643555 C56.40166016 221.84643555 61.35166016 221.84643555 66.45166016 221.84643555 C66.45166016 216.89643555 66.45166016 211.94643555 66.45166016 206.84643555 C61.50166016 206.84643555 56.55166016 206.84643555 51.45166016 206.84643555 Z M-87.54833984 218.84643555 C-87.54833984 223.79643555 -87.54833984 228.74643555 -87.54833984 233.84643555 C-82.59833984 233.84643555 -77.64833984 233.84643555 -72.54833984 233.84643555 C-72.54833984 228.89643555 -72.54833984 223.94643555 -72.54833984 218.84643555 C-77.49833984 218.84643555 -82.44833984 218.84643555 -87.54833984 218.84643555 Z M-34.54833984 218.84643555 C-34.54833984 223.79643555 -34.54833984 228.74643555 -34.54833984 233.84643555 C-29.59833984 233.84643555 -24.64833984 233.84643555 -19.54833984 233.84643555 C-19.54833984 228.89643555 -19.54833984 223.94643555 -19.54833984 218.84643555 C-24.49833984 218.84643555 -29.44833984 218.84643555 -34.54833984 218.84643555 Z M-165.39868927 255.68370247 C-166.8567355 258.42659226 -166.9310777 260.34686624 -166.94274902 263.45016479 C-166.95409882 264.59131744 -166.96544861 265.73247009 -166.97714233 266.90820312 C-166.97421173 268.15609619 -166.97128113 269.40398926 -166.96826172 270.68969727 C-166.97673126 272.00712921 -166.98520081 273.32456116 -166.993927 274.68191528 C-167.01614596 278.29359273 -167.01907347 281.90504206 -167.01717949 285.51677847 C-167.01705979 288.53362271 -167.02562388 291.55041862 -167.033957 294.56724942 C-167.05319299 301.68622316 -167.05607445 308.80507965 -167.04931641 315.92407227 C-167.04267735 323.26327897 -167.06553357 330.60198287 -167.10263014 337.9410876 C-167.13334112 344.24612252 -167.14468562 350.55099582 -167.14079332 356.85610402 C-167.13872698 360.62011362 -167.14418639 364.38373209 -167.16868591 368.14767075 C-167.19097378 371.68884014 -167.18905957 375.22919331 -167.16875839 378.77036667 C-167.16373067 380.68481035 -167.18335305 382.59926938 -167.20376587 384.51361084 C-167.25900554 391.52596714 -167.25900554 391.52596714 -164.1973877 397.60281372 C-160.04937403 401.11599072 -156.93462806 400.97053335 -151.65779114 400.96669006 C-150.95285686 400.96754449 -150.24792258 400.96839891 -149.52162665 400.96927923 C-147.15395917 400.97092944 -144.78636216 400.96542015 -142.41870117 400.95996094 C-140.72369895 400.95967894 -139.02869661 400.95983704 -137.33369446 400.96040344 C-132.72657037 400.96069093 -128.11947219 400.95480203 -123.51235414 400.94782948 C-118.69969962 400.94158788 -113.88704454 400.94099151 -109.0743866 400.93980408 C-99.95841078 400.93669315 -90.84244692 400.92848296 -81.72647637 400.91845459 C-71.34933863 400.90728607 -60.97220033 400.90178113 -50.59505808 400.89675915 C-29.24614532 400.88630016 -7.89724334 400.86870531 13.45166016 400.84643555 C11.88124342 397.41302651 10.88868316 396.23302625 7.38916016 394.72143555 C3.54888238 393.04087999 3.54888238 393.04087999 2.45166016 390.84643555 C2.15713534 387.06108075 2.17370635 383.26691043 2.13916016 379.47143555 C2.11015625 378.41698242 2.08115234 377.3625293 2.05126953 376.27612305 C2.04289063 375.2603418 2.03451172 374.24456055 2.02587891 373.19799805 C2.00400513 371.80315186 2.00400513 371.80315186 1.98168945 370.38012695 C2.59577349 367.06949624 3.86761917 365.93709868 6.45166016 363.84643555 C7.96759766 363.16581055 7.96759766 363.16581055 9.51416016 362.47143555 C13.24520007 360.40745602 14.13513265 358.87346087 15.45166016 354.84643555 C15.20057028 351.33117723 14.52272519 348.14253987 13.70166016 344.72143555 C13.34309093 340.59788941 15.12777265 338.47000258 17.69628906 335.32006836 C19.13516239 333.67982343 20.62529665 332.10507006 22.13916016 330.53393555 C22.6309375 329.98415039 23.12271484 329.43436523 23.62939453 328.86791992 C26.51353738 325.88751556 28.42641288 324.48546154 32.65869141 324.4128418 C36.45166016 324.84643555 36.45166016 324.84643555 39.45166016 326.09643555 C43.34324021 327.06933056 45.12415975 326.30439291 48.56494141 324.3972168 C51.42518986 322.04624653 52.76021423 319.2130417 54.24853516 315.86987305 C55.68715118 313.45038247 56.93952834 312.98651769 59.45166016 311.84643555 C59.55309427 304.24767459 59.62314036 296.64908828 59.67138672 289.04980469 C59.69149988 286.46477738 59.71879402 283.87979555 59.75341797 281.29492188 C59.8019467 277.578906 59.82463251 273.86349177 59.84228516 270.1472168 C59.8629303 268.99183914 59.88357544 267.83646149 59.90484619 266.64607239 C59.94120953 260.41557644 59.94120953 260.41557644 57.73974609 254.70263672 C52.8432515 250.73037376 48.10682175 250.55652143 41.99427795 250.58573914 C40.72015152 250.58000082 40.72015152 250.58000082 39.42028517 250.57414657 C36.5752931 250.56383143 33.7305034 250.5678059 30.88549805 250.57177734 C28.84525872 250.56743006 26.80502103 250.56224686 24.76478577 250.55628967 C19.22351502 250.54289054 13.68231244 250.542322 8.14102864 250.54485297 C3.51614184 250.54592201 -1.10873114 250.54104107 -5.73361498 250.53624755 C-16.64346541 250.52514932 -27.55328142 250.52471682 -38.46313477 250.53076172 C-49.72109835 250.53680353 -60.97893702 250.5244859 -72.23687929 250.50319165 C-81.90069626 250.48558423 -91.56447345 250.47957291 -101.22830588 250.48282939 C-107.00091641 250.48464367 -112.77343783 250.48199153 -118.54603386 250.46811485 C-123.97397539 250.45555507 -129.40172194 250.45746316 -134.82966042 250.47052574 C-136.82187846 250.47289506 -138.81411015 250.47014417 -140.80631256 250.46190262 C-143.52576018 250.45146361 -146.24455014 250.45951295 -148.963974 250.47221375 C-150.1466184 250.46115232 -150.1466184 250.46115232 -151.3531546 250.44986743 C-157.12869887 250.50661844 -161.24676728 251.56113576 -165.39868927 255.68370247 Z M104.45166016 310.84643555 C104.45166016 315.13643555 104.45166016 319.42643555 104.45166016 323.84643555 C105.44166016 324.34143555 106.43166016 324.83643555 107.45166016 325.34643555 C108.00853516 325.62487305 108.56541016 325.90331055 109.13916016 326.19018555 C112.33370852 327.21044046 112.33370852 327.21044046 119.45166016 326.84643555 C119.45166016 321.56643555 119.45166016 316.28643555 119.45166016 310.84643555 C114.50166016 310.84643555 109.55166016 310.84643555 104.45166016 310.84643555 Z M66.45166016 328.84643555 C64.25027355 332.65071047 64.25027355 332.65071047 63.45166016 336.84643555 C62.82259766 337.0165918 62.19353516 337.18674805 61.54541016 337.36206055 C57.24000606 338.5810605 53.41176103 339.76624767 49.57666016 342.09643555 C44.43010805 344.89209348 39.03105472 343.70194271 33.45166016 342.84643555 C32.46166016 344.33143555 32.46166016 344.33143555 31.45166016 345.84643555 C31.76103516 346.58893555 32.07041016 347.33143555 32.38916016 348.09643555 C33.82769753 351.81970876 33.37033186 353.97489053 32.45166016 357.84643555 C31.5178034 359.87726815 30.49024057 361.82760369 29.41650391 363.7878418 C28.40163543 365.95316846 27.98845825 367.87376191 27.57666016 370.22143555 C27.20541016 371.41768555 26.83416016 372.61393555 26.45166016 373.84643555 C23.45166016 375.28393555 23.45166016 375.28393555 20.45166016 375.84643555 C19.46166016 376.34143555 19.46166016 376.34143555 18.45166016 376.84643555 C18.45166016 378.49643555 18.45166016 380.14643555 18.45166016 381.84643555 C19.37978516 382.23831055 20.30791016 382.63018555 21.26416016 383.03393555 C26.33458961 385.91712092 27.87774425 390.54296114 30.07666016 395.78393555 C30.50205078 396.78295898 30.92744141 397.78198242 31.36572266 398.8112793 C33.41535369 404.53992432 33.75301371 408.16073852 31.45166016 413.84643555 C32.77166016 414.83643555 34.09166016 415.82643555 35.45166016 416.84643555 C35.94666016 416.49581055 36.44166016 416.14518555 36.95166016 415.78393555 C41.23894899 414.17620224 45.376373 414.9767914 49.50244141 416.70581055 C50.84859322 417.38542117 52.18227939 418.09027937 53.50244141 418.8190918 C55.69083978 420.03386546 55.69083978 420.03386546 59.20166016 421.15893555 C63.51367904 423.39786843 64.40930744 425.51664779 66.45166016 429.84643555 C68.10166016 429.84643555 69.75166016 429.84643555 71.45166016 429.84643555 C71.76748047 428.78424805 72.08330078 427.72206055 72.40869141 426.62768555 C74.54724763 421.66233089 78.3511361 420.31273807 83.13916016 418.34643555 C83.91710937 417.98807617 84.69505859 417.6297168 85.49658203 417.26049805 C92.07861803 414.42786204 96.60340321 414.56368323 103.45166016 416.84643555 C104.11166016 416.18643555 104.77166016 415.52643555 105.45166016 414.84643555 C105.27635083 412.30899446 105.27635083 412.30899446 104.76416016 409.40893555 C104.02374884 402.31119946 106.18221463 397.98873706 109.45166016 391.84643555 C109.92293925 390.51762283 110.38333343 389.18483333 110.82666016 387.84643555 C113.06054806 383.7223348 115.06881041 383.25225528 119.45166016 381.84643555 C119.45166016 380.19643555 119.45166016 378.54643555 119.45166016 376.84643555 C118.25541016 376.49581055 117.05916016 376.14518555 115.82666016 375.78393555 C110.4946436 373.21736985 109.15526882 368.38019448 107.26757812 363.15478516 C106.65244218 361.38872855 106.05112752 359.61787199 105.45166016 357.84643555 C104.95666016 356.85643555 104.95666016 356.85643555 104.45166016 355.84643555 C104.66634603 353.00732439 105.0326277 350.20174136 105.39306641 347.37768555 C105.42207031 346.1247168 105.42207031 346.1247168 105.45166016 344.84643555 C104.46166016 343.85643555 104.46166016 343.85643555 103.45166016 342.84643555 C101.14246506 343.02152943 101.14246506 343.02152943 98.51416016 343.53393555 C91.68245685 344.31291089 87.37481094 341.95516997 81.45166016 338.84643555 C80.12257668 338.37592059 78.78977974 337.91560129 77.45166016 337.47143555 C73.32755941 335.23754764 72.85747988 333.22928529 71.45166016 328.84643555 C69.80166016 328.84643555 68.15166016 328.84643555 66.45166016 328.84643555 Z M-83.54833984 417.84643555 C-83.54833984 422.13643555 -83.54833984 426.42643555 -83.54833984 430.84643555 C-63.74833984 430.84643555 -43.94833984 430.84643555 -23.54833984 430.84643555 C-23.54833984 426.55643555 -23.54833984 422.26643555 -23.54833984 417.84643555 C-43.34833984 417.84643555 -63.14833984 417.84643555 -83.54833984 417.84643555 Z M-6.54833984 417.84643555 C-6.54833984 422.13643555 -6.54833984 426.42643555 -6.54833984 430.84643555 C-3.71175781 430.93731445 -3.71175781 430.93731445 -0.81787109 431.0300293 C1.66781333 431.11444877 4.15349003 431.19909607 6.63916016 431.28393555 C8.50797852 431.34291016 8.50797852 431.34291016 10.41455078 431.40307617 C11.61660156 431.4449707 12.81865234 431.48686523 14.05712891 431.5300293 C15.7145813 431.58501587 15.7145813 431.58501587 17.40551758 431.64111328 C20.17758988 431.82796211 22.74708889 432.2280592 25.45166016 432.84643555 C24.58541016 431.85643555 23.71916016 430.86643555 22.82666016 429.84643555 C21.12976997 427.90713247 19.57416531 426.05500222 18.26660156 423.82885742 C15.5608059 419.42808912 15.5608059 419.42808912 11.09472656 417.2019043 C8.38102672 417.05942615 5.78622776 417.14544052 3.07666016 417.34643555 C2.14982422 417.3825293 1.22298828 417.41862305 0.26806641 417.45581055 C-2.00586426 417.54958088 -4.27765008 417.69306813 -6.54833984 417.84643555 Z M-127.54833984 449.84643555 C-127.54833984 453.80643555 -127.54833984 457.76643555 -127.54833984 461.84643555 C-78.70833984 461.84643555 -29.86833984 461.84643555 20.45166016 461.84643555 C20.45166016 457.88643555 20.45166016 453.92643555 20.45166016 449.84643555 C17.01374181 447.55448999 15.76532988 447.59539977 11.72021484 447.59246826 C10.52561646 447.58682861 9.33101807 447.58118896 8.10021973 447.57537842 C6.78791382 447.57942688 5.47560791 447.58347534 4.12353516 447.58764648 C2.72896136 447.58493673 1.33438899 447.58137589 -0.06018066 447.57702637 C-3.84937541 447.56789816 -7.6384614 447.57144837 -11.42765808 447.57778454 C-15.39008887 447.5828423 -19.35251025 447.57815371 -23.31494141 447.57501221 C-29.96958084 447.57137191 -36.6241759 447.57617332 -43.27880859 447.58569336 C-50.9763202 447.59657804 -58.67372586 447.59305251 -66.37123489 447.58204055 C-72.97596774 447.57296948 -79.58066867 447.57168151 -86.18540573 447.57691789 C-90.13196296 447.58003859 -94.07847037 447.5804442 -98.02502441 447.57384491 C-101.7350308 447.56807469 -105.44490038 447.57206233 -109.15489197 447.58363342 C-111.16889253 447.58754676 -113.18290464 447.58159159 -115.19689941 447.57537842 C-116.988797 447.58383789 -116.988797 447.58383789 -118.81689453 447.59246826 C-120.37763702 447.59359934 -120.37763702 447.59359934 -121.96990967 447.59475327 C-124.78715929 447.66530593 -124.78715929 447.66530593 -127.54833984 449.84643555 Z " fill="#FFC763" transform="translate(309.54833984375,26.153564453125)"/>
<path d="M0 0 C1.051875 -0.00515625 2.10375 -0.0103125 3.1875 -0.015625 C4.280625 -0.00015625 5.37375 0.0153125 6.5 0.03125 C8.1396875 0.00804687 8.1396875 0.00804687 9.8125 -0.015625 C10.864375 -0.01046875 11.91625 -0.0053125 13 0 C14.43859375 0.00676758 14.43859375 0.00676758 15.90625 0.01367188 C19.25259546 0.68142906 20.40979342 1.87847656 22.5 4.53125 C23.75 8.28125 23.75 8.28125 24.5 11.53125 C26.07925975 11.92305108 27.66368794 12.29405736 29.25 12.65625 C30.13171875 12.86507813 31.0134375 13.07390625 31.921875 13.2890625 C34.88677674 13.56758357 35.98065661 13.01228659 38.5 11.53125 C41.625 10.84375 41.625 10.84375 45.5 11.53125 C49.19910366 14.18100413 52.33012513 17.27809435 55.5 20.53125 C56.15097656 21.16160156 56.80195313 21.79195313 57.47265625 22.44140625 C60.39260405 25.47180125 61.41953658 26.93783225 62 31.21875 C61.54461435 34.23567993 60.8274171 35.87641581 59.5 38.53125 C59.76259783 41.01176222 59.76259783 41.01176222 60.5 43.53125 C60.83333333 45.19791667 61.16666667 46.86458333 61.5 48.53125 C62.5725 48.77875 63.645 49.02625 64.75 49.28125 C68.64269691 50.57881564 69.99992482 51.38240396 72.5 54.53125 C73.01757812 57.125 73.01757812 57.125 73.03125 60.03125 C73.03898437 61.6090625 73.03898437 61.6090625 73.046875 63.21875 C73.03140625 64.311875 73.0159375 65.405 73 66.53125 C73.02320313 68.1709375 73.02320313 68.1709375 73.046875 69.84375 C73.04171875 70.895625 73.0365625 71.9475 73.03125 73.03125 C73.02673828 73.9903125 73.02222656 74.949375 73.01757812 75.9375 C72.34982094 79.28384546 71.15277344 80.44104342 68.5 82.53125 C64.75 83.78125 64.75 83.78125 61.5 84.53125 C61.355625 85.253125 61.21125 85.975 61.0625 86.71875 C60.70174862 88.52250691 60.28916138 90.31710302 59.8125 92.09375 C59.27240308 94.51146411 59.27240308 94.51146411 60.4375 96.40625 C62.10909378 99.74943757 62.05516669 101.83013871 61.5 105.53125 C59.50002902 108.53712354 57.05905916 110.99698793 54.5 113.53125 C53.85546875 114.20027344 53.2109375 114.86929688 52.546875 115.55859375 C46.80636458 121.45588281 46.80636458 121.45588281 42.25 121.71875 C38.5 121.53125 38.5 121.53125 35.375 120.40625 C31.87688082 119.34160503 30.70822825 119.97049031 27.5 121.53125 C26.51 121.53125 25.52 121.53125 24.5 121.53125 C24.35304688 122.14613281 24.20609375 122.76101563 24.0546875 123.39453125 C23.83039063 124.20277344 23.60609375 125.01101563 23.375 125.84375 C23.16617188 126.64425781 22.95734375 127.44476563 22.7421875 128.26953125 C20.90828097 131.60862522 19.06296377 132.25876294 15.5 133.53125 C12.48637873 133.9337033 9.53656292 133.95134747 6.5 133.90625 C5.32824219 133.92365234 5.32824219 133.92365234 4.1328125 133.94140625 C-0.76013034 133.91669442 -4.35706103 133.40090039 -8.5 130.53125 C-9.7421875 128.26953125 -9.7421875 128.26953125 -10.375 125.84375 C-10.59929687 125.03550781 -10.82359375 124.22726562 -11.0546875 123.39453125 C-11.20164063 122.77964844 -11.34859375 122.16476562 -11.5 121.53125 C-12.2425 121.386875 -12.985 121.2425 -13.75 121.09375 C-16.5 120.53125 -16.5 120.53125 -18.5 119.84375 C-20.59823781 119.34029245 -20.59823781 119.34029245 -22.8125 120.46875 C-26.44353608 121.90427589 -28.61109301 122.1244731 -32.5 121.53125 C-35.50407924 119.52853051 -37.96566739 117.09038038 -40.5 114.53125 C-41.16902344 113.88671875 -41.83804688 113.2421875 -42.52734375 112.578125 C-48.42758377 106.83474207 -48.42758377 106.83474207 -48.6875 102.15625 C-48.50815257 98.68886633 -47.97670477 97.48465953 -46.5 94.53125 C-46.76259783 92.05073778 -46.76259783 92.05073778 -47.5 89.53125 C-48 87.03125 -48 87.03125 -48.5 84.53125 C-49.12648437 84.34949219 -49.75296875 84.16773438 -50.3984375 83.98046875 C-51.21570313 83.72910156 -52.03296875 83.47773438 -52.875 83.21875 C-53.68710938 82.97511719 -54.49921875 82.73148437 -55.3359375 82.48046875 C-57.5 81.53125 -57.5 81.53125 -59.5 78.53125 C-59.96433114 74.5672668 -59.87033263 70.58201456 -59.875 66.59375 C-59.89949219 65.49611328 -59.92398438 64.39847656 -59.94921875 63.26757812 C-59.95308594 62.21119141 -59.95695313 61.15480469 -59.9609375 60.06640625 C-59.96915527 59.100979 -59.97737305 58.13555176 -59.98583984 57.14086914 C-59.35740812 53.76533816 -58.1711114 52.62905113 -55.5 50.53125 C-51.75 49.28125 -51.75 49.28125 -48.5 48.53125 C-48.355625 47.809375 -48.21125 47.0875 -48.0625 46.34375 C-47.70174862 44.53999309 -47.28916138 42.74539698 -46.8125 40.96875 C-46.27240308 38.55103589 -46.27240308 38.55103589 -47.4375 36.65625 C-49.10909378 33.31306243 -49.05516669 31.23236129 -48.5 27.53125 C-46.53978352 24.47453742 -44.09772792 22.05271434 -41.5 19.53125 C-40.76652344 18.77714844 -40.03304687 18.02304687 -39.27734375 17.24609375 C-33.58394478 11.70894587 -33.58394478 11.70894587 -28.6875 10.90625 C-25.84208262 11.46417498 -24.04258576 12.25995712 -21.5 13.53125 C-19.01948778 13.26865217 -19.01948778 13.26865217 -16.5 12.53125 C-15.1078125 12.2528125 -15.1078125 12.2528125 -13.6875 11.96875 C-12.965625 11.824375 -12.24375 11.68 -11.5 11.53125 C-11.2525 10.45875 -11.005 9.38625 -10.75 8.28125 C-8.75791705 2.30500115 -6.33940311 0.02982246 0 0 Z M4.5 17.53125 C4.108125 18.583125 3.71625 19.635 3.3125 20.71875 C0.52910218 25.73699278 -4.31908816 26.76393199 -9.50390625 28.48828125 C-12.62758404 29.43551783 -12.62758404 29.43551783 -15.5 31.53125 C-19.68573976 31.73057094 -23.48575735 31.86933088 -27.5 30.53125 C-29.32364893 33.59115532 -29.62659818 35.09249928 -28.8125 38.53125 C-27.89417121 44.91732953 -30.7818251 49.90246303 -33.5 55.53125 C-33.974375 56.706875 -34.44875 57.8825 -34.9375 59.09375 C-36.9508521 62.23457928 -39.08648264 63.16584306 -42.5 64.53125 C-42.46906827 66.94710574 -42.46906827 66.94710574 -41.5 69.53125 C-40.56027344 69.92570312 -39.62054688 70.32015625 -38.65234375 70.7265625 C-34.56884867 73.06432548 -33.632343 75.83971365 -32.1875 80.09375 C-31.69146458 81.4492401 -31.19537335 82.80470977 -30.69921875 84.16015625 C-30.10560547 85.82884766 -30.10560547 85.82884766 -29.5 87.53125 C-29.17 88.19125 -28.84 88.85125 -28.5 89.53125 C-28.3578012 93.37061768 -28.32245324 96.85141639 -29.5 100.53125 C-26.42210433 102.36972459 -24.90018079 102.65278757 -21.4375 101.84375 C-16.17206996 101.08906728 -12.72111784 102.83492069 -8.0859375 105.2109375 C-5.8938278 106.33017176 -3.82402664 107.13157445 -1.5 107.90625 C2.62410075 110.1401379 3.09418027 112.14840026 4.5 116.53125 C5.82 116.53125 7.14 116.53125 8.5 116.53125 C8.891875 115.314375 9.28375 114.0975 9.6875 112.84375 C11.83640311 108.42873087 14.48363132 107.34418577 19 105.65625 C21.16598847 104.94584553 23.33258843 104.23730074 25.5 103.53125 C26.17546875 103.1496875 26.8509375 102.768125 27.546875 102.375 C30.26875674 101.19914709 32.33060993 101.55870356 35.25 101.90625 C36.23484375 102.01710938 37.2196875 102.12796875 38.234375 102.2421875 C38.98203125 102.33757812 39.7296875 102.43296875 40.5 102.53125 C41.60836423 100.64808841 41.60836423 100.64808841 42.5 98.53125 C42.17 97.87125 41.84 97.21125 41.5 96.53125 C40.72811651 90.4848293 42.61861544 86.51641869 45.28125 81.1171875 C46.63450422 78.45821407 46.63450422 78.45821407 47.375 75.09375 C49.08489756 71.19898334 51.72696345 70.34789723 55.5 68.53125 C55.46906827 66.11539426 55.46906827 66.11539426 54.5 63.53125 C53.56027344 63.13679688 52.62054688 62.74234375 51.65234375 62.3359375 C47.56884867 59.99817452 46.632343 57.22278635 45.1875 52.96875 C44.69146458 51.6132599 44.19537335 50.25779023 43.69921875 48.90234375 C43.30347656 47.78988281 42.90773438 46.67742187 42.5 45.53125 C42.005 44.54125 42.005 44.54125 41.5 43.53125 C41.58744368 41.65262125 41.74175542 39.77669819 41.9375 37.90625 C42.03933594 36.90335937 42.14117187 35.90046875 42.24609375 34.8671875 C42.37177734 33.71089844 42.37177734 33.71089844 42.5 32.53125 C40.61683841 31.42288577 40.61683841 31.42288577 38.5 30.53125 C37.84 30.86125 37.18 31.19125 36.5 31.53125 C30.86185807 32.01729672 27.49241134 31.43728684 22.5859375 28.6640625 C20.34301742 27.44599729 18.06771604 26.57290278 15.6875 25.65625 C12.2127526 24.15851405 11.57891757 23.65560496 9.4375 20.28125 C9.128125 19.37375 8.81875 18.46625 8.5 17.53125 C7.18 17.53125 5.86 17.53125 4.5 17.53125 Z " fill="#FFC763" transform="translate(249.5,285.46875)"/>
<path d="M0 0 C0.90789276 -0.00960754 1.81578552 -0.01921509 2.75119019 -0.02911377 C4.22617477 -0.03548859 4.22617477 -0.03548859 5.73095703 -0.04199219 C6.73965851 -0.04769226 7.74835999 -0.05339233 8.78762817 -0.05926514 C10.92448881 -0.06872219 13.06136409 -0.07525191 15.19824219 -0.07910156 C18.46852037 -0.08880709 21.7381702 -0.1198241 25.00830078 -0.15136719 C27.08251579 -0.15789712 29.15673531 -0.16314763 31.23095703 -0.16699219 C32.21023163 -0.17933899 33.18950623 -0.19168579 34.19845581 -0.20440674 C35.11265289 -0.20140564 36.02684998 -0.19840454 36.96875 -0.1953125 C37.7710202 -0.19895813 38.57329041 -0.20260376 39.39987183 -0.20635986 C42.20025418 0.25848546 43.5578175 1.22927218 45.61376953 3.16113281 C46.55514208 5.98525046 46.73102335 7.69031313 46.71142578 10.61035156 C46.7065918 11.88168945 46.7065918 11.88168945 46.70166016 13.17871094 C46.6890918 14.50032227 46.6890918 14.50032227 46.67626953 15.84863281 C46.67175781 16.74130859 46.66724609 17.63398437 46.66259766 18.55371094 C46.65081936 20.75625268 46.63437117 22.9586588 46.61376953 25.16113281 C47.92732422 25.12632813 49.24087891 25.09152344 50.59423828 25.05566406 C52.32990254 25.02751816 54.06558068 25.00021886 55.80126953 24.97363281 C57.09774414 24.93592773 57.09774414 24.93592773 58.42041016 24.89746094 C63.30212175 24.84134931 66.68109153 24.90623098 70.61376953 28.16113281 C71.78528162 30.50415699 71.75865737 31.93536022 71.79077148 34.54736328 C71.81002434 35.90920242 71.81002434 35.90920242 71.82966614 37.29855347 C71.83705307 38.28187653 71.84444 39.26519958 71.85205078 40.27832031 C71.86012253 41.28702179 71.86819427 42.29572327 71.87651062 43.33499146 C71.89035546 45.47184528 71.90107582 47.60872125 71.90893555 49.74560547 C71.92616374 53.01604976 71.9700485 56.28548734 72.01416016 59.55566406 C72.02428554 61.62987537 72.03280212 63.70409527 72.03955078 65.77832031 C72.05705887 66.75759491 72.07456696 67.73686951 72.09260559 68.74581909 C72.07086503 75.5394266 72.07086503 75.5394266 69.7121582 78.74755859 C66.62209095 80.82917458 64.94988091 81.28337356 61.26220703 81.25878906 C59.98603516 81.25395508 59.98603516 81.25395508 58.68408203 81.24902344 C57.79462891 81.24064453 56.90517578 81.23226562 55.98876953 81.22363281 C55.09158203 81.21912109 54.19439453 81.21460937 53.27001953 81.20996094 C51.05120305 81.19815872 48.83251935 81.18169437 46.61376953 81.16113281 C46.66597656 83.13146484 46.66597656 83.13146484 46.71923828 85.14160156 C46.74738419 86.87726582 46.77468349 88.61294396 46.80126953 90.34863281 C46.82640625 91.21294922 46.85154297 92.07726562 46.87744141 92.96777344 C46.93355303 97.84948503 46.86867137 101.22845481 43.61376953 105.16113281 C41.26677661 106.33462927 39.84386265 106.29995423 37.22753906 106.32226562 C36.3196463 106.33187317 35.41175354 106.34148071 34.47634888 106.35137939 C33.00136429 106.35775421 33.00136429 106.35775421 31.49658203 106.36425781 C29.98352982 106.37280792 29.98352982 106.37280792 28.43991089 106.38153076 C26.30305025 106.39098782 24.16617498 106.39751753 22.02929688 106.40136719 C18.75901869 106.41107272 15.48936886 106.44208973 12.21923828 106.47363281 C10.14502327 106.48016274 8.07080376 106.48541325 5.99658203 106.48925781 C5.01730743 106.50160461 4.03803284 106.51395142 3.02908325 106.52667236 C2.11488617 106.52367126 1.20068909 106.52067017 0.25878906 106.51757812 C-0.54348114 106.52122375 -1.34575134 106.52486938 -2.17233276 106.52862549 C-4.97271511 106.06378016 -6.33027844 105.09299344 -8.38623047 103.16113281 C-9.32760302 100.33701516 -9.50348429 98.63195249 -9.48388672 95.71191406 C-9.47905273 94.44057617 -9.47905273 94.44057617 -9.47412109 93.14355469 C-9.46574219 92.26248047 -9.45736328 91.38140625 -9.44873047 90.47363281 C-9.44421875 89.58095703 -9.43970703 88.68828125 -9.43505859 87.76855469 C-9.4232803 85.56601295 -9.40683211 83.36360682 -9.38623047 81.16113281 C-10.69978516 81.1959375 -12.01333984 81.23074219 -13.36669922 81.26660156 C-15.10236348 81.29474747 -16.83804161 81.32204677 -18.57373047 81.34863281 C-19.43804687 81.37376953 -20.30236328 81.39890625 -21.19287109 81.42480469 C-26.07458268 81.48091631 -29.45355247 81.41603465 -33.38623047 78.16113281 C-34.55972693 75.81413989 -34.52505189 74.39122593 -34.54736328 71.77490234 C-34.55697083 70.86700958 -34.56657837 69.95911682 -34.57647705 69.02371216 C-34.58072693 68.0403891 -34.58497681 67.05706604 -34.58935547 66.04394531 C-34.59505554 65.03524384 -34.60075562 64.02654236 -34.60662842 62.98727417 C-34.61608547 60.85041353 -34.62261519 58.71353826 -34.62646484 56.57666016 C-34.63617037 53.30638197 -34.66718739 50.03673215 -34.69873047 46.76660156 C-34.7052604 44.69238655 -34.71051091 42.61816704 -34.71435547 40.54394531 C-34.72670227 39.56467072 -34.73904907 38.58539612 -34.75177002 37.57644653 C-34.74876892 36.66224945 -34.74576782 35.74805237 -34.74267578 34.80615234 C-34.74632141 34.00388214 -34.74996704 33.20161194 -34.75372314 32.37503052 C-34.28887782 29.57464817 -33.3180911 28.21708485 -31.38623047 26.16113281 C-28.56211282 25.21976026 -26.85705015 25.04387899 -23.93701172 25.06347656 C-23.08945313 25.06669922 -22.24189453 25.06992187 -21.36865234 25.07324219 C-20.04704102 25.08581055 -20.04704102 25.08581055 -18.69873047 25.09863281 C-17.3597168 25.10540039 -17.3597168 25.10540039 -15.99365234 25.11230469 C-13.7911106 25.12408299 -11.58870448 25.14053117 -9.38623047 25.16113281 C-9.42103516 23.84757812 -9.45583984 22.53402344 -9.49169922 21.18066406 C-9.51984513 19.4449998 -9.54714443 17.70932167 -9.57373047 15.97363281 C-9.59886719 15.10931641 -9.62400391 14.245 -9.64990234 13.35449219 C-9.70601397 8.4727806 -9.6411323 5.09381082 -6.38623047 1.16113281 C-4.03923755 -0.01236365 -2.61632358 0.02231139 0 0 Z M7.61376953 17.16113281 C7.44357412 23.56254896 7.44357412 23.56254896 7.31591797 29.96484375 C7.17386489 33.68663437 6.99883613 36.45089887 5.20751953 39.75488281 C1.08682802 41.98899267 -3.02163409 41.83882222 -7.63623047 41.91113281 C-10.85373047 41.99363281 -14.07123047 42.07613281 -17.38623047 42.16113281 C-17.38623047 49.42113281 -17.38623047 56.68113281 -17.38623047 64.16113281 C-10.98481432 64.33132822 -10.98481432 64.33132822 -4.58251953 64.45898438 C-0.86072892 64.60103745 1.90353558 64.77606622 5.20751953 66.56738281 C7.44162938 70.68807432 7.29145894 74.79653643 7.36376953 79.41113281 C7.44626953 82.62863281 7.52876953 85.84613281 7.61376953 89.16113281 C14.87376953 89.16113281 22.13376953 89.16113281 29.61376953 89.16113281 C29.78396494 82.75971667 29.78396494 82.75971667 29.91162109 76.35742188 C30.05367417 72.63563126 30.22870293 69.87136676 32.02001953 66.56738281 C36.14071104 64.33327296 40.24917315 64.48344341 44.86376953 64.41113281 C48.08126953 64.32863281 51.29876953 64.24613281 54.61376953 64.16113281 C54.61376953 56.90113281 54.61376953 49.64113281 54.61376953 42.16113281 C48.21235339 41.9909374 48.21235339 41.9909374 41.81005859 41.86328125 C38.08826798 41.72122817 35.32400348 41.54619941 32.02001953 39.75488281 C29.78590968 35.6341913 29.93608012 31.5257292 29.86376953 26.91113281 C29.78126953 23.69363281 29.69876953 20.47613281 29.61376953 17.16113281 C22.35376953 17.16113281 15.09376953 17.16113281 7.61376953 17.16113281 Z " fill="#FFC763" transform="translate(237.38623046875,37.8388671875)"/>
<path d="M0 0 C9.96702967 -0.56075848 19.62103964 2.78900877 27.15625 9.2734375 C35.31979635 17.37101579 38.53607548 25.37869852 39.14453125 36.8203125 C38.98258514 46.80313348 35.73803914 54.77314961 29.08984375 62.19140625 C20.46639887 70.26636347 11.77221695 73.5487031 -0.00390625 73.40625 C-10.38993832 72.63846537 -19.16621609 67.72156705 -26.3046875 60.2890625 C-33.18883993 51.29443998 -34.81766608 41.20584065 -33.91015625 30.19140625 C-31.27307185 19.39712296 -25.73478403 11.82401912 -16.91015625 5.19140625 C-11.42483932 2.04276216 -6.26543439 0.62782471 0 0 Z M-11.78515625 23.1328125 C-16.27770598 28.99688582 -17.73495289 33.82800436 -16.91015625 41.19140625 C-15.03045601 47.80028862 -10.80716944 51.86281873 -4.91015625 55.19140625 C0.30058708 56.82224958 5.13355995 56.87440416 10.15234375 54.62890625 C15.45027693 51.71761481 18.84497894 47.68113586 21.52734375 42.31640625 C22.54168988 36.68115 22.04925977 32.03917043 19.40234375 26.94140625 C14.4625067 21.06700544 9.92085057 17.83554049 2.27734375 16.81640625 C-3.17556779 17.45792526 -7.91193432 19.12241396 -11.78515625 23.1328125 Z " fill="#FFC763" transform="translate(375.91015625,368.80859375)"/>
<path d="M0 0 C8.22619347 6.27247252 13.25854747 14.05470137 14.875 24.4296875 C15.79164849 34.9182616 13.21124489 44.01907672 6.875 52.4296875 C-0.04689713 60.26236057 -7.56346671 64.59065404 -18.01171875 65.75 C-28.04001054 66.14326634 -37.59650465 63.61559751 -45.3828125 57.10546875 C-53.18784341 49.59793902 -57.16769232 40.14231248 -57.5625 29.2421875 C-57.02283408 18.1430584 -52.17835314 8.66310926 -44.21875 1.03515625 C-31.08888044 -9.03271015 -13.54525114 -9.23043324 0 0 Z M-36.125 17.4296875 C-39.80018445 22.679951 -40.65786643 27.03529036 -40.125 33.4296875 C-37.84959781 40.26889636 -34.03427568 44.26929831 -27.75 47.7421875 C-21.40738361 49.40334893 -16.60372126 48.8502805 -10.94921875 45.6953125 C-6.21303298 42.40939347 -3.22155283 38.13176221 -2.125 32.4296875 C-1.83181819 25.73161065 -3.15873536 21.16970463 -7.53125 16.0546875 C-11.76444749 11.73848614 -15.72644834 10.7930293 -21.62890625 10.36328125 C-27.45641473 10.51831669 -31.99913944 13.53304142 -36.125 17.4296875 Z " fill="#FFC763" transform="translate(277.125,322.5703125)"/>
<path d="M0 0 C0.7347757 -0.00570007 1.46955139 -0.01140015 2.22659302 -0.01727295 C3.77816336 -0.02669873 5.32975349 -0.03324729 6.88134766 -0.03710938 C9.24287153 -0.0468136 11.60352392 -0.07785791 13.96484375 -0.109375 C15.47655736 -0.11590612 16.98827716 -0.12115616 18.5 -0.125 C19.20019257 -0.1373468 19.90038513 -0.1496936 20.62179565 -0.16241455 C25.26838498 -0.1415184 28.44227994 0.74281909 32.3828125 3.203125 C34.0573371 6.55217421 33.56756357 10.32392751 33.5859375 14.0078125 C33.59163757 14.88333771 33.59733765 15.75886292 33.60321045 16.66091919 C33.61266498 18.51530751 33.61919623 20.36971267 33.62304688 22.22412109 C33.63275003 25.05986889 33.66376775 27.89489122 33.6953125 30.73046875 C33.70184279 32.53124569 33.70709316 34.33202782 33.7109375 36.1328125 C33.7232843 36.98084442 33.7356311 37.82887634 33.74835205 38.7026062 C33.73505264 42.22155049 33.72272717 44.56450876 32.04980469 47.70751953 C28.4279099 50.95704025 23.97074002 50.38051251 19.390625 50.40625 C18.21619339 50.41480011 18.21619339 50.41480011 17.01803589 50.42352295 C15.36213529 50.43296345 13.70621599 50.43950316 12.05029297 50.44335938 C9.52407884 50.45306252 6.99867942 50.48409282 4.47265625 50.515625 C2.86198399 50.52215575 1.25130592 50.52740594 -0.359375 50.53125 C-1.4877327 50.5497702 -1.4877327 50.5497702 -2.6388855 50.56866455 C-7.15384598 50.5495987 -10.04863695 50.02392416 -13.6171875 47.203125 C-16.16845567 43.37622274 -15.9407748 40.21285764 -15.953125 35.7734375 C-15.9597818 34.946091 -15.9664386 34.11874451 -15.97329712 33.2663269 C-15.98341968 31.5162783 -15.98811426 29.76619113 -15.98779297 28.01611328 C-15.99216036 25.34472652 -16.02846598 22.67500003 -16.06640625 20.00390625 C-16.07227576 18.30208897 -16.07624425 16.60026386 -16.078125 14.8984375 C-16.09249603 14.10245148 -16.10686707 13.30646545 -16.12167358 12.48635864 C-16.08995196 8.61616517 -15.86558165 6.61938806 -13.83837891 3.22216797 C-9.71408567 -0.52677742 -5.35743284 0.03233046 0 0 Z M1.3828125 17.203125 C1.3828125 22.483125 1.3828125 27.763125 1.3828125 33.203125 C6.3328125 33.203125 11.2828125 33.203125 16.3828125 33.203125 C16.3828125 27.923125 16.3828125 22.643125 16.3828125 17.203125 C11.4328125 17.203125 6.4828125 17.203125 1.3828125 17.203125 Z " fill="#FFC764" transform="translate(81.6171875,319.796875)"/>
<path d="M0 0 C1.27362648 -0.00574036 1.27362648 -0.00574036 2.57298279 -0.01159668 C4.362388 -0.01431112 6.15183322 -0.00698266 7.94116211 0.00976562 C10.67847061 0.03120987 13.41316266 0.0099359 16.15039062 -0.015625 C17.89193287 -0.01298216 19.63347348 -0.00785808 21.375 0 C22.60012047 -0.01214539 22.60012047 -0.01214539 23.84999084 -0.02453613 C27.50885596 0.03581867 29.65850672 0.17591042 32.60522461 2.43945312 C35.50251641 6.43751982 35.29823481 9.85526654 35.32421875 14.64453125 C35.32991882 15.45109665 35.3356189 16.25766205 35.3414917 17.08866882 C35.3509457 18.79762458 35.35747727 20.5065986 35.36132812 22.21557617 C35.37101695 24.82308041 35.40202875 27.42979078 35.43359375 30.03710938 C35.4401256 31.69791199 35.44537536 33.35872024 35.44921875 35.01953125 C35.46156555 35.79678055 35.47391235 36.57402985 35.4866333 37.37483215 C35.46797091 41.93881913 34.97855198 44.91507834 32.12109375 48.53125 C28.77235833 50.20561771 25.00076513 49.73759047 21.31640625 49.76953125 C20.44088104 49.777603 19.56535583 49.78567474 18.66329956 49.79399109 C16.80891908 49.80783221 14.95451312 49.81855424 13.10009766 49.82641602 C10.26415809 49.84364029 7.42938089 49.88752643 4.59375 49.93164062 C2.79297733 49.94176655 0.99219474 49.95028297 -0.80859375 49.95703125 C-1.65662567 49.97453934 -2.50465759 49.99204742 -3.37838745 50.01008606 C-6.97436314 49.99683756 -9.25378747 49.88941672 -12.41040039 48.08081055 C-14.63083181 44.22578722 -14.47046151 40.69154253 -14.4453125 36.3125 C-14.45151108 35.41760864 -14.45770966 34.52271729 -14.46409607 33.60070801 C-14.47119092 31.7111927 -14.46802604 29.82161483 -14.45532227 27.93212891 C-14.44145217 25.0408231 -14.47553485 22.15275139 -14.51367188 19.26171875 C-14.51462306 17.42447837 -14.51276431 15.58723395 -14.5078125 13.75 C-14.52107071 12.88636841 -14.53432892 12.02273682 -14.54798889 11.13293457 C-14.48645171 7.16745797 -14.38385849 5.1783443 -11.89453125 1.98828125 C-7.82561723 0.02234222 -4.46656431 -0.04438986 0 0 Z M3.12109375 17.53125 C3.12109375 22.48125 3.12109375 27.43125 3.12109375 32.53125 C8.07109375 32.53125 13.02109375 32.53125 18.12109375 32.53125 C18.12109375 27.58125 18.12109375 22.63125 18.12109375 17.53125 C13.17109375 17.53125 8.22109375 17.53125 3.12109375 17.53125 Z " fill="#FFC763" transform="translate(271.87890625,175.46875)"/>
<path d="M0 0 C1.27431381 -0.0099852 1.27431381 -0.0099852 2.57437134 -0.02017212 C4.37149898 -0.03029556 6.16866419 -0.03498923 7.96582031 -0.03466797 C10.70961817 -0.03903553 13.45179988 -0.07534115 16.1953125 -0.11328125 C17.94270284 -0.11915069 19.69010081 -0.12311923 21.4375 -0.125 C22.6642897 -0.14655655 22.6642897 -0.14655655 23.91586304 -0.16854858 C27.62708532 -0.1389201 29.98332929 0.15868747 33.36938477 1.78857422 C36.3190527 5.5792917 36.05235224 8.87224111 35.98046875 13.5546875 C35.98288071 14.44957886 35.98529266 15.34447021 35.98777771 16.26647949 C35.98679944 18.156051 35.97341043 20.04565122 35.94848633 21.93505859 C35.91417821 24.82618638 35.92782684 27.71425735 35.94726562 30.60546875 C35.94036702 32.44272134 35.9306945 34.27996604 35.91796875 36.1171875 C35.92292862 36.98081909 35.92788849 37.84445068 35.93299866 38.73425293 C35.86186667 42.36191618 35.71610475 44.70600993 33.87866211 47.88110352 C30.08373333 50.06581809 26.65980519 49.88952844 22.3515625 49.83203125 C21.47886719 49.83348648 20.60617188 49.83494171 19.70703125 49.83644104 C17.86454932 49.83478332 16.02205337 49.82323615 14.1796875 49.80249023 C11.36138012 49.77353835 8.5449546 49.78188288 5.7265625 49.79492188 C3.9348867 49.78868409 2.14321684 49.78029284 0.3515625 49.76953125 C-0.91107422 49.77393471 -0.91107422 49.77393471 -2.19921875 49.77842712 C-5.69334888 49.72215594 -8.03293972 49.66574573 -11.1484375 47.99633789 C-14.46483535 44.32530571 -13.80978521 39.73838346 -13.81640625 35.08984375 C-13.81973465 34.28232162 -13.82306305 33.4747995 -13.82649231 32.64280701 C-13.83155263 30.93562387 -13.83390091 29.22843086 -13.83374023 27.52124023 C-13.83592632 24.91178065 -13.85409012 22.30274415 -13.87304688 19.69335938 C-13.87598107 18.03385561 -13.87796569 16.37434984 -13.87890625 14.71484375 C-13.88609177 13.93557022 -13.89327728 13.15629669 -13.90068054 12.35340881 C-13.8712809 5.3701997 -13.8712809 5.3701997 -11.6484375 2.3359375 C-7.77236387 -0.24811159 -4.49872016 0.01218209 0 0 Z M3.3515625 17.3359375 C3.3515625 22.2859375 3.3515625 27.2359375 3.3515625 32.3359375 C8.3015625 32.3359375 13.2515625 32.3359375 18.3515625 32.3359375 C18.3515625 27.3859375 18.3515625 22.4359375 18.3515625 17.3359375 C13.4015625 17.3359375 8.4515625 17.3359375 3.3515625 17.3359375 Z " fill="#FFC763" transform="translate(218.6484375,175.6640625)"/>
<path d="M0 0 C0.82688828 0.00091644 1.65377655 0.00183289 2.50572205 0.0027771 C4.24809535 0.00880156 5.99045885 0.02451287 7.73266602 0.04931641 C10.39703583 0.08586469 13.0600148 0.09033524 15.72460938 0.08984375 C17.42058491 0.09967433 19.11655105 0.11133108 20.8125 0.125 C22.0048098 0.12833847 22.0048098 0.12833847 23.22120667 0.13174438 C30.48390078 0.25624238 30.48390078 0.25624238 33.33984375 2.4609375 C36.105278 6.06757265 35.645747 10.42536747 35.640625 14.76953125 C35.64491013 15.57326675 35.64919525 16.37700226 35.65361023 17.20509338 C35.65934367 18.90210022 35.65986105 20.59913162 35.65551758 22.29614258 C35.65235891 24.88600794 35.67582344 27.47472901 35.70117188 30.06445312 C35.70344518 31.7161444 35.70414822 33.36783873 35.703125 35.01953125 C35.71233475 35.79050644 35.72154449 36.56148163 35.73103333 37.3558197 C35.6921576 41.89623433 35.17463499 44.86075695 32.33984375 48.4609375 C28.99110833 50.13530521 25.21951513 49.66727797 21.53515625 49.69921875 C20.65963104 49.7072905 19.78410583 49.71536224 18.88204956 49.72367859 C17.02766908 49.73751971 15.17326312 49.74824174 13.31884766 49.75610352 C10.48290809 49.77332779 7.64813089 49.81721393 4.8125 49.86132812 C3.01172733 49.87145405 1.21094474 49.87997047 -0.58984375 49.88671875 C-1.43787567 49.90422684 -2.28590759 49.92173492 -3.15963745 49.93977356 C-6.75561314 49.92652506 -9.03503747 49.81910422 -12.19165039 48.01049805 C-14.41208181 44.15547472 -14.25171151 40.62123003 -14.2265625 36.2421875 C-14.23276108 35.34729614 -14.23895966 34.45240479 -14.24534607 33.53039551 C-14.25244092 31.6408802 -14.24927604 29.75130233 -14.23657227 27.86181641 C-14.22270217 24.9705106 -14.25678485 22.08243889 -14.29492188 19.19140625 C-14.29587306 17.35416587 -14.29401431 15.51692145 -14.2890625 13.6796875 C-14.30232071 12.81605591 -14.31557892 11.95242432 -14.32923889 11.06262207 C-14.26753443 7.08636581 -14.16702561 5.10715877 -11.66210938 1.91357422 C-7.64806278 -0.0288117 -4.40409978 -0.07982789 0 0 Z M3.33984375 17.4609375 C3.33984375 22.4109375 3.33984375 27.3609375 3.33984375 32.4609375 C8.28984375 32.4609375 13.23984375 32.4609375 18.33984375 32.4609375 C18.33984375 27.5109375 18.33984375 22.5609375 18.33984375 17.4609375 C13.38984375 17.4609375 8.43984375 17.4609375 3.33984375 17.4609375 Z " fill="#FFC763" transform="translate(410.66015625,267.5390625)"/>
<path d="M0 0 C0.82593155 -0.0066568 1.6518631 -0.0133136 2.50282288 -0.02017212 C4.24689512 -0.03028149 5.99100591 -0.03498967 7.73510742 -0.03466797 C10.39762283 -0.03904191 13.05848076 -0.07537959 15.72070312 -0.11328125 C17.4179631 -0.11914972 19.11523092 -0.12311891 20.8125 -0.125 C22.00177345 -0.14655655 22.00177345 -0.14655655 23.21507263 -0.16854858 C26.86506844 -0.13850261 29.14481826 0.17729761 32.47460938 1.78857422 C35.44566091 5.5764471 35.1735872 8.86304316 35.1015625 13.5546875 C35.10397446 14.44957886 35.10638641 15.34447021 35.10887146 16.26647949 C35.10789319 18.156051 35.09450418 20.04565122 35.06958008 21.93505859 C35.03527196 24.82618638 35.04892059 27.71425735 35.06835938 30.60546875 C35.06146077 32.44272134 35.05178825 34.27996604 35.0390625 36.1171875 C35.04402237 36.98081909 35.04898224 37.84445068 35.05409241 38.73425293 C34.98296042 42.36191618 34.8371985 44.70600993 32.99975586 47.88110352 C29.20482708 50.06581809 25.78089894 49.88952844 21.47265625 49.83203125 C20.59996094 49.83348648 19.72726563 49.83494171 18.828125 49.83644104 C16.98564307 49.83478332 15.14314712 49.82323615 13.30078125 49.80249023 C10.48247387 49.77353835 7.66604835 49.78188288 4.84765625 49.79492188 C3.05598045 49.78868409 1.26431059 49.78029284 -0.52734375 49.76953125 C-1.78998047 49.77393471 -1.78998047 49.77393471 -3.078125 49.77842712 C-6.57225513 49.72215594 -8.91184597 49.66574573 -12.02734375 47.99633789 C-15.3437416 44.32530571 -14.68869146 39.73838346 -14.6953125 35.08984375 C-14.6986409 34.28232162 -14.7019693 33.4747995 -14.70539856 32.64280701 C-14.71045888 30.93562387 -14.71280716 29.22843086 -14.71264648 27.52124023 C-14.71483257 24.91178065 -14.73299637 22.30274415 -14.75195312 19.69335938 C-14.75488732 18.03385561 -14.75687194 16.37434984 -14.7578125 14.71484375 C-14.76499802 13.93557022 -14.77218353 13.15629669 -14.77958679 12.35340881 C-14.74953744 5.21587593 -14.74953744 5.21587593 -12.52734375 2.3359375 C-8.88736374 -0.47400873 -4.3935971 0.01230208 0 0 Z M2.47265625 17.3359375 C2.47265625 22.2859375 2.47265625 27.2359375 2.47265625 32.3359375 C7.42265625 32.3359375 12.37265625 32.3359375 17.47265625 32.3359375 C17.47265625 27.3859375 17.47265625 22.4359375 17.47265625 17.3359375 C12.52265625 17.3359375 7.57265625 17.3359375 2.47265625 17.3359375 Z " fill="#FFC764" transform="translate(80.52734375,267.6640625)"/>
<path d="M0 0 C0.87269531 -0.00145523 1.74539063 -0.00291046 2.64453125 -0.00440979 C4.48701318 -0.00275207 6.32950913 0.0087951 8.171875 0.02954102 C10.99018238 0.0584929 13.8066079 0.05014837 16.625 0.03710938 C18.4166758 0.04334716 20.20834566 0.05173841 22 0.0625 C23.26263672 0.05809654 23.26263672 0.05809654 24.55078125 0.05360413 C28.04491138 0.10987531 30.38450222 0.16628552 33.5 1.83569336 C36.81639785 5.50672554 36.16134771 10.09364779 36.16796875 14.7421875 C36.17296135 15.95347069 36.17296135 15.95347069 36.17805481 17.18922424 C36.18311513 18.89640738 36.18546341 20.60360039 36.18530273 22.31079102 C36.18748882 24.9202506 36.20565262 27.5292871 36.22460938 30.13867188 C36.22754357 31.79817564 36.22952819 33.45768141 36.23046875 35.1171875 C36.23765427 35.89646103 36.24483978 36.67573456 36.25224304 37.47862244 C36.22219369 44.61615532 36.22219369 44.61615532 34 47.49609375 C30.36001999 50.30603998 25.86625335 49.81972917 21.47265625 49.83203125 C20.23375893 49.84201645 20.23375893 49.84201645 18.96983337 49.85220337 C17.22576113 49.86231274 15.48165034 49.86702092 13.73754883 49.86669922 C11.07503342 49.87107316 8.41417549 49.90741084 5.75195312 49.9453125 C4.05469315 49.95118097 2.35742533 49.95515016 0.66015625 49.95703125 C-0.13269272 49.97140228 -0.92554169 49.98577332 -1.74241638 50.00057983 C-5.39241219 49.97053386 -7.67216201 49.65473364 -11.00195312 48.04345703 C-13.97300466 44.25558415 -13.70093095 40.96898809 -13.62890625 36.27734375 C-13.63131821 35.38245239 -13.63373016 34.48756104 -13.63621521 33.56555176 C-13.63523694 31.67598025 -13.62184793 29.78638003 -13.59692383 27.89697266 C-13.56261571 25.00584487 -13.57626434 22.1177739 -13.59570312 19.2265625 C-13.58880452 17.38930991 -13.579132 15.55206521 -13.56640625 13.71484375 C-13.57384605 12.41939636 -13.57384605 12.41939636 -13.58143616 11.09777832 C-13.51030417 7.47011507 -13.36454225 5.12602132 -11.52709961 1.95092773 C-7.73217083 -0.23378684 -4.30824269 -0.05749719 0 0 Z M4 17.49609375 C4 22.44609375 4 27.39609375 4 32.49609375 C8.95 32.49609375 13.9 32.49609375 19 32.49609375 C19 27.54609375 19 22.59609375 19 17.49609375 C14.05 17.49609375 9.1 17.49609375 4 17.49609375 Z " fill="#FFC763" transform="translate(410,215.50390625)"/>
<path d="M0 0 C1.31328781 -0.01210762 1.31328781 -0.01210762 2.65310669 -0.02445984 C4.50748717 -0.03830096 6.36189313 -0.04902299 8.21630859 -0.05688477 C11.05224816 -0.07410904 13.88702536 -0.11799518 16.72265625 -0.16210938 C18.52342892 -0.1722353 20.32421151 -0.18075172 22.125 -0.1875 C23.39704788 -0.21376213 23.39704788 -0.21376213 24.6947937 -0.24055481 C28.29076939 -0.22730631 30.57019372 -0.11988547 33.72680664 1.6887207 C35.94723806 5.54374403 35.78686776 9.07798872 35.76171875 13.45703125 C35.77101662 14.79936829 35.77101662 14.79936829 35.78050232 16.16882324 C35.78759717 18.05833855 35.78443229 19.94791642 35.77172852 21.83740234 C35.75785842 24.72870815 35.7919411 27.61677986 35.83007812 30.5078125 C35.83102931 32.34505288 35.82917056 34.1822973 35.82421875 36.01953125 C35.83747696 36.88316284 35.85073517 37.74679443 35.86439514 38.63659668 C35.80269068 42.61285294 35.70218186 44.59205998 33.19726562 47.78564453 C29.18321903 49.72803045 25.93925603 49.77904664 21.53515625 49.69921875 C20.70826797 49.69830231 19.8813797 49.69738586 19.0294342 49.69644165 C17.2870609 49.69041719 15.5446974 49.67470588 13.80249023 49.64990234 C11.13812042 49.61335406 8.47514145 49.60888351 5.81054688 49.609375 C4.11457134 49.59954442 2.4186052 49.58788767 0.72265625 49.57421875 C-0.46965355 49.57088028 -0.46965355 49.57088028 -1.68605042 49.56747437 C-8.94874453 49.44297637 -8.94874453 49.44297637 -11.8046875 47.23828125 C-14.57012175 43.6316461 -14.11059075 39.27385128 -14.10546875 34.9296875 C-14.10975388 34.125952 -14.114039 33.32221649 -14.11845398 32.49412537 C-14.12418742 30.79711853 -14.1247048 29.10008713 -14.12036133 27.40307617 C-14.11720266 24.81321081 -14.14066719 22.22448974 -14.16601562 19.63476562 C-14.16828893 17.98307435 -14.16899197 16.33138002 -14.16796875 14.6796875 C-14.1771785 13.90871231 -14.18638824 13.13773712 -14.19587708 12.34339905 C-14.15700135 7.80298442 -13.63947874 4.8384618 -10.8046875 1.23828125 C-7.45595208 -0.43608646 -3.68435888 0.03194078 0 0 Z M3.1953125 17.23828125 C3.1953125 22.18828125 3.1953125 27.13828125 3.1953125 32.23828125 C8.1453125 32.23828125 13.0953125 32.23828125 18.1953125 32.23828125 C18.1953125 27.28828125 18.1953125 22.33828125 18.1953125 17.23828125 C13.2453125 17.23828125 8.2953125 17.23828125 3.1953125 17.23828125 Z " fill="#FFC764" transform="translate(79.8046875,215.76171875)"/>
</svg>
