<?xml version="1.0" encoding="UTF-8"?>
<svg version="1.1" xmlns="http://www.w3.org/2000/svg" width="512" height="512">
<path d="M0 0 C0.67851517 -0.00540298 1.35703033 -0.01080597 2.05610657 -0.01637268 C4.29297864 -0.02885346 6.52856202 -0.01237696 8.76538086 0.00561523 C10.32189501 0.00546025 11.87840956 0.00397131 13.43492126 0.00120544 C16.69409279 -0.00017818 19.95282404 0.01237426 23.21191406 0.03515625 C27.39082774 0.06356484 31.56901125 0.06079691 35.74797916 0.04806614 C38.96075181 0.0411143 42.17335543 0.04889208 45.38610649 0.06132317 C46.92709137 0.06584086 48.46809436 0.06617169 50.00908089 0.06225777 C52.16138096 0.05934967 54.31267125 0.07583044 56.46484375 0.09765625 C57.68965958 0.10305923 58.9144754 0.10846222 60.17640686 0.11402893 C63.16772461 0.50170898 63.16772461 0.50170898 65.05149841 1.80821228 C66.59970031 4.15708639 66.74708007 6.34916169 66.67553711 9.11889648 C65.81901256 13.13797321 63.59397775 16.37085945 61.38256836 19.79077148 C59.84434352 23.22333753 60.13922463 24.92100535 61.16772461 28.50170898 C62.31951025 30.78729839 62.31951025 30.78729839 63.73022461 32.87670898 C66.37769225 37.41960998 66.88681372 40.28831297 66.16772461 45.50170898 C64.6243437 47.676473 63.53107188 48.32003535 61.16772461 49.50170898 C59.34977921 49.59263048 57.52846516 49.61924366 55.70825195 49.61523438 C54.56722015 49.61515884 53.42618835 49.61508331 52.25057983 49.61500549 C51.01409698 49.60984421 49.77761414 49.60468292 48.50366211 49.59936523 C47.24131744 49.59795029 45.97897278 49.59653534 44.67837524 49.59507751 C41.32134162 49.59041976 37.96437561 49.58143306 34.60736084 49.57037354 C31.18217565 49.56014668 27.75698328 49.5555224 24.33178711 49.55053711 C17.61039476 49.54034082 10.88912113 49.52076776 4.16772461 49.50170898 C4.16772461 62.04170898 4.16772461 74.58170898 4.16772461 87.50170898 C6.14772461 88.16170898 8.12772461 88.82170898 10.16772461 89.50170898 C12.17944336 90.98217773 12.17944336 90.98217773 13.85522461 92.68920898 C14.4159668 93.23963867 14.97670898 93.79006836 15.55444336 94.35717773 C19.56444911 99.68766965 20.61443786 104.77533152 20.57177734 111.32958984 C20.58207222 112.45301537 20.58207222 112.45301537 20.59257507 113.59913635 C20.61075627 116.05513908 20.60701821 118.51049768 20.60131836 120.96655273 C20.60588434 122.6861644 20.61119116 124.40577425 20.61720276 126.12538147 C20.62611681 129.72217237 20.62373026 133.31874103 20.61376953 136.91552734 C20.60228202 141.50981874 20.62249638 146.10334126 20.65168667 150.6975317 C20.67009054 154.24675821 20.6697479 157.79580188 20.66404915 161.34506416 C20.66389645 163.03823487 20.6698984 164.73141838 20.68234062 166.42454338 C20.7933985 184.01343857 20.7933985 184.01343857 14.49194336 191.48999023 C13.95182617 191.92698242 13.41170898 192.36397461 12.85522461 192.81420898 C12.3228418 193.2640918 11.79045898 193.71397461 11.24194336 194.17749023 C5.3450599 197.94216725 0.31290951 198.95874454 -6.54711914 199.12670898 C-7.36169083 199.15974121 -8.17626251 199.19277344 -9.01551819 199.22680664 C-11.59998119 199.33126002 -14.18454252 199.41863378 -16.76977539 199.50170898 C-20.17551096 199.61137603 -23.57992275 199.7388049 -26.98461914 199.87670898 C-28.13655006 199.90498779 -28.13655006 199.90498779 -29.31175232 199.93383789 C-35.31897861 200.17924338 -41.02748206 201.26545484 -45.85571289 205.11499023 C-46.30172852 205.67573242 -46.74774414 206.23647461 -47.20727539 206.81420898 C-47.66875977 207.3672168 -48.13024414 207.92022461 -48.60571289 208.48999023 C-52.3317154 214.601109 -52.16940822 220.87447639 -52.24633789 227.80639648 C-52.26570404 228.885513 -52.28507019 229.96462952 -52.30502319 231.07644653 C-52.36461481 234.50978793 -52.411123 237.94316323 -52.45727539 241.37670898 C-52.49547392 243.71005662 -52.53452674 246.04339044 -52.57446289 248.37670898 C-52.67029956 254.0849193 -52.75540651 259.79321342 -52.83227539 265.50170898 C-52.08115479 265.79271484 -51.33003418 266.0837207 -50.55615234 266.38354492 C-48.35200028 267.28835952 -46.32759479 268.2388646 -44.25024414 269.39233398 C-43.57759521 269.76503418 -42.90494629 270.13773437 -42.21191406 270.52172852 C-41.12680542 271.13056885 -41.12680542 271.13056885 -40.01977539 271.75170898 C-39.24931885 272.18209473 -38.4788623 272.61248047 -37.68505859 273.0559082 C-24.30094615 280.57021234 -11.02012201 288.29338836 2.10522461 296.25170898 C3.57282227 297.14116211 3.57282227 297.14116211 5.07006836 298.04858398 C7.16772461 299.50170898 7.16772461 299.50170898 8.16772461 301.50170898 C8.27967011 303.51231757 8.32703475 305.52663832 8.34472656 307.5402832 C8.3575618 308.8085495 8.37039703 310.0768158 8.38362122 311.3835144 C8.39178795 312.77447114 8.39923181 314.16543227 8.40600586 315.55639648 C8.41008139 316.25565372 8.41415691 316.95491096 8.41835594 317.67535782 C8.43921382 321.37577265 8.45351724 325.07615042 8.46289062 328.77661133 C8.47396042 332.59904199 8.50836671 336.42089135 8.54806232 340.24311638 C8.57420246 343.1822315 8.58258003 346.12120748 8.5861721 349.06042862 C8.59104414 350.46945247 8.60267587 351.87846985 8.6212101 353.28738022 C8.64554337 355.25955959 8.64222246 357.23202142 8.63769531 359.2043457 C8.64649467 360.88740311 8.64649467 360.88740311 8.6554718 362.60446167 C8.05362667 366.17945755 7.03977541 367.34827639 4.16772461 369.50170898 C0.66772461 370.06420898 0.66772461 370.06420898 -2.83227539 369.50170898 C-5.63316545 367.2820005 -6.71002713 365.43262063 -7.17614746 361.88314819 C-7.29675245 358.50263572 -7.28113099 355.14561738 -7.22290039 351.76342773 C-7.2172406 350.52752396 -7.21158081 349.29162018 -7.20574951 348.01826477 C-7.18717824 344.74479301 -7.15128894 341.4721182 -7.10693359 338.19891357 C-7.06589242 334.8539565 -7.04806127 331.50896462 -7.02758789 328.16381836 C-6.98350971 321.60947129 -6.91658773 315.0556553 -6.83227539 308.50170898 C-7.60485184 308.19988205 -8.37742828 307.89805511 -9.17341614 307.58708191 C-11.97590412 306.4430783 -14.4784238 305.07497239 -17.09399414 303.55249023 C-18.11871826 302.95855469 -19.14344238 302.36461914 -20.19921875 301.75268555 C-21.29500244 301.11298828 -22.39078613 300.47329102 -23.51977539 299.81420898 C-25.25214738 298.80725931 -26.98452412 297.80031772 -28.71717834 296.79385376 C-29.91659139 296.09698957 -31.11575613 295.39969786 -32.31468201 294.70199585 C-36.60562378 292.20677501 -40.91079711 289.73748898 -45.22290039 287.27905273 C-46.41609043 286.59713608 -47.60920677 285.91509046 -48.80224609 285.23291016 C-51.08006986 283.93145695 -53.35980125 282.63333576 -55.64160156 281.33886719 C-56.67260986 280.74807373 -57.70361816 280.15728027 -58.76586914 279.54858398 C-59.67393311 279.03134766 -60.58199707 278.51411133 -61.51757812 277.98120117 C-64.95891416 275.78159181 -66.5285737 274.41281406 -67.83227539 270.50170898 C-67.92952447 268.85738601 -67.97043591 267.20943677 -67.97753906 265.56225586 C-67.98710884 264.05423401 -67.98710884 264.05423401 -67.99687195 262.51574707 C-67.99854118 260.88457947 -67.99854118 260.88457947 -68.00024414 259.22045898 C-68.00357254 258.0965979 -68.00690094 256.97273682 -68.0103302 255.81481934 C-68.01539852 253.43083099 -68.01773856 251.04683553 -68.01757812 248.6628418 C-68.01975007 245.04390448 -68.03786661 241.42527925 -68.05688477 237.80639648 C-68.05982174 235.48608502 -68.0618045 233.16577212 -68.06274414 230.84545898 C-68.06992966 229.77420776 -68.07711517 228.70295654 -68.08451843 227.59924316 C-68.04858228 215.56186613 -66.63005216 204.26748459 -58.37915039 194.94702148 C-48.00047895 185.24977796 -36.52657728 184.4533296 -23.01977539 184.00170898 C-9.91243132 184.30235443 -9.91243132 184.30235443 2.23022461 180.68920898 C5.59470826 176.89059841 5.2989487 173.11586028 5.32885742 168.17602539 C5.34326874 166.25350449 5.34326874 166.25350449 5.35797119 164.29214478 C5.36281925 162.8958555 5.36709806 161.49956414 5.37084961 160.10327148 C5.37660572 158.66604614 5.38236339 157.22882079 5.38812256 155.79159546 C5.39861476 152.78057499 5.4044692 149.76958109 5.40795898 146.75854492 C5.41344286 142.90957216 5.43747579 139.06095328 5.46593094 135.21209145 C5.4845983 132.2437336 5.48976507 129.27546037 5.49129486 126.3070488 C5.49431221 124.88853392 5.50230966 123.47002021 5.51548004 122.05156326 C5.53262598 120.06317454 5.52880317 118.07463889 5.52416992 116.08618164 C5.52781555 114.95685211 5.53146118 113.82752258 5.53521729 112.66397095 C5.04054922 108.40736912 3.78238698 104.78230328 0.35522461 102.06420898 C-2.73861435 101.26865039 -4.77322243 101.6094852 -7.83227539 102.50170898 C-10.17837336 103.85970794 -10.17837336 103.85970794 -11.83227539 106.50170898 C-12.43471262 109.89908025 -12.38936598 113.26571629 -12.37133789 116.70874023 C-12.3831308 117.7074968 -12.39492371 118.70625336 -12.40707397 119.73527527 C-12.44237308 122.92841104 -12.4515039 126.12089402 -12.45727539 129.31420898 C-12.47365347 132.49661516 -12.49580232 135.67873037 -12.52890015 138.86100769 C-12.54841842 140.83986447 -12.55787722 142.81885382 -12.55581665 144.79780579 C-12.60733816 151.51674027 -12.74913489 157.10609741 -17.33227539 162.37670898 C-20.5569706 165.11769992 -22.02349599 165.6263919 -26.14355469 165.63973999 C-27.04899521 165.64519333 -27.95443573 165.65064667 -28.88731384 165.65626526 C-30.38180809 165.65782875 -30.38180809 165.65782875 -31.90649414 165.65942383 C-33.47754662 165.66704491 -33.47754662 165.66704491 -35.08033752 165.67481995 C-37.36169593 165.685542 -39.64306497 165.69415494 -41.92443848 165.70093918 C-45.53993239 165.71271212 -49.15530599 165.73216355 -52.77075195 165.75405884 C-63.05310025 165.81571025 -73.33543825 165.86962801 -83.61791992 165.90307617 C-89.90324027 165.92407423 -96.18834466 165.95942598 -102.47354126 166.00383377 C-104.86558481 166.01796087 -107.2576666 166.02670874 -109.64974976 166.02988815 C-113.00769461 166.03482129 -116.36507175 166.05804424 -119.72290039 166.08520508 C-121.19310387 166.08069588 -121.19310387 166.08069588 -122.69300842 166.07609558 C-135.00549286 166.22327485 -143.02696343 169.92913655 -151.83227539 178.50170898 C-154.20520779 181.17856376 -156.44116308 183.91860824 -158.64477539 186.73608398 C-161.50988776 190.35840462 -164.59577317 193.74708091 -167.71118164 197.15405273 C-170.16924461 199.87467124 -172.51760138 202.67723025 -174.83618164 205.51733398 C-181.58844604 212.22995691 -188.74360612 215.30734302 -197.70727539 218.31420898 C-199.9548782 219.09095407 -202.20228449 219.86826814 -204.44946289 220.64624023 C-205.92842041 221.14667847 -205.92842041 221.14667847 -207.43725586 221.65722656 C-209.80517239 222.43635067 -209.80517239 222.43635067 -211.83227539 223.50170898 C-210.87321289 225.20327148 -210.87321289 225.20327148 -209.89477539 226.93920898 C-207.46333688 231.2530515 -207.22421119 235.65518396 -206.83227539 240.50170898 C-201.98955374 239.04161308 -197.15189916 237.56607881 -192.31811523 236.07666016 C-190.67648431 235.57314284 -189.03359418 235.07371064 -187.3894043 234.57861328 C-185.01268218 233.8621333 -182.6410267 233.13059633 -180.26977539 232.39624023 C-179.5454834 232.18143509 -178.82119141 231.96662994 -178.07495117 231.74531555 C-169.94058467 229.19098172 -163.87175187 225.05926569 -158.26977539 218.68920898 C-157.57271484 217.90525757 -157.57271484 217.90525757 -156.86157227 217.10546875 C-155.50857913 215.57959838 -154.1700954 214.04089982 -152.83227539 212.50170898 C-152.12200195 211.69217773 -151.41172852 210.88264648 -150.67993164 210.04858398 C-149.53782052 208.74469391 -148.40015854 207.43687315 -147.26977539 206.12280273 C-146.79540039 205.5878418 -146.32102539 205.05288086 -145.83227539 204.50170898 C-145.12071289 203.66446289 -145.12071289 203.66446289 -144.39477539 202.81030273 C-142.4319963 201.16647525 -141.36547946 201.09792257 -138.83227539 201.12670898 C-138.15165039 201.11897461 -137.47102539 201.11124023 -136.76977539 201.10327148 C-134.12197552 201.64777872 -133.42318985 202.29660516 -131.83227539 204.50170898 C-131.53548572 207.08665944 -131.42314757 209.43159401 -131.44459534 212.01745605 C-131.43651703 213.17581301 -131.43651703 213.17581301 -131.42827553 214.35757113 C-131.41393217 216.95330375 -131.42111518 219.54853099 -131.42822266 222.14428711 C-131.42252245 224.00191154 -131.41555956 225.85953246 -131.40742493 227.71714783 C-131.38944078 232.76871366 -131.39067163 237.8201063 -131.39636731 242.87169456 C-131.39945125 247.08420652 -131.39337567 251.29668482 -131.38732857 255.50919199 C-131.373268 265.44373769 -131.37485767 275.37819742 -131.38623047 285.31274414 C-131.39771667 295.57330211 -131.38363103 305.83359886 -131.35683399 316.09412241 C-131.33470886 324.89417571 -131.32803231 333.69414682 -131.33391041 342.49422598 C-131.33728842 347.75427599 -131.33480897 353.01415847 -131.31765938 358.27418518 C-131.30224274 363.21872256 -131.30608678 368.16287153 -131.32496452 373.10739326 C-131.32866494 374.92509955 -131.32549993 376.74283427 -131.31507874 378.56051445 C-131.3019659 381.03611751 -131.31332846 383.51041617 -131.33106995 385.98596191 C-131.32146494 386.71056626 -131.31185993 387.4351706 -131.30196387 388.18173265 C-131.34956553 391.39494304 -131.42039746 393.06694077 -133.67610073 395.44800568 C-136.61021216 396.88187974 -138.60440199 396.90519316 -141.83227539 396.50170898 C-143.98733902 395.38994884 -143.98733902 395.38994884 -145.83227539 393.50170898 C-146.34008408 390.57131672 -146.34008408 390.57131672 -146.35125732 386.91487122 C-146.3625092 385.90647242 -146.3625092 385.90647242 -146.37398839 384.87770194 C-146.39432255 382.62030489 -146.38615243 380.36390681 -146.37817383 378.10644531 C-146.3869058 376.49024966 -146.39739027 374.87406266 -146.40950012 373.25788879 C-146.43742706 368.86557612 -146.44076334 364.47354459 -146.43978024 360.08115602 C-146.44290361 355.4926534 -146.46850976 350.90427849 -146.49176025 346.31584167 C-146.53236802 337.62486493 -146.55267216 328.9339633 -146.56573415 320.24290627 C-146.58158805 310.34936613 -146.61999684 300.45595413 -146.66032743 290.5624882 C-146.74279171 270.20893735 -146.79684299 249.85539245 -146.83227539 229.50170898 C-147.55733182 230.26148513 -148.28238825 231.02126127 -149.02941608 231.80406094 C-150.00604086 232.80877476 -150.98310062 233.81306588 -151.96052551 234.81700134 C-152.67274159 235.56683045 -152.67274159 235.56683045 -153.39934587 236.33180761 C-158.17876227 241.2078336 -163.35354885 243.44666324 -169.83227539 245.50170898 C-171.26623154 245.98074173 -171.26623154 245.98074173 -172.72915649 246.4694519 C-175.69547278 247.43071034 -178.67478526 248.3302497 -181.66430664 249.21655273 C-183.93281011 249.90303319 -186.20119753 250.58989726 -188.46948242 251.27709961 C-190.22787445 251.80654175 -190.22787445 251.80654175 -192.02178955 252.34667969 C-212.32467457 258.46911507 -232.42918172 264.93230798 -252.31591797 272.29833984 C-253.06854416 272.57657089 -253.82117035 272.85480194 -254.59660339 273.14146423 C-255.97405167 273.65262137 -257.35002811 274.16777317 -258.72407532 274.68800354 C-264.36889883 276.79653754 -269.18577552 277.61639518 -275.19946289 277.67749023 C-276.41504883 277.70133789 -277.63063477 277.72518555 -278.88305664 277.74975586 C-281.42455447 277.79259009 -283.96627338 277.82391349 -286.50805664 277.84350586 C-293.45077089 278.00146179 -298.23831547 278.22909462 -303.83227539 282.50170898 C-309.40792104 288.37874088 -310.13790827 293.75576035 -310.24633789 301.52124023 C-310.26570404 302.37981125 -310.28507019 303.23838226 -310.30502319 304.12297058 C-310.36459095 306.85328373 -310.41111273 309.58363956 -310.45727539 312.31420898 C-310.49547618 314.17034671 -310.53452914 316.02646711 -310.57446289 317.88256836 C-310.67027366 322.42214042 -310.7543886 326.96179545 -310.83227539 331.50170898 C-310.08115479 331.79271484 -309.33003418 332.0837207 -308.55615234 332.38354492 C-306.35200028 333.28835952 -304.32759479 334.2388646 -302.25024414 335.39233398 C-301.57735352 335.76519531 -300.90446289 336.13805664 -300.21118164 336.5222168 C-299.48801758 336.92794922 -298.76485352 337.33368164 -298.01977539 337.75170898 C-297.25149414 338.18064453 -296.48321289 338.60958008 -295.69165039 339.05151367 C-284.98963973 345.05765788 -274.40156226 351.26568108 -263.83227539 357.50170898 C-262.88481445 358.05793945 -261.93735352 358.61416992 -260.96118164 359.18725586 C-260.06270508 359.71899414 -259.16422852 360.25073242 -258.23852539 360.79858398 C-257.43737305 361.27134766 -256.6362207 361.74411133 -255.81079102 362.23120117 C-253.55522676 363.67961632 -252.08820784 364.74124034 -251.21734619 367.32888794 C-250.80060759 369.68039938 -250.69089152 371.8785349 -250.67114258 374.2668457 C-250.66153503 375.20817352 -250.65192749 376.14950134 -250.64202881 377.11935425 C-250.63777893 378.12982819 -250.63352905 379.14030212 -250.62915039 380.18139648 C-250.62345032 381.22691681 -250.61775024 382.27243713 -250.61187744 383.34963989 C-250.60243743 385.56031281 -250.59589743 387.77099974 -250.59204102 389.98168945 C-250.58233179 393.35710249 -250.55129696 396.73190745 -250.51977539 400.10717773 C-250.51324532 402.25691371 -250.50799486 404.40665403 -250.50415039 406.55639648 C-250.48563019 408.0660347 -250.48563019 408.0660347 -250.46673584 409.60617065 C-250.48360148 414.93169394 -250.63965921 418.99497436 -253.83227539 423.50170898 C-257.20727539 424.62670898 -257.20727539 424.62670898 -260.83227539 424.50170898 C-263.56738281 423.11645508 -263.56738281 423.11645508 -265.83227539 420.50170898 C-266.3343604 417.15237797 -265.98242732 413.90266198 -265.69555664 410.54077148 C-265.58935975 408.52826059 -265.49191612 406.51527244 -265.40234375 404.50195312 C-265.35496063 403.45782257 -265.30757751 402.41369202 -265.25875854 401.33792114 C-264.29006728 385.72453719 -264.29006728 385.72453719 -268.79418945 371.20825195 C-274.08775539 366.29191683 -280.53330329 364.07241125 -287.29663086 361.81860352 C-293.56531053 359.48375625 -299.1140122 355.93447038 -304.83227539 352.50170898 C-306.95693021 351.2927688 -309.08191254 350.08440397 -311.20727539 348.87670898 C-323.83984398 341.4865718 -323.83984398 341.4865718 -325.83227539 337.50170898 C-325.93157651 336.09935695 -325.97055994 334.69246718 -325.97753906 333.28662109 C-325.98391891 332.41488754 -325.99029877 331.54315399 -325.99687195 330.64500427 C-325.99798477 329.69924026 -325.9990976 328.75347626 -326.00024414 327.77905273 C-326.00523674 326.31708214 -326.00523674 326.31708214 -326.0103302 324.82557678 C-326.01540159 322.75676954 -326.01773846 320.68795408 -326.01757812 318.61914062 C-326.01974973 315.47634033 -326.03786183 312.33389955 -326.05688477 309.19116211 C-326.05982174 307.17879351 -326.0618045 305.16642325 -326.06274414 303.15405273 C-326.06992966 302.22245834 -326.07711517 301.29086395 -326.08451843 300.33103943 C-326.0462068 289.20103994 -323.84538717 279.63180737 -315.82446289 271.45483398 C-306.40996889 263.55880676 -296.88905773 262.12150189 -284.95727539 262.37670898 C-269.98024635 262.29230871 -258.03257976 258.32690046 -244.23950195 252.81616211 C-241.83307922 251.88780298 -239.45904609 251.03114482 -237.01098633 250.23413086 C-235.76349609 249.82227539 -234.51600586 249.41041992 -233.23071289 248.98608398 C-232.10068848 248.62740234 -230.97066406 248.2687207 -229.80639648 247.89916992 C-226.34594469 246.27319503 -224.83889395 244.73415111 -222.83227539 241.50170898 C-222.89256383 238.00497936 -223.13450362 235.60345388 -225.01977539 232.62670898 C-228.11989704 230.70249555 -231.20154565 230.16001688 -234.80227661 230.91448975 C-237.08141069 231.6145252 -239.31525579 232.3951009 -241.55493164 233.21264648 C-242.37803329 233.50023834 -243.20113495 233.7878302 -244.04917908 234.08413696 C-246.66911924 235.00214181 -249.28197576 235.93859569 -251.89477539 236.87670898 C-254.51229474 237.80402293 -257.13113185 238.72743872 -259.75108337 239.64785767 C-261.37775458 240.22066416 -263.00281235 240.7980792 -264.62599182 241.38070679 C-265.36703659 241.64412872 -266.10808136 241.90755066 -266.87158203 242.17895508 C-267.51744766 242.41069427 -268.16331329 242.64243347 -268.82875061 242.88119507 C-272.82292565 244.11823552 -276.61364906 244.6267728 -280.7878418 244.63301086 C-281.76038406 244.63701904 -282.73292633 244.64102722 -283.73493958 244.64515686 C-284.79057602 244.64462814 -285.84621246 244.64409943 -286.93383789 244.64355469 C-288.05485397 244.64702911 -289.17587006 244.65050354 -290.33085632 244.65408325 C-292.76439926 244.66143095 -295.19794886 244.66678158 -297.63150024 244.67037392 C-301.49169301 244.67755425 -305.35175975 244.6932344 -309.21191406 244.7117157 C-320.18739975 244.76409973 -331.16281902 244.81254986 -342.13842773 244.82763672 C-348.85519931 244.836964 -355.57160908 244.86718126 -362.28826904 244.90895653 C-364.83971759 244.92121835 -367.39121096 244.92639666 -369.94268799 244.9241581 C-392.23491186 244.23418779 -392.23491186 244.23418779 -411.83227539 253.50170898 C-415.37584855 258.01374622 -415.26573703 262.00349474 -415.23632812 267.49536133 C-415.24319138 268.39192947 -415.25005463 269.28849762 -415.25712585 270.2122345 C-415.27540063 273.17086708 -415.27155491 276.12896966 -415.26586914 279.08764648 C-415.27043105 281.14881564 -415.27573665 283.20998326 -415.28175354 285.27114868 C-415.29068631 289.59025248 -415.28826007 293.9091714 -415.27832031 298.22827148 C-415.26683839 303.75534464 -415.28702963 309.28177818 -415.31623745 314.80876732 C-415.33461101 319.06566402 -415.33430452 323.32240784 -415.32859993 327.57933426 C-415.32844682 329.61663331 -415.33448299 331.6539428 -415.3468914 333.69120407 C-415.36181889 336.54429608 -415.35111079 339.39621162 -415.33398438 342.24926758 C-415.34365234 343.08586411 -415.35332031 343.92246063 -415.36328125 344.78440857 C-415.29176653 350.4923672 -414.10083334 353.79642047 -410.83227539 358.50170898 C-408.55756128 360.55978366 -406.56503719 362.13532809 -403.83227539 363.50170898 C-403.82640915 362.35800842 -403.82054291 361.21430786 -403.8144989 360.03594971 C-403.75731991 349.26483876 -403.68458356 338.49393064 -403.59656048 327.72302628 C-403.55180684 322.18540142 -403.51256168 316.64785098 -403.48583984 311.11010742 C-403.45985677 305.76723844 -403.41948972 300.42465509 -403.36908913 295.08196259 C-403.35238659 293.0422292 -403.34089346 291.00244637 -403.33466148 288.96265411 C-403.32505727 286.10850481 -403.29704207 283.2550919 -403.26464844 280.40112305 C-403.26608353 279.55523621 -403.26751862 278.70934937 -403.26899719 277.83782959 C-403.21492072 274.47544593 -403.09436105 271.97727898 -401.45368958 269.00018311 C-399.25382091 266.9671145 -397.812952 266.64364597 -394.83227539 266.50170898 C-391.01964192 267.56569972 -390.08216532 268.12687408 -387.83227539 271.50170898 C-387.57500648 274.56148434 -387.57500648 274.56148434 -387.56484985 278.40330505 C-387.56031874 279.10950062 -387.55578763 279.81569619 -387.55111921 280.54329163 C-387.53843387 282.91548313 -387.5400982 285.28744625 -387.54174805 287.65966797 C-387.53576541 289.35803524 -387.52896048 291.05639979 -387.52139282 292.75476074 C-387.50369973 297.37248749 -387.49903608 301.99014016 -387.49776125 306.60789752 C-387.49586401 310.4599378 -387.48850859 314.31196075 -387.48141706 318.16399437 C-387.46512332 327.24996349 -387.46024905 336.33589296 -387.46166992 345.421875 C-387.46287199 354.80195283 -387.44175954 364.1818008 -387.4101826 373.56182045 C-387.38405409 381.60944626 -387.37330117 389.65699684 -387.37458074 397.70466477 C-387.37509134 402.51372194 -387.36935436 407.32257487 -387.34822464 412.13158989 C-387.32889955 416.65342496 -387.32867827 421.17485972 -387.3432579 425.69670868 C-387.34535417 427.35758357 -387.34059662 429.01848314 -387.32853699 430.67931557 C-387.31315323 432.94439458 -387.32234524 435.20808133 -387.33779907 437.47312927 C-387.33670954 438.74130713 -387.33562 440.009485 -387.33449745 441.31609249 C-387.83227539 444.50170898 -387.83227539 444.50170898 -389.64443016 446.90583897 C-391.83227539 448.50170898 -391.83227539 448.50170898 -395.33227539 449.06420898 C-398.83227539 448.50170898 -398.83227539 448.50170898 -401.01690674 446.36347961 C-403.1566186 442.99041015 -403.34637408 441.1178972 -403.37817383 437.15087891 C-403.39789246 435.88994919 -403.41761108 434.62901947 -403.43792725 433.32987976 C-403.43959014 431.96397953 -403.44082115 430.59807872 -403.44165039 429.23217773 C-403.45663936 427.82682902 -403.47336802 426.42149787 -403.49176025 425.01618958 C-403.53536663 421.32877778 -403.55541759 417.64160358 -403.57049561 413.95397949 C-403.59009123 410.18654368 -403.63205835 406.41936355 -403.67211914 402.65209961 C-403.74734825 395.26870492 -403.79768344 387.88541778 -403.83227539 380.50170898 C-404.84112793 380.11644043 -404.84112793 380.11644043 -405.87036133 379.72338867 C-406.76013672 379.37695312 -407.64991211 379.03051758 -408.56665039 378.67358398 C-409.44546875 378.33423828 -410.32428711 377.99489258 -411.22973633 377.64526367 C-418.81261045 374.31335163 -425.40123823 368.37259022 -428.60419655 360.63754272 C-430.67223657 354.90272399 -431.26375346 349.87863748 -431.22045898 343.81030273 C-431.22571594 342.88710236 -431.2309729 341.96390198 -431.23638916 341.01272583 C-431.2494969 337.98804354 -431.24088386 334.9638958 -431.23071289 331.93920898 C-431.23273627 329.82128804 -431.23564991 327.70336779 -431.2394104 325.58544922 C-431.24382127 321.1574029 -431.23744254 316.72953874 -431.22338867 312.30151367 C-431.20629769 306.64256792 -431.2161455 300.98404913 -431.23410606 295.32511902 C-431.24497731 290.95492368 -431.24148223 286.58482858 -431.23372269 282.21463013 C-431.23172992 280.12875314 -431.23414731 278.04286688 -431.24116135 275.95700073 C-431.2488309 273.03546242 -431.23709474 270.11460333 -431.22045898 267.19311523 C-431.22653168 266.34194122 -431.23260437 265.49076721 -431.23886108 264.61380005 C-431.13616927 254.81590079 -428.26945869 247.86557577 -421.47680664 240.79858398 C-410.47635936 231.24428117 -395.89918896 229.2367369 -381.83227539 228.50170898 C-382.20739258 227.99124023 -382.58250977 227.48077148 -382.96899414 226.95483398 C-393.32799413 212.23826976 -396.06354306 196.50743642 -393.25415039 178.87280273 C-390.6021766 169.62705776 -384.55102209 162.43871444 -376.33227539 157.50170898 C-365.4698871 152.19245875 -353.2406503 152.16280112 -341.72290039 155.40405273 C-332.09158274 159.06135038 -326.19698973 165.44110763 -321.84008789 174.58374023 C-316.40142797 188.54296736 -318.61553457 204.09097161 -324.22290039 217.55249023 C-325.64201649 220.15305493 -327.14673826 222.33546953 -328.93286133 224.68603516 C-329.47521423 225.40192307 -330.01756714 226.11781097 -330.57635498 226.85539246 C-330.99080872 227.39867691 -331.40526245 227.94196136 -331.83227539 228.50170898 C-293.33629543 231.37799141 -262.62860993 226.11246208 -226.83666992 211.86547852 C-221.55376266 209.76536086 -216.23292916 207.82143148 -210.85961914 205.96655273 C-209.43253828 205.46979043 -208.00553231 204.97281289 -206.57861328 204.47558594 C-205.92442413 204.24779449 -205.27023499 204.02000305 -204.59622192 203.78530884 C-194.30203976 200.19614062 -187.56000496 197.28464328 -180.70727539 188.56420898 C-152.51810848 153.38717102 -152.51810848 153.38717102 -135.38110352 151.18701172 C-132.77963789 151.0228103 -130.18829277 150.93083991 -127.58227539 150.87670898 C-125.82696115 150.82553364 -124.07174157 150.77097278 -122.31665039 150.71264648 C-121.550625 150.69508301 -120.78459961 150.67751953 -119.99536133 150.65942383 C-117.83641129 150.50201054 -115.91141064 150.09026601 -113.83227539 149.50170898 C-114.27958008 149.05182617 -114.72688477 148.60194336 -115.18774414 148.13842773 C-124.62640476 138.09601484 -128.79646161 125.02906416 -129.14477539 111.31420898 C-128.71066549 100.26249434 -126.28586223 90.03313164 -118.64477539 81.68920898 C-110.06877306 73.80151921 -99.13562149 70.9843567 -87.72680664 71.25561523 C-76.44036763 72.21519102 -67.88536963 76.05698444 -60.01977539 84.18920898 C-52.61963195 93.15179571 -51.01479827 105.22669433 -51.83227539 116.50170898 C-53.49860477 129.26670925 -57.65717494 140.32660853 -66.83227539 149.50170898 C-53.96227539 149.83170898 -41.09227539 150.16170898 -27.83227539 150.50170898 C-27.87868164 147.20170898 -27.92508789 143.90170898 -27.97290039 140.50170898 C-28.00413973 137.28802019 -28.02840265 134.07434862 -28.05200195 130.8605957 C-28.07205585 128.63558316 -28.09930604 126.41062292 -28.1340332 124.18579102 C-28.18282473 120.97846534 -28.20530701 117.77183947 -28.22290039 114.56420898 C-28.24354553 113.57743164 -28.26419067 112.5906543 -28.28546143 111.57397461 C-28.28784038 104.16941585 -26.74065179 98.87265022 -21.86743164 93.22436523 C-21.21645508 92.67651367 -20.56547852 92.12866211 -19.89477539 91.56420898 C-19.24637695 90.99831055 -18.59797852 90.43241211 -17.92993164 89.84936523 C-15.55116772 88.32110908 -13.59334006 87.98631098 -10.83227539 87.50170898 C-10.84115784 86.47076111 -10.85004028 85.43981323 -10.85919189 84.37762451 C-10.94024629 74.666277 -11.00022565 64.95499804 -11.03952408 55.24338913 C-11.06040702 50.25041364 -11.08873761 45.25771102 -11.1340332 40.26489258 C-11.17746567 35.44734258 -11.20140718 30.63005518 -11.21178436 25.81232452 C-11.21918041 23.97347122 -11.23362308 22.13463244 -11.25519562 20.29589081 C-11.28419541 17.72192729 -11.28823289 15.14905153 -11.28637695 12.57495117 C-11.30075806 11.81322098 -11.31513916 11.05149078 -11.32995605 10.26667786 C-11.30402213 6.94692128 -11.05168621 4.8405772 -9.23091125 2.02848816 C-6.00898702 -0.02233035 -3.81121474 0.00051672 0 0 Z M4.16772461 14.50170898 C4.16772461 21.10170898 4.16772461 27.70170898 4.16772461 34.50170898 C18.35772461 34.50170898 32.54772461 34.50170898 47.16772461 34.50170898 C46.17772461 32.52170898 45.18772461 30.54170898 44.16772461 28.50170898 C43.51190345 22.490015 44.60767514 20.47515775 47.16772461 14.50170898 C32.97772461 14.50170898 18.78772461 14.50170898 4.16772461 14.50170898 Z M-108.83227539 93.50170898 C-114.15814861 102.09532136 -115.00011604 111.12989646 -113.14477539 121.00170898 C-110.80360645 130.14034083 -106.69077433 137.13797161 -98.83227539 142.50170898 C-93.87843519 145.03132951 -89.11719109 145.00912127 -83.83227539 143.50170898 C-76.47063388 139.74713772 -71.54773355 133.29851841 -68.79711914 125.60717773 C-65.99059846 115.43843535 -65.76174972 106.34466114 -69.83227539 96.50170898 C-72.98218065 91.32686463 -77.45291836 88.56887436 -83.20727539 86.75170898 C-92.50727531 85.86599471 -101.99664768 86.27547397 -108.83227539 93.50170898 Z M-375.33227539 175.93920898 C-380.49348542 183.84231183 -380.5225365 193.67912722 -378.65258789 202.65014648 C-376.08570659 211.57311483 -371.52870912 219.14227371 -363.39477539 223.93920898 C-357.13895649 225.31243752 -352.29219891 225.01207786 -346.71508789 221.88452148 C-339.12072658 216.30692003 -335.31779017 206.54212749 -333.83227539 197.50170898 C-333.13264015 189.37517657 -334.08137 181.75813669 -339.14477539 175.12670898 C-344.13557213 170.25197728 -349.60843386 168.40114382 -356.45727539 168.18920898 C-363.8059626 168.30843547 -370.39301636 170.2686519 -375.33227539 175.93920898 Z " fill="#FFDB6D" transform="translate(445.832275390625,-0.501708984375)"/>
<path d="M0 0 C1.11183151 -0.00983414 2.22366302 -0.01966827 3.3691864 -0.02980042 C4.58438965 -0.02013245 5.7995929 -0.01046448 7.05162048 -0.00050354 C8.9764753 -0.00860802 8.9764753 -0.00860802 10.94021606 -0.01687622 C14.45676947 -0.03083508 17.97283386 -0.01965917 21.48936009 -0.00316501 C25.16884447 0.01068568 28.84830047 0.00422551 32.52780151 0.0007019 C38.70574323 -0.00199988 44.88349062 0.01147363 51.06138611 0.03465271 C58.20627954 0.06127415 65.35084829 0.06300578 72.49577433 0.05126435 C79.36757062 0.04049039 86.23924935 0.04666982 93.1110363 0.06081963 C96.03643507 0.06658161 98.96174786 0.06649515 101.8871479 0.06175423 C105.96949617 0.05610181 110.05135821 0.07528915 114.13365173 0.09715271 C115.95949295 0.09040024 115.95949295 0.09040024 117.82221985 0.08351135 C118.93123154 0.09341599 120.04024323 0.10332062 121.18286133 0.11352539 C122.14831407 0.11595529 123.1137668 0.11838518 124.10847569 0.12088871 C126.52793884 0.50120544 126.52793884 0.50120544 128.33819675 1.74077511 C129.85926801 3.99146457 129.90511673 5.34747377 129.90888977 8.05577087 C129.92157898 9.45641029 129.92157898 9.45641029 129.93452454 10.88534546 C129.92845184 11.90777847 129.92237915 12.93021149 129.91612244 13.98362732 C129.92137939 15.06189285 129.92663635 16.14015839 129.93205261 17.25109863 C129.94528331 20.82419718 129.93650338 24.39685217 129.92637634 27.96995544 C129.92839619 30.44712917 129.93130687 32.92430232 129.93507385 35.401474 C129.94006898 41.26274612 129.92955199 47.1238566 129.91362154 52.98510504 C129.90235734 57.66192402 129.90634089 62.33855365 129.91905212 67.0153656 C129.93641197 73.4573619 129.93918236 79.89917484 129.92938614 86.34118652 C129.9273809 88.80044599 129.92985469 91.25971322 129.9368248 93.71896362 C129.94441984 97.15244883 129.93286178 100.58534256 129.91612244 104.01878357 C129.92219513 105.04121658 129.92826782 106.0636496 129.93452454 107.11706543 C129.92606506 108.05082504 129.91760559 108.98458466 129.90888977 109.94664001 C129.90775869 110.75853035 129.90662762 111.57042068 129.90546227 112.40691376 C129.43601911 115.01112544 128.59385308 115.89708676 126.52793884 117.50120544 C124.59043884 117.89964294 124.59043884 117.89964294 122.52793884 117.87620544 C121.50700134 117.88780701 121.50700134 117.88780701 120.46543884 117.89964294 C117.93328989 117.37891877 117.14114805 116.49826581 115.52793884 114.50120544 C115.15879536 112.5703249 115.15879536 112.5703249 115.16717529 110.34405518 C115.1630428 109.50026967 115.15891031 108.65648417 115.1546526 107.7871294 C115.16544692 106.86108748 115.17624125 105.93504557 115.18736267 104.98094177 C115.18700107 103.9893616 115.18663946 102.99778143 115.1862669 101.97615337 C115.18850877 98.7616435 115.21136711 95.54765339 115.23497009 92.33323669 C115.23938009 90.35061392 115.24244115 88.36798768 115.24412537 86.38536072 C115.25986391 79.02808908 115.30174744 71.67089218 115.34043884 64.31370544 C115.40231384 47.87558044 115.46418884 31.43745544 115.52793884 14.50120544 C79.22793884 14.50120544 42.92793884 14.50120544 5.52793884 14.50120544 C5.68630303 46.90221709 5.68630303 46.90221709 5.88829041 79.30296326 C5.90635681 85.56907654 5.90635681 85.56907654 5.90971375 88.50236511 C5.9158568 90.55139132 5.9299267 92.60040305 5.95024109 94.64933777 C5.97947378 97.75288521 5.98356456 100.855549 5.98204041 103.95921326 C5.99643284 104.8722887 6.01082527 105.78536415 6.02565384 106.72610855 C5.98530987 112.85288907 5.98530987 112.85288907 3.7183075 116.06632996 C0.4923476 118.17960471 -1.70478597 118.03938761 -5.47206116 117.50120544 C-7.66242981 115.90568542 -7.66242981 115.90568542 -9.47206116 113.50120544 C-9.95307922 110.32475281 -9.95307922 110.32475281 -9.92616272 106.52952576 C-9.92664486 105.82527843 -9.927127 105.12103111 -9.92762375 104.39544296 C-9.92464553 102.12288565 -9.89422339 99.85165196 -9.86268616 97.57933044 C-9.85680264 96.17357515 -9.85272339 94.7678111 -9.85047913 93.36204529 C-9.82953508 88.15829809 -9.77368986 82.95473867 -9.72206116 77.75120544 C-9.63956116 66.11870544 -9.55706116 54.48620544 -9.47206116 42.50120544 C-45.77206116 42.50120544 -82.07206116 42.50120544 -119.47206116 42.50120544 C-119.35329135 66.06148882 -119.35329135 66.06148882 -119.20179749 89.62156677 C-119.18824768 94.17832947 -119.18824768 94.17832947 -119.18572998 96.31155396 C-119.1811232 97.80144945 -119.17057182 99.29133375 -119.15533447 100.78115845 C-119.13340572 103.03805472 -119.130342 105.29426759 -119.13148499 107.55125427 C-119.12149223 109.45986992 -119.12149223 109.45986992 -119.11129761 111.40704346 C-119.47206116 114.50120544 -119.47206116 114.50120544 -120.87225342 116.41067505 C-122.86476748 117.76889897 -124.07314992 117.9034658 -126.47206116 117.87620544 C-127.49299866 117.88780701 -127.49299866 117.88780701 -128.53456116 117.89964294 C-130.47206116 117.50120544 -130.47206116 117.50120544 -133.47206116 114.50120544 C-133.47206116 98.33120544 -133.47206116 82.16120544 -133.47206116 65.50120544 C-169.77206116 65.50120544 -206.07206116 65.50120544 -243.47206116 65.50120544 C-243.47206116 81.34120544 -243.47206116 97.18120544 -243.47206116 113.50120544 C-247.47206116 117.50120544 -247.47206116 117.50120544 -250.97206116 118.00120544 C-254.47206116 117.50120544 -254.47206116 117.50120544 -258.47206116 113.50120544 C-258.47206116 106.24120544 -258.47206116 98.98120544 -258.47206116 91.50120544 C-294.77206116 91.50120544 -331.07206116 91.50120544 -368.47206116 91.50120544 C-368.47206116 99.09120544 -368.47206116 106.68120544 -368.47206116 114.50120544 C-371.47206116 117.50120544 -371.47206116 117.50120544 -373.40956116 117.89964294 C-374.09018616 117.89190857 -374.77081116 117.88417419 -375.47206116 117.87620544 C-376.49299866 117.88780701 -376.49299866 117.88780701 -377.53456116 117.89964294 C-380.18669395 117.35424467 -380.8809152 116.7133134 -382.47206116 114.50120544 C-382.77024694 111.87867087 -382.89265039 109.49826579 -382.87049866 106.87620544 C-382.87336884 106.13289978 -382.87623901 105.38959412 -382.87919617 104.62376404 C-382.88123592 103.05360654 -382.87571216 101.48342358 -382.86317444 99.91331482 C-382.84711818 97.50974212 -382.86302468 95.10785084 -382.88221741 92.70433044 C-382.88023496 91.17828507 -382.87639124 89.65224073 -382.87049866 88.12620544 C-382.8796077 87.04798523 -382.8796077 87.04798523 -382.88890076 85.94798279 C-382.81892236 80.9840623 -382.81892236 80.9840623 -381.25744915 78.81037426 C-378.89138736 77.07541562 -377.43877471 77.13136074 -374.51766968 77.14044189 C-372.98431473 77.13425591 -372.98431473 77.13425591 -371.41998291 77.12794495 C-369.73900261 77.14412369 -369.73900261 77.14412369 -368.02406311 77.16062927 C-366.84344299 77.16019119 -365.66282288 77.15975311 -364.44642639 77.15930176 C-361.20894883 77.16103481 -357.97185929 77.17608952 -354.73445916 77.19702363 C-351.35120848 77.21576593 -347.96795034 77.21753893 -344.58465576 77.22109985 C-338.17793352 77.23042755 -331.77136469 77.25505102 -325.36471003 77.28514832 C-318.07096777 77.31866988 -310.77721821 77.33517267 -303.48341811 77.35023463 C-288.47954695 77.38160003 -273.47581939 77.43437449 -258.47206116 77.50120544 C-258.48777161 76.8557074 -258.50348206 76.21020935 -258.51966858 75.54515076 C-258.58211918 72.61392515 -258.62108346 69.68283965 -258.65956116 66.75120544 C-258.68469788 65.73542419 -258.70983459 64.71964294 -258.73573303 63.67308044 C-258.745401 62.69339294 -258.75506897 61.71370544 -258.76502991 60.70433044 C-258.78074036 59.80359802 -258.79645081 58.9028656 -258.81263733 57.97483826 C-258.40129037 54.98719138 -257.54818526 53.66205071 -255.47206116 51.50120544 C-252.53220636 50.52125384 -250.65521936 50.37772477 -247.59359741 50.38095093 C-246.58818909 50.37957626 -245.58278076 50.3782016 -244.54690552 50.37678528 C-243.44495346 50.38038055 -242.3430014 50.38397583 -241.20765686 50.38768005 C-239.4659874 50.38746101 -239.4659874 50.38746101 -237.68913269 50.38723755 C-233.84201708 50.38793556 -229.99494958 50.39572278 -226.14784241 50.40354919 C-223.48411985 50.40541377 -220.82039998 50.40688667 -218.15667725 50.40783691 C-211.85626825 50.41094602 -205.55587658 50.41915375 -199.25547522 50.4291864 C-192.08263039 50.44036059 -184.90978472 50.44586129 -177.73693335 50.45088184 C-162.98196708 50.4613367 -148.22701442 50.47892801 -133.47206116 50.50120544 C-133.49562683 49.66142151 -133.49562683 49.66142151 -133.51966858 48.80467224 C-133.58205964 46.26611954 -133.62106334 43.72772816 -133.65956116 41.18870544 C-133.68469788 40.30763123 -133.70983459 39.42655701 -133.73573303 38.51878357 C-133.75023499 37.24744568 -133.75023499 37.24744568 -133.76502991 35.95042419 C-133.78859558 34.77999573 -133.78859558 34.77999573 -133.81263733 33.58592224 C-133.38429568 30.96398009 -132.51884948 30.13745425 -130.47206116 28.50120544 C-128.02387908 27.27711441 -126.45107556 27.37806964 -123.71385193 27.38095093 C-122.70981827 27.37957626 -121.70578461 27.3782016 -120.67132568 27.37678528 C-119.01300468 27.38217819 -119.01300468 27.38217819 -117.32118225 27.38768005 C-116.1602153 27.38753403 -114.99924835 27.387388 -113.80310059 27.38723755 C-109.95054786 27.38793642 -106.09804298 27.39572763 -102.24549866 27.40354919 C-99.58034686 27.40541347 -96.91519775 27.4068865 -94.25004578 27.40783691 C-87.94252031 27.41094799 -81.63501212 27.41915838 -75.32749426 27.4291864 C-68.14741761 27.44035446 -60.96734013 27.44585974 -53.78725696 27.45088184 C-39.01551617 27.46134117 -24.24378897 27.47893631 -9.47206116 27.50120544 C-9.49300842 26.82541443 -9.51395569 26.14962341 -9.53553772 25.45335388 C-9.61877758 22.38612291 -9.67074582 19.31912963 -9.72206116 16.25120544 C-9.75557678 15.18772888 -9.78909241 14.12425232 -9.82362366 13.02854919 C-9.83651428 12.00374451 -9.84940491 10.97893982 -9.86268616 9.92308044 C-9.88363342 8.98045349 -9.90458069 8.03782654 -9.92616272 7.06663513 C-8.92059301 1.38570688 -5.33001816 0.00115495 0 0 Z " fill="#FFDA6E" transform="translate(382.47206115722656,394.49879455566406)"/>
<path d="M0 0 C3.873994 1.63035041 7.47809124 3.66776577 11.125 5.75 C12.70583374 6.6303894 12.70583374 6.6303894 14.31860352 7.52856445 C17.55479588 9.33680362 20.77831084 11.16606949 24 13 C25.88134491 14.06149131 27.76284682 15.12270441 29.64453125 16.18359375 C33.95603616 18.6233493 38.24793228 21.0954335 42.53369141 23.58007812 C45.00623045 25.00358704 47.49157712 26.40219081 49.98046875 27.796875 C51.52884548 28.67673209 53.07703227 29.55692355 54.625 30.4375 C55.33003662 30.82639404 56.03507324 31.21528809 56.76147461 31.6159668 C60.82356656 33.95208602 63.08730407 35.72225272 65 40 C65.42998798 43.16941985 65.42055325 46.30535665 65.3984375 49.5 C65.40130768 50.41330078 65.40417786 51.32660156 65.40713501 52.26757812 C65.40917189 54.19401674 65.40366835 56.12047622 65.39111328 58.046875 C65.37505426 60.99005524 65.3909747 63.9318623 65.41015625 66.875 C65.40817375 68.75000302 65.40432994 70.62500519 65.3984375 72.5 C65.40451019 73.37720703 65.41058289 74.25441406 65.4168396 75.15820312 C65.35690142 80.38322917 64.88179286 84.11820714 61 88 C55.20411664 88.46740995 55.20411664 88.46740995 53 88 C51.05797266 86.2249463 50.10551747 84.75791353 49.73968506 82.13020325 C49.65230365 79.77381236 49.66317773 77.43574754 49.70703125 75.078125 C49.71127609 74.21813904 49.71552094 73.35815308 49.71989441 72.47210693 C49.73665884 69.7310833 49.77430655 66.99080061 49.8125 64.25 C49.82754975 62.38933355 49.84123765 60.52865555 49.85351562 58.66796875 C49.88655501 54.1116946 49.93832167 49.55597284 50 45 C49.11425293 44.72615479 48.22850586 44.45230957 47.31591797 44.17016602 C44.27964171 43.09868375 41.72915075 41.87617342 38.9453125 40.27734375 C37.52605469 39.46813477 37.52605469 39.46813477 36.078125 38.64257812 C34.61632812 37.79856445 34.61632812 37.79856445 33.125 36.9375 C31.21110681 35.84215204 29.2970402 34.74710704 27.3828125 33.65234375 C26.44293488 33.11294662 25.50305725 32.5735495 24.53469849 32.01780701 C20.56854754 29.74825697 16.58504868 27.50979714 12.60107422 25.27172852 C11.86674667 24.85894905 11.13241913 24.44616959 10.37583923 24.02088165 C8.58401494 23.01370381 6.79202471 22.0068212 5 21 C4.99635437 22.10389572 4.99270874 23.20779144 4.98895264 24.34513855 C4.95201221 34.74807173 4.89424988 45.15070864 4.81609726 55.55341625 C4.77658725 60.90159012 4.744416 66.24959848 4.72900391 71.59790039 C4.71386063 76.7592911 4.6794563 81.92022687 4.63169098 87.08141518 C4.61685317 89.05054076 4.60895761 91.01973128 4.60811615 92.98891258 C4.60575197 95.74725225 4.57871686 98.50432903 4.54589844 101.26245117 C4.5509288 102.07669052 4.55595917 102.89092987 4.56114197 103.72984314 C4.48953626 107.6194091 4.24111231 109.60061391 2.18463135 113.0070343 C0 115 0 115 -3.5 115.625 C-7 115 -7 115 -9.18640137 113.1006012 C-11.78782539 108.65310201 -11.56001287 104.83284932 -11.51757812 99.76538086 C-11.5245874 98.73719742 -11.53159668 97.70901398 -11.53881836 96.64967346 C-11.55640935 93.25445472 -11.54477197 89.86007082 -11.53125 86.46484375 C-11.53394437 84.10502462 -11.53782634 81.74520657 -11.54284668 79.38539124 C-11.54874307 74.44163434 -11.54017307 69.49816664 -11.52148438 64.55444336 C-11.49868269 58.21323377 -11.51182536 51.8727009 -11.53577423 45.53151608 C-11.55021746 40.65966172 -11.54563312 35.78796824 -11.53526306 30.91610909 C-11.53259236 28.57769249 -11.53587753 26.23926135 -11.54518127 23.90086174 C-11.55532355 20.63525476 -11.53987769 17.37074939 -11.51757812 14.10522461 C-11.52567505 13.13628265 -11.53377197 12.1673407 -11.54211426 11.16903687 C-11.45947583 4.64713066 -11.45947583 4.64713066 -9.15856934 1.4065094 C-5.78827362 -0.78955284 -3.99248164 -0.61666053 0 0 Z " fill="#FFDB6D" transform="translate(351,281)"/>
<path d="M0 0 C2.90820312 1.28417969 2.90820312 1.28417969 5.78125 2.921875 C6.85963135 3.529104 7.9380127 4.13633301 9.04907227 4.76196289 C10.18787842 5.41801514 11.32668457 6.07406738 12.5 6.75 C13.6959581 7.42866746 14.89249978 8.10630746 16.08959961 8.78295898 C18.53558849 10.16769073 20.9779472 11.55851758 23.41748047 12.95458984 C26.78089359 14.87804562 30.15620011 16.7797396 33.53515625 18.67578125 C39.03452401 21.76482485 44.53261507 24.85459736 50 28 C50.92409668 28.52706543 51.84819336 29.05413086 52.80029297 29.59716797 C53.70021973 30.12068848 54.60014648 30.64420898 55.52734375 31.18359375 C56.3380835 31.6520874 57.14882324 32.12058105 57.98413086 32.60327148 C60 34 60 34 62 37 C62.2316367 39.6264464 62.35189731 42.14451621 62.37109375 44.7734375 C62.38012222 45.53419586 62.3891507 46.29495422 62.39845276 47.07876587 C62.41295189 48.68756172 62.42184117 50.2964165 62.42553711 51.90527344 C62.43742609 54.35974153 62.48660164 56.81168814 62.53710938 59.265625 C62.54657505 60.83071693 62.5538094 62.39582426 62.55859375 63.9609375 C62.57812607 64.69130219 62.59765839 65.42166687 62.61778259 66.17416382 C62.58326584 70.09660567 62.11117832 71.85557989 59.69165039 74.99853516 C57 77 57 77 53.375 77.0625 C49.62191924 75.88097458 48.84894289 75.36235922 47 72 C46.91674805 69.16601562 46.91674805 69.16601562 47.26171875 65.90625 C48.57998803 53.14178926 48.57998803 53.14178926 44.14501953 41.70703125 C39.18283996 37.92045598 33.57444113 35.84698679 27.77929688 33.6640625 C19.10568731 30.08505729 11.06578499 24.75670858 3 20 C3.00666183 20.92850266 3.01332367 21.85700531 3.02018738 22.81364441 C3.08032336 31.56816514 3.12598711 40.32261639 3.15543652 49.07729626 C3.17108579 53.57806911 3.19231054 58.07867115 3.22631836 62.5793457 C3.25893821 66.92356862 3.27685857 71.26762733 3.28463173 75.61196327 C3.29017053 77.26855364 3.30098652 78.92513512 3.31719017 80.5816555 C3.3389997 82.90383632 3.34196551 85.2253405 3.34057617 87.54760742 C3.351362 88.23093643 3.36214783 88.91426544 3.3732605 89.61830139 C3.34299757 94.29963326 2.36089322 97.63910678 -1 101 C-7.12756581 101.57807225 -7.12756581 101.57807225 -10.1971283 99.54418945 C-12.86199231 95.78356749 -12.56772015 92.48814661 -12.53344727 87.98046875 C-12.54637062 86.6139769 -12.54637062 86.6139769 -12.55955505 85.21987915 C-12.58225666 82.20879704 -12.5754688 79.19864238 -12.56640625 76.1875 C-12.57163974 74.0952934 -12.5779152 72.00308917 -12.58518982 69.91088867 C-12.59560161 65.52609148 -12.5910209 61.14161867 -12.57641602 56.75683594 C-12.55922178 51.13401593 -12.58272773 45.51221715 -12.61790562 39.88951111 C-12.63985068 35.56922619 -12.63844521 31.24918675 -12.6301403 26.92886353 C-12.6293193 24.85558959 -12.63621098 22.7822979 -12.65091133 20.70907593 C-12.66830489 17.81191952 -12.65385831 14.91661273 -12.63110352 12.01953125 C-12.64279572 11.16122711 -12.65448792 10.30292297 -12.66653442 9.41860962 C-12.59993687 5.25744203 -12.55517509 3.61351461 -9.67625427 0.43206787 C-5.98536038 -1.54293526 -4.00183889 -1.05166652 0 0 Z " fill="#FFDB6D" transform="translate(95,347)"/>
</svg>
