<?xml version="1.0" encoding="UTF-8"?>
<svg version="1.1" xmlns="http://www.w3.org/2000/svg" width="500" height="500">
<path d="M0 0 C0.90179993 0.00021149 1.80359985 0.00042297 2.73272705 0.00064087 C17.5759696 0.03529602 31.66846976 1.08420279 46.1875 4.375 C47.0012207 4.54628418 47.81494141 4.71756836 48.65332031 4.89404297 C82.08024872 12.01590799 112.77569973 28.83874555 138.1875 51.375 C139.1053125 52.18195313 140.023125 52.98890625 140.96875 53.8203125 C181.77920012 90.08261005 205.4834573 141.70132128 208.91015625 195.96484375 C209.00761387 197.76796537 209.10053973 199.57134164 209.1875 201.375 C209.22214355 202.08414551 209.25678711 202.79329102 209.29248047 203.52392578 C211.36053331 253.96643214 192.23773031 306.04931634 158.625 343.5625 C157.51125 344.7690625 157.51125 344.7690625 156.375 346 C154.24261386 348.31516209 152.1838264 350.68198197 150.125 353.0625 C147.09781112 356.46363574 143.95759612 359.52550692 140.47265625 362.453125 C138.78752026 363.87036758 137.13285373 365.32402857 135.49609375 366.796875 C102.64156003 396.08061553 55.93842407 415.15581037 11.75390625 415.61328125 C10.96725586 415.62312042 10.18060547 415.63295959 9.37011719 415.64309692 C-45.25885523 416.18490182 -95.78539081 400.25087738 -136.8125 363.375 C-138.20699724 362.18593129 -139.60260824 360.99816573 -141 359.8125 C-180.05773647 325.24224814 -202.7061577 275.09283978 -206.63598633 223.4621582 C-207.55260474 207.43084448 -207.35582413 191.24476862 -204.8125 175.375 C-204.6995459 174.62863281 -204.5865918 173.88226563 -204.47021484 173.11328125 C-196.36029356 121.261897 -166.04724307 71.66919354 -123.61132812 40.66015625 C-118.64446342 37.11162533 -113.58400967 33.71714187 -108.44482422 30.42382812 C-107.07041457 29.54071956 -105.7076159 28.63957794 -104.34765625 27.734375 C-83.3472495 14.30001989 -58.14802185 6.71691251 -33.8125 2.375 C-32.78519775 2.18808594 -31.75789551 2.00117187 -30.69946289 1.80859375 C-20.46592855 0.13500706 -10.3413586 -0.02241161 0 0 Z M-121.8125 57.375 C-122.55886719 58.01179688 -123.30523437 58.64859375 -124.07421875 59.3046875 C-126.70585956 61.61009185 -129.26368557 63.97814741 -131.8125 66.375 C-132.69083496 67.19436035 -132.69083496 67.19436035 -133.58691406 68.03027344 C-168.41257962 100.76675316 -191.2596365 147.74804402 -193.12173462 195.81044006 C-194.56376253 242.82667681 -182.77311877 289.26411591 -152.8125 326.375 C-151.99394531 327.39722656 -151.17539063 328.41945313 -150.33203125 329.47265625 C-134.77373146 348.5544705 -116.8147448 363.64044861 -95.8125 376.375 C-95.20889648 376.74222168 -94.60529297 377.10944336 -93.98339844 377.48779297 C-50.3135184 403.55991147 4.7061451 407.37878507 53.26611328 395.16845703 C80.51905691 387.76647919 106.00890313 374.03924291 127.1875 355.375 C128.14785156 354.53582031 129.10820312 353.69664062 130.09765625 352.83203125 C170.85640341 316.67838164 191.63164052 267.87403654 195.34423828 214.10498047 C195.55645631 209.84035783 195.43321037 205.63544234 195.1875 201.375 C195.14496094 200.59334473 195.10242188 199.81168945 195.05859375 199.00634766 C192.17776503 150.20769445 173.11533086 106.48337565 139.1875 71.375 C138.42824219 70.57578125 137.66898437 69.7765625 136.88671875 68.953125 C131.42637974 63.32790896 125.6405367 57.84981069 119.1875 53.375 C118.1975 53.375 117.2075 53.375 116.1875 53.375 C114.67639963 55.09086838 114.67639963 55.09086838 113.32421875 57.4140625 C112.77443359 58.29320312 112.22464844 59.17234375 111.65820312 60.078125 C111.06974609 61.04234375 110.48128906 62.0065625 109.875 63 C108.60835438 65.03402947 107.34141941 67.06787877 106.07421875 69.1015625 C105.42759277 70.14731445 104.7809668 71.19306641 104.11474609 72.27050781 C101.17985906 76.99815204 98.18303803 81.6856499 95.1875 86.375 C94.02309997 88.20421227 92.85903885 90.03364032 91.6953125 91.86328125 C89.33682214 95.56957445 86.97734664 99.27523803 84.6171875 102.98046875 C77.60187351 113.99560755 70.60863044 125.02426614 63.64208984 136.0703125 C62.19668211 138.36045164 60.74909316 140.64919657 59.30078125 142.9375 C53.0076995 152.88354129 46.75291381 162.85287944 40.52612305 172.84057617 C39.63727417 174.26527222 39.63727417 174.26527222 38.73046875 175.71875 C38.15345215 176.64816406 37.57643555 177.57757813 36.98193359 178.53515625 C35.72920492 180.5177059 34.44848686 182.48272393 33.14697266 184.43359375 C32.49647949 185.41457031 31.84598633 186.39554688 31.17578125 187.40625 C30.57934814 188.28861328 29.98291504 189.17097656 29.3684082 190.08007812 C28.9787085 190.83740234 28.58900879 191.59472656 28.1875 192.375 C28.5175 193.365 28.8475 194.355 29.1875 195.375 C35.80875922 194.50287573 42.39181013 193.54032106 48.95703125 192.31640625 C49.9637085 192.13110352 50.97038574 191.94580078 52.00756836 191.75488281 C54.01156091 191.3826876 56.01379091 191.00084585 58.01391602 190.60839844 C66.30430044 189.07900092 72.57424706 189.58543975 80.625 192.375 C81.65496094 192.725625 82.68492187 193.07625 83.74609375 193.4375 C86.1875 194.375 86.1875 194.375 87.1875 195.375 C87.32927857 198.37503445 87.22978771 201.37257235 87.1875 204.375 C79.87822612 206.9620278 72.49533402 208.83142423 64.9453125 210.56835938 C64.08679688 210.77396484 63.22828125 210.97957031 62.34375 211.19140625 C61.18069336 211.46126343 61.18069336 211.46126343 59.99414062 211.73657227 C57.97893612 212.21353208 57.97893612 212.21353208 57.1875 214.375 C58.15223255 216.4916025 58.15223255 216.4916025 59.5625 218.75 C63.90303335 226.00038811 64.01818457 233.01880666 63.1875 241.375 C56.07792507 269.02646929 35.96961488 291.81619858 17.1875 312.375 C16.29145069 313.36438778 15.39562723 314.35398013 14.5 315.34375 C6.49826874 324.1622694 -1.64972306 332.74680196 -10.8125 340.375 C-11.33054199 340.80683594 -11.84858398 341.23867188 -12.38232422 341.68359375 C-46.30324307 369.80337821 -46.30324307 369.80337821 -63.08203125 368.828125 C-68.77488854 367.8833876 -72.38325736 365.95083163 -76.25 361.6875 C-81.82230204 349.87421967 -76.59485711 336.91797385 -72.5625 325.3125 C-63.80719482 301.28836202 -50.01244154 279.14099556 -36.8125 257.375 C-34.65584225 253.80174779 -32.50510938 250.22493764 -30.35546875 246.64746094 C-29.01742223 244.42228702 -27.67638653 242.19890718 -26.33203125 239.97753906 C-25.73777344 238.99237305 -25.14351562 238.00720703 -24.53125 236.9921875 C-24.00466797 236.12190918 -23.47808594 235.25163086 -22.93554688 234.35498047 C-21.73027261 232.60941343 -21.73027261 232.60941343 -21.8125 231.375 C-22.49957031 231.33761719 -23.18664062 231.30023438 -23.89453125 231.26171875 C-25.24611328 231.16310547 -25.24611328 231.16310547 -26.625 231.0625 C-27.51832031 231.00449219 -28.41164062 230.94648438 -29.33203125 230.88671875 C-32.22811343 230.28925928 -33.09993489 229.75792699 -34.8125 227.375 C-36.30968601 223.72186613 -36.93421399 220.32276671 -36.8125 216.375 C-35.13701247 212.6737488 -32.72258448 210.16846907 -29.8125 207.375 C-29.23886719 206.74722656 -28.66523438 206.11945313 -28.07421875 205.47265625 C-24.36015798 201.95852422 -20.95976693 200.29249364 -15.98828125 199.27734375 C-3.63769879 196.85318485 -3.63769879 196.85318485 5.17358398 188.4440918 C7.13113216 185.08745926 8.95256961 181.67929428 10.70800781 178.21289062 C13.37216659 173.10262963 16.44008612 168.23192561 19.4375 163.3125 C20.71510785 161.17802 21.99112972 159.04258997 23.265625 156.90625 C42.79873698 124.29240537 62.85795984 91.84907755 84.1875 60.375 C84.99768959 59.15774755 85.80758104 57.94029662 86.6171875 56.72265625 C87.41086904 55.54387384 88.20511727 54.36547274 89 53.1875 C89.68707031 52.16269531 90.37414062 51.13789062 91.08203125 50.08203125 C93.66718817 46.75825807 96.41045251 44.26352374 100.1875 42.375 C100.1875 41.715 100.1875 41.055 100.1875 40.375 C30.706573 1.49448127 -59.97739575 3.87842995 -121.8125 57.375 Z M22.01953125 220.3359375 C17.22137064 220.67269303 13.18299242 221.60072417 9.1875 224.375 C3.56231738 231.0118071 -0.09399397 239.13982893 -4.00097656 246.86523438 C-6.73302682 252.1584897 -9.76890553 257.25677291 -12.8125 262.375 C-13.96540169 264.34656976 -15.11642897 266.31923673 -16.265625 268.29296875 C-18.08336214 271.41003253 -19.90125304 274.52700207 -21.72070312 277.64306641 C-36.46150066 302.6433519 -36.46150066 302.6433519 -48.9375 328.8125 C-49.23333984 329.51705322 -49.52917969 330.22160645 -49.83398438 330.94750977 C-51.20680631 334.3606841 -51.8125 336.63694769 -51.8125 340.375 C-36.85251719 338.64801786 -23.19119729 322.08896257 -12.94140625 311.76464844 C-11.18968425 310.00219762 -9.42750572 308.25071432 -7.6640625 306.5 C-0.92135379 299.76509891 5.27537618 292.85798536 11.1875 285.375 C12.5176595 283.7889994 13.85056757 282.20529551 15.1875 280.625 C25.49600884 267.68278031 35.83288423 250.95429321 35.5078125 234.02734375 C34.81785925 228.3141943 31.57018347 224.02723623 27.1875 220.375 C25.46479454 220.375 23.74210576 220.35717763 22.01953125 220.3359375 Z " fill="#F08126" transform="translate(248.8125,41.625)"/>
<path d="M0 0 C2.71416982 2.16025761 4.43631256 3.69918282 5.8125 6.875 C6.46270697 14.24401236 5.93456067 20.6730652 1.69921875 26.91796875 C-4.04791412 33.3781454 -13.01404763 37.61519563 -21.5 39 C-24.9286101 39 -26.99280978 38.5975698 -30 37 C-30 36.34 -30 35.68 -30 35 C-31.485 34.505 -31.485 34.505 -33 34 C-34.25541557 30.23375329 -33.37061958 28.62811066 -32 25 C-50.05692263 28.59797592 -64.47706259 34.61868247 -79 46 C-79.78890625 46.60457031 -80.5778125 47.20914063 -81.390625 47.83203125 C-84.55870868 50.37551306 -86.27573395 51.99523479 -87 56 C-86.05382812 56.21092285 -85.10765625 56.4218457 -84.1328125 56.63916016 C-80.53672704 57.44405371 -76.94424613 58.26418769 -73.35253906 59.08837891 C-71.8137327 59.43938517 -70.27404366 59.78654953 -68.73339844 60.12939453 C-33.0596365 68.08021337 -33.0596365 68.08021337 -22 83 C-19.42302901 87.36964647 -19.3613454 92.05244787 -20 97 C-23.80254952 110.20645941 -34.06330886 118.56745078 -45.59765625 125.06640625 C-66.5390433 136.35647585 -90.62963679 142.82272041 -114 136 C-119.57824464 132.72725314 -123.50495325 129.05805017 -126.375 123.1875 C-128.00086316 114.89559787 -125.463939 108.01115843 -121 101 C-118.12697346 97.90015558 -116.54495009 97.13384739 -112.4375 96.125 C-108.97222202 95.99898989 -107.77297481 96.07301751 -105 98 C-104.34765625 100.0234375 -104.34765625 100.0234375 -104.0625 102.375 C-103.44369457 105.60422833 -103.07748769 106.9007189 -101 109.5625 C-90.39651172 114.64333814 -73.98842417 109.20623594 -63.3125 105.625 C-58.35264876 103.72438957 -54.51027862 102.02649606 -51 98 C-51 96.68 -51 95.36 -51 94 C-59.14788085 90.64069445 -67.67434411 88.71464629 -76.21411133 86.63037109 C-103.45774183 79.95401418 -103.45774183 79.95401418 -111 71 C-114.82667594 64.66206797 -114.98806745 58.34998249 -113.37890625 51.265625 C-111.05253648 43.94531481 -107.12205739 38.63896226 -102 33 C-101.05447266 31.93265625 -101.05447266 31.93265625 -100.08984375 30.84375 C-95.02967561 25.44069572 -89.40560255 21.65821124 -83 18 C-82.3306543 17.61553711 -81.66130859 17.23107422 -80.97167969 16.83496094 C-59.59019283 4.68617298 -24.3383083 -11.81744449 0 0 Z " fill="#F18025" transform="translate(226,182)"/>
<path d="M0 0 C3.52485063 2.00432683 4.73602612 3.05574407 6.1875 6.8125 C7.14498258 13.78844453 4.609952 20.00578972 0.90234375 25.83203125 C-3.92690226 32.00647113 -10.25276404 35.69835213 -18 36.875 C-21.65735677 37.07976648 -22.87134884 36.78412645 -26.3125 35.125 C-29.20855213 32.44615178 -30.53387162 30.48427026 -31.18359375 26.5859375 C-31.4071233 18.51257628 -29.16699916 12.43996926 -23.65234375 6.4765625 C-16.3337981 -0.29217588 -9.81690738 -3.05772525 0 0 Z " fill="#F18024" transform="translate(381.8125,288.1875)"/>
<path d="M0 0 C7.62920636 9.69841983 11.88648998 22.86441263 15.625 34.5 C15.88450439 35.29414307 16.14400879 36.08828613 16.41137695 36.90649414 C17.5724336 40.69111989 18.19464274 43.2199364 17 47 C13.57142857 38.57142857 13.57142857 38.57142857 14 34 C11.83333333 34.83333333 11.83333333 34.83333333 11 37 C10.01 36.01 9.02 35.02 8 34 C8.020625 34.763125 8.04125 35.52625 8.0625 36.3125 C8 39 8 39 7 42 C6.90732412 43.70632648 6.87001798 45.41616587 6.875 47.125 C6.87242187 48.01445312 6.86984375 48.90390625 6.8671875 49.8203125 C6.75698015 51.97791088 6.75698015 51.97791088 8 53 C8.07179964 54.51928038 8.08392007 56.04167482 8.0625 57.5625 C8.05347656 58.38878906 8.04445313 59.21507812 8.03515625 60.06640625 C8.02355469 60.70449219 8.01195312 61.34257812 8 62 C8.66 62 9.32 62 10 62 C10.09087891 63.28197266 10.09087891 63.28197266 10.18359375 64.58984375 C10.26738281 65.69457031 10.35117187 66.79929687 10.4375 67.9375 C10.51871094 69.03964844 10.59992188 70.14179688 10.68359375 71.27734375 C10.70418084 73.91109903 10.70418084 73.91109903 12 75 C12.07313567 77.53049402 12.09247527 80.03304837 12.0625 82.5625 C12.05798828 83.27341797 12.05347656 83.98433594 12.04882812 84.71679688 C12.03700864 86.47790013 12.01907263 88.23896036 12 90 C11.34 90 10.68 90 10 90 C9.91363281 88.7625 9.82726562 87.525 9.73828125 86.25 C7.46100463 56.96336333 -0.41620113 30.44359237 -13 4 C-12.34 4 -11.68 4 -11 4 C-10.67 5.32 -10.34 6.64 -10 8 C-9.34 8 -8.68 8 -8 8 C-7.67 8.99 -7.34 9.98 -7 11 C-5.68 10.67 -4.36 10.34 -3 10 C-1.53273202 13.81489674 -2.56663581 16.29011622 -4 20 C-3.34 20 -2.68 20 -2 20 C-1.896875 19.401875 -1.79375 18.80375 -1.6875 18.1875 C-0.91123545 15.71756736 0.07088921 14.67748765 2 13 C1.67 11.96875 1.34 10.9375 1 9.875 C0.0284808 6.51573291 -0.17116771 3.50893798 0 0 Z " fill="#ED8129" transform="translate(433,152)"/>
<path d="M0 0 C2.475 0.495 2.475 0.495 5 1 C4.33333333 3.66666667 3.66666667 6.33333333 3 9 C3.99 9 4.98 9 6 9 C6 9.66 6 10.32 6 11 C4.35 11 2.7 11 1 11 C0.9175 11.78375 0.835 12.5675 0.75 13.375 C0 16 0 16 -1.5625 17.3125 C-7.29700099 18.92992336 -13.22457081 17.96257153 -19 17 C-18.46574354 13.15335347 -17.76920387 10.76920387 -15 8 C-10.39451164 5.03496214 -6.58315078 3.44168492 -1 4 C-0.67 2.68 -0.34 1.36 0 0 Z " fill="#F28024" transform="translate(349,417)"/>
<path d="M0 0 C-2.71182212 2.60334924 -3.89133813 2.99456691 -7.75 3.1875 C-8.8225 3.125625 -9.895 3.06375 -11 3 C-11 3.99 -11 4.98 -11 6 C-12.65 6 -14.3 6 -16 6 C-16 6.66 -16 7.32 -16 8 C-22.15234375 8.09765625 -22.15234375 8.09765625 -24 8 C-24.495 7.505 -24.495 7.505 -25 7 C-27.87266255 6.92372112 -30.72155032 6.90928613 -33.59375 6.9375 C-34.45560913 6.94128662 -35.31746826 6.94507324 -36.20544434 6.94897461 C-38.97034572 6.96123914 -41.73514532 6.97987105 -44.5 7 C-48.13541376 7.02646687 -51.7707767 7.04652737 -55.40625 7.0625 C-56.25102905 7.07079834 -57.09580811 7.07909668 -57.96618652 7.08764648 C-59.97765171 7.09619216 -61.98922542 7.05339285 -64 7 C-64.33 6.67 -64.66 6.34 -65 6 C-67.69235776 5.76321284 -70.36498156 5.57801975 -73.0625 5.4375 C-73.82111328 5.39431641 -74.57972656 5.35113281 -75.36132812 5.30664062 C-77.24065438 5.20026367 -79.12030244 5.09960066 -81 5 C-81 4.34 -81 3.68 -81 3 C-82.32 2.67 -83.64 2.34 -85 2 C-84.35675781 2.06058594 -83.71351563 2.12117188 -83.05078125 2.18359375 C-80.03449238 2.46327817 -77.01739474 2.7325028 -74 3 C-72.52539307 3.13220947 -72.52539307 3.13220947 -71.02099609 3.26708984 C-63.10834434 3.92994961 -55.25169848 4.19303563 -47.3125 4.1875 C-46.0951416 4.18669434 -44.8777832 4.18588867 -43.62353516 4.18505859 C-31.26670416 4.10166593 -19.10072005 3.22239273 -7.04296875 0.3671875 C-4.66563237 -0.06009667 -2.41033479 -0.05889125 0 0 Z " fill="#E88430" transform="translate(297,438)"/>
<path d="M0 0 C0.33 0.66 0.66 1.32 1 2 C2.2065625 2.2475 2.2065625 2.2475 3.4375 2.5 C6 4 6 4 6.73828125 6.2109375 C7.23579338 8.80103881 7.62592628 11.38961599 8 14 C8.31528653 15.3377157 8.64203668 16.67306701 9 18 C8.360625 18.2475 7.72125 18.495 7.0625 18.75 C4.81258459 19.81562433 4.81258459 19.81562433 4.25 22.125 C4.12625 23.053125 4.12625 23.053125 4 24 C3.34 24 2.68 24 2 24 C2.495 19.545 2.495 19.545 3 15 C2.01 14.67 1.02 14.34 0 14 C-0.33 14.66 -0.66 15.32 -1 16 C-1.33 14.68 -1.66 13.36 -2 12 C-2.66 12 -3.32 12 -4 12 C-4.12375 11.360625 -4.2475 10.72125 -4.375 10.0625 C-4.58125 9.381875 -4.7875 8.70125 -5 8 C-5.66 7.67 -6.32 7.34 -7 7 C-5.12050295 3.42895561 -3.82946843 1.45255699 0 0 Z " fill="#F38022" transform="translate(427,148)"/>
<path d="M0 0 C0.99 0.33 1.98 0.66 3 1 C2.67 2.32 2.34 3.64 2 5 C8.41904355 6.12804955 14.77057764 6.21958814 21.27734375 6.31640625 C22.4438295 6.33718735 23.61031525 6.35796844 24.81214905 6.37937927 C28.52054224 6.44450911 32.22900332 6.50358917 35.9375 6.5625 C38.45899126 6.60572001 40.98047577 6.6493354 43.50195312 6.69335938 C49.66789799 6.80015284 55.83390967 6.9019857 62 7 C62 7.33 62 7.66 62 8 C56.49195421 8.76938397 51.12476075 9.18089 45.56640625 9.23828125 C44.77916672 9.24793915 43.99192719 9.25759705 43.18083191 9.26754761 C40.6413395 9.29228328 38.10209979 9.3049349 35.5625 9.3125 C34.69572632 9.31545074 33.82895264 9.31840149 32.93591309 9.32144165 C14.32136706 9.33583722 -3.06210277 7.12357127 -21 2 C-16.91889074 0.79851513 -13.39280151 1.30707368 -9.25 1.9375 C-8.55261719 2.03740234 -7.85523438 2.13730469 -7.13671875 2.24023438 C-5.42348274 2.48665873 -3.71159275 2.74240955 -2 3 C-1.67 2.34 -1.34 1.68 -1 1 C-0.67 0.67 -0.34 0.34 0 0 Z " fill="#DA8946" transform="translate(215,448)"/>
<path d="M0 0 C0.33 0.99 0.66 1.98 1 3 C2.32 3.66 3.64 4.32 5 5 C4.67 7.97 4.34 10.94 4 14 C5.32 14.33 6.64 14.66 8 15 C5.94766315 17.2477975 4.99332739 18.0022242 2 19 C2 18.34 2 17.68 2 17 C1.01 17.33 0.02 17.66 -1 18 C-1.33 16.68 -1.66 15.36 -2 14 C-2.66 14 -3.32 14 -4 14 C-4.33 12.35 -4.66 10.7 -5 9 C-5.99 8.67 -6.98 8.34 -8 8 C-8.33 7.01 -8.66 6.02 -9 5 C-8.67 4.34 -8.34 3.68 -8 3 C-6.02 3.495 -6.02 3.495 -4 4 C-4 3.01 -4 2.02 -4 1 C-2.68 0.67 -1.36 0.34 0 0 Z " fill="#F37F21" transform="translate(82,351)"/>
<path d="M0 0 C0.99 0.33 1.98 0.66 3 1 C3.1875 3.375 3.1875 3.375 3 6 C2.01 6.66 1.02 7.32 0 8 C-0.33 8.99 -0.66 9.98 -1 11 C0.32 11.33 1.64 11.66 3 12 C2.01 12 1.02 12 0 12 C-0.33 12.99 -0.66 13.98 -1 15 C-1.66 15 -2.32 15 -3 15 C-3 15.99 -3 16.98 -3 18 C-5.3125 18.3125 -5.3125 18.3125 -8 18 C-9.625 15.6875 -9.625 15.6875 -11 13 C-12.58245275 11.24850835 -12.58245275 11.24850835 -14 10 C-13.34 10 -12.68 10 -12 10 C-12 9.34 -12 8.68 -12 8 C-10.57421875 6.7109375 -10.57421875 6.7109375 -8.6875 5.375 C-7.76517578 4.70597656 -7.76517578 4.70597656 -6.82421875 4.0234375 C-5 3 -5 3 -2 3 C-1.34 2.01 -0.68 1.02 0 0 Z " fill="#F28021" transform="translate(371,403)"/>
<path d="M0 0 C5.30101923 4.00808771 9.06969212 8.66268841 13 14 C12.67 14.66 12.34 15.32 12 16 C10.68 15.34 9.36 14.68 8 14 C8 13.34 8 12.68 8 12 C6.68 12.99 5.36 13.98 4 15 C2.74335022 12.09399739 2 10.20395416 2 7 C0.35 7 -1.3 7 -3 7 C-2.67 9.97 -2.34 12.94 -2 16 C-1.34 16 -0.68 16 0 16 C0.66 18.31 1.32 20.62 2 23 C-2.54109672 18.73412126 -6.24735246 13.96387672 -10 9 C-6.78130827 5.29393538 -3.69204851 4.99994477 1 4 C0.67 2.68 0.34 1.36 0 0 Z " fill="#ED822A" transform="translate(404,111)"/>
<path d="M0 0 C0.33 0.99 0.66 1.98 1 3 C0.67 3.66 0.34 4.32 0 5 C1.32 4.67 2.64 4.34 4 4 C4.33 6.31 4.66 8.62 5 11 C3.68 11.33 2.36 11.66 1 12 C1 11.34 1 10.68 1 10 C-0.32 10.33 -1.64 10.66 -3 11 C-2.34 11.33 -1.68 11.66 -1 12 C-1 12.66 -1 13.32 -1 14 C-0.34 14.33 0.32 14.66 1 15 C0.34 15.66 -0.32 16.32 -1 17 C-1.78375 16.505 -2.5675 16.01 -3.375 15.5 C-5.78552327 13.83462035 -5.78552327 13.83462035 -8 14 C-8.66 14.66 -9.32 15.32 -10 16 C-9.65406977 10.6380814 -9.65406977 10.6380814 -9 8 C-7.25 6.875 -7.25 6.875 -5 6 C-3.18190786 4.09926731 -1.62425359 2.07543514 0 0 Z " fill="#F37F22" transform="translate(85,128)"/>
<path d="M0 0 C0.33 0 0.66 0 1 0 C1.2635606 6.88186004 0.84472171 13.33476461 -1 20 C-1.33 20.33 -1.66 20.66 -2 21 C-2.07325168 23.86267567 -2.09238205 26.700719 -2.0625 29.5625 C-2.05798828 30.36880859 -2.05347656 31.17511719 -2.04882812 32.00585938 C-2.03700518 34.00393756 -2.01906914 36.00197783 -2 38 C-3.485 38.495 -3.485 38.495 -5 39 C-5 47.25 -5 55.5 -5 64 C-5.33 64 -5.66 64 -6 64 C-6.33474702 41.8397471 -4.65297871 21.63860971 0 0 Z " fill="#DA8845" transform="translate(48,197)"/>
<path d="M0 0 C11.04545455 2.04545455 11.04545455 2.04545455 14 5 C14.52880431 8.06031431 14.55117862 10.94240913 14 14 C11.74939301 16.25060699 10.63674421 16.53085993 7.60546875 17.2890625 C6.73212891 17.50820312 5.85878906 17.72734375 4.95898438 17.953125 C4.04439453 18.17484375 3.12980469 18.3965625 2.1875 18.625 C0.83301758 18.96917969 0.83301758 18.96917969 -0.54882812 19.3203125 C-4.82032009 20.37484689 -8.57718472 21.12856736 -13 21 C-12.67 20.34 -12.34 19.68 -12 19 C-9.67284 18.62599214 -7.33882138 18.29235267 -5 18 C-4.67 17.67 -4.34 17.34 -4 17 C-2.2984375 16.7834375 -2.2984375 16.7834375 -0.5625 16.5625 C3.04058997 16.35152449 3.04058997 16.35152449 5 14 C7.125 14.375 7.125 14.375 9 15 C9 14.34 9 13.68 9 13 C9.66 13 10.32 13 11 13 C11.33 10.36 11.66 7.72 12 5 C10.37512529 4.83211627 8.75009558 4.66573213 7.125 4.5 C6.22007812 4.4071875 5.31515625 4.314375 4.3828125 4.21875 C2.06686789 3.96952705 2.06686789 3.96952705 0 4 C0 2.68 0 1.36 0 0 Z " fill="#DC8A44" transform="translate(323,232)"/>
<path d="M0 0 C0.33 0.66 0.66 1.32 1 2 C0.67 2.99 0.34 3.98 0 5 C-0.66 5 -1.32 5 -2 5 C-2.66255241 6.32510482 -3.30869602 7.65855152 -3.9375 9 C-5 11 -5 11 -7 13 C-9.32275177 13.40047444 -11.65739357 13.7397104 -14 14 C-13.34 15.98 -12.68 17.96 -12 20 C-12.721875 19.979375 -13.44375 19.95875 -14.1875 19.9375 C-16.99858823 19.91411357 -16.99858823 19.91411357 -19.6875 20.5625 C-22 21 -22 21 -24 20 C-23.17757812 19.38253906 -22.35515625 18.76507813 -21.5078125 18.12890625 C-14.00747034 12.45403823 -6.66471207 6.66471207 0 0 Z " fill="#E1863A" transform="translate(229,359)"/>
<path d="M0 0 C1.65 0 3.3 0 5 0 C4.67 0.66 4.34 1.32 4 2 C6.97 2.495 6.97 2.495 10 3 C10 3.66 10 4.32 10 5 C10.70608398 4.98428955 11.41216797 4.9685791 12.13964844 4.95239258 C15.34301729 4.88997903 18.54625812 4.85098889 21.75 4.8125 C22.86117187 4.78736328 23.97234375 4.76222656 25.1171875 4.73632812 C26.18710937 4.72666016 27.25703125 4.71699219 28.359375 4.70703125 C29.34389648 4.6913208 30.32841797 4.67561035 31.34277344 4.65942383 C34.39282409 5.05034818 35.74113723 5.96842944 38 8 C37.23147705 7.93941406 36.4629541 7.87882812 35.67114258 7.81640625 C19.74570992 6.58233651 3.98016829 5.68563603 -12 6 C-12 5.67 -12 5.34 -12 5 C-8.04 5 -4.08 5 0 5 C-0.33 4.01 -0.66 3.02 -1 2 C-0.67 1.34 -0.34 0.68 0 0 Z " fill="#E78A3E" transform="translate(244,50)"/>
<path d="M0 0 C0.66 0 1.32 0 2 0 C0.60180071 7.22402967 -0.9622628 14.40265181 -2.59082031 21.57763672 C-3.52024795 25.70454615 -4.35384923 29.81667338 -5 34 C-5.33 34 -5.66 34 -6 34 C-6.28307925 26.75002578 -5.50974035 20.09038772 -4 13 C-4.66 13 -5.32 13 -6 13 C-6 10.69 -6 8.38 -6 6 C-5.195625 5.7525 -4.39125 5.505 -3.5625 5.25 C-0.828919 4.27761141 -0.828919 4.27761141 -0.1875 1.875 C-0.125625 1.25625 -0.06375 0.6375 0 0 Z " fill="#E68A33" transform="translate(63,189)"/>
<path d="M0 0 C-1.4264578 3.2586636 -3.16704162 5.4024854 -5.6953125 7.890625 C-6.76845703 8.95410156 -6.76845703 8.95410156 -7.86328125 10.0390625 C-8.60964844 10.76867187 -9.35601562 11.49828125 -10.125 12.25 C-10.87910156 12.99507813 -11.63320312 13.74015625 -12.41015625 14.5078125 C-14.26900772 16.3431342 -16.13237005 18.1736191 -18 20 C-20 16.25 -20 16.25 -20 14 C-19.01 14 -18.02 14 -17 14 C-17 13.34 -17 12.68 -17 12 C-15.68 12.33 -14.36 12.66 -13 13 C-12.9175 12.401875 -12.835 11.80375 -12.75 11.1875 C-11.79394921 8.39901853 -10.32024306 7.72147066 -8 6 C-8 5.01 -8 4.02 -8 3 C-7.67 2.67 -7.34 2.34 -7 2 C-6.67 1.34 -6.34 0.68 -6 0 C-2.49056604 -1.24528302 -2.49056604 -1.24528302 0 0 Z " fill="#E38435" transform="translate(264,356)"/>
<path d="M0 0 C7.4538019 11.18070284 5.18392427 33.92094095 5 47 C4.67 47 4.34 47 4 47 C3.90912109 45.66195312 3.90912109 45.66195312 3.81640625 44.296875 C3.73261719 43.12640625 3.64882813 41.9559375 3.5625 40.75 C3.48128906 39.58984375 3.40007812 38.4296875 3.31640625 37.234375 C3.10166332 34.18608937 3.10166332 34.18608937 2.4921875 32.0234375 C1.47342767 27.83520266 1.58860051 23.40922749 1.37890625 19.1171875 C1.31318572 15.90210802 1.31318572 15.90210802 -1 14 C-0.9765625 10.7421875 -0.9765625 10.7421875 -0.625 6.875 C-0.51414062 5.59367188 -0.40328125 4.31234375 -0.2890625 2.9921875 C-0.19367188 2.00476563 -0.09828125 1.01734375 0 0 Z " fill="#E0883E" transform="translate(453,210)"/>
<path d="M0 0 C0.33 0 0.66 0 1 0 C1.144375 1.134375 1.28875 2.26875 1.4375 3.4375 C1.61171478 6.80777201 1.61171478 6.80777201 3 8 C3.07179964 9.51928038 3.08392007 11.04167482 3.0625 12.5625 C3.05347656 13.38878906 3.04445313 14.21507812 3.03515625 15.06640625 C3.01775391 16.02353516 3.01775391 16.02353516 3 17 C3.66 17 4.32 17 5 17 C5.06058594 17.85464844 5.12117188 18.70929688 5.18359375 19.58984375 C5.26738281 20.69457031 5.35117187 21.79929688 5.4375 22.9375 C5.51871094 24.03964844 5.59992188 25.14179688 5.68359375 26.27734375 C5.70418084 28.91109903 5.70418084 28.91109903 7 30 C7.07313567 32.53049402 7.09247527 35.03304837 7.0625 37.5625 C7.05798828 38.27341797 7.05347656 38.98433594 7.04882812 39.71679688 C7.03700864 41.47790013 7.01907263 43.23896036 7 45 C6.34 45 5.68 45 5 45 C4.90203125 43.71609375 4.8040625 42.4321875 4.703125 41.109375 C3.84313168 30.69720671 2.55947722 20.59415059 0.23339844 10.39941406 C0.05969727 9.61663086 -0.11400391 8.83384766 -0.29296875 8.02734375 C-0.4530542 7.34406006 -0.61313965 6.66077637 -0.77807617 5.95678711 C-1.03048836 3.73117246 -0.66147461 2.12508733 0 0 Z " fill="#DC8742" transform="translate(438,197)"/>
<path d="M0 0 C3.79379058 1.49041773 5.68343758 3.69062512 8 7 C8 7.66 8 8.32 8 9 C5 11 5 11 1.9375 10.6875 C-1 10 -1 10 -3 9 C-3 7.35 -3 5.7 -3 4 C-2.34 4 -1.68 4 -1 4 C-0.67 2.68 -0.34 1.36 0 0 Z " fill="#F28022" transform="translate(397,106)"/>
<path d="M0 0 C1.10844919 3.32534757 0.84454356 5.62182575 0 9 C-0.66 9 -1.32 9 -2 9 C-2.88277755 13.51815281 -3.10589503 17.77512694 -3.0625 22.375 C-3.04896484 24.24285156 -3.04896484 24.24285156 -3.03515625 26.1484375 C-3.02355469 27.08945312 -3.01195312 28.03046875 -3 29 C-3.33 28.34 -3.66 27.68 -4 27 C-4.66 27 -5.32 27 -6 27 C-6 30.3 -6 33.6 -6 37 C-9.21613795 32.17579308 -7.93262452 27.55442831 -7 22 C-5.20647899 14.5315335 -2.97936773 7.08119493 0 0 Z " fill="#D48647" transform="translate(177,363)"/>
<path d="M0 0 C3.77545388 1.09068668 6.47043472 1.9083091 9 5 C6 6 6 6 3 5 C2.731875 5.61875 2.46375 6.2375 2.1875 6.875 C1 9 1 9 -2 11 C-4.6875 10.625 -4.6875 10.625 -7 10 C-7 9.01 -7 8.02 -7 7 C-6.1028125 6.938125 -6.1028125 6.938125 -5.1875 6.875 C-2.64899168 6.12260099 -2.64899168 6.12260099 -1.25 2.9375 C-0.8375 1.968125 -0.425 0.99875 0 0 Z " fill="#F47E1F" transform="translate(408,365)"/>
<path d="M0 0 C1.32 0.33 2.64 0.66 4 1 C4.08636719 1.60328125 4.17273438 2.2065625 4.26171875 2.828125 C4.40222656 3.62734375 4.54273437 4.4265625 4.6875 5.25 C4.81511719 6.03890625 4.94273438 6.8278125 5.07421875 7.640625 C6.40706322 11.03741006 7.84282405 12.17216129 11 14 C13.95990461 14.4607586 16.82644026 14.38015516 19.8125 14.25 C20.60076172 14.23195313 21.38902344 14.21390625 22.20117188 14.1953125 C24.13464261 14.14844048 26.06748285 14.0767041 28 14 C28 14.66 28 15.32 28 16 C25.06225537 16.05390357 22.12549768 16.0936255 19.1875 16.125 C18.35412109 16.14175781 17.52074219 16.15851563 16.66210938 16.17578125 C15.85966797 16.18222656 15.05722656 16.18867188 14.23046875 16.1953125 C13.12288208 16.21102295 13.12288208 16.21102295 11.99291992 16.22705078 C10 16 10 16 7 14 C3.85778033 14.31506627 3.85778033 14.31506627 1 15 C0.67 13.68 0.34 12.36 0 11 C0.99 10.67 1.98 10.34 3 10 C2.87625 8.72125 2.7525 7.4425 2.625 6.125 C2.55539063 5.40570313 2.48578125 4.68640625 2.4140625 3.9453125 C2.13625251 1.77331755 2.13625251 1.77331755 0 0 Z " fill="#DD853C" transform="translate(117,279)"/>
<path d="M0 0 C0.33 0.66 0.66 1.32 1 2 C-0.6396875 3.0828125 -0.6396875 3.0828125 -2.3125 4.1875 C-5.45410872 6.41333613 -7.29364433 8.48691479 -9 12 C-9.99 11.67 -10.98 11.34 -12 11 C-12 10.01 -12 9.02 -12 8 C-12.639375 8.33 -13.27875 8.66 -13.9375 9 C-18.01236841 10.33056928 -21.75190425 10.16659199 -26 10 C-26 9.67 -26 9.34 -26 9 C-25.02160156 8.75765625 -24.04320312 8.5153125 -23.03515625 8.265625 C-15.71018361 6.40844488 -8.77117849 4.4421504 -2 1 C-1.34 0.67 -0.68 0.34 0 0 Z " fill="#E58735" transform="translate(172,283)"/>
<path d="M0 0 C0.33 0.99 0.66 1.98 1 3 C-0.9375 2.625 -0.9375 2.625 -3 2 C-3.33 1.34 -3.66 0.68 -4 0 C-5.91595968 -0.08133791 -7.83291932 -0.13934367 -9.75 -0.1875 C-10.81734375 -0.22230469 -11.8846875 -0.25710938 -12.984375 -0.29296875 C-16.35592239 0.03457795 -17.52229007 0.7804993 -20 3 C-20.804375 3.474375 -21.60875 3.94875 -22.4375 4.4375 C-25.15443908 6.09417017 -27.55197845 7.97163929 -30 10 C-27.58452832 4.37628644 -22.72553714 0.56718385 -17.5 -2.4375 C-10.83079943 -3.93807013 -5.8999061 -3.25096867 0 0 Z " fill="#D98842" transform="translate(385,290)"/>
<path d="M0 0 C0.66 0.99 1.32 1.98 2 3 C0.51988629 2.69201674 -0.95907325 2.378482 -2.4375 2.0625 C-3.26121094 1.88847656 -4.08492187 1.71445313 -4.93359375 1.53515625 C-7 1 -7 1 -8 0 C-9.64863957 -0.09942865 -11.30149113 -0.13080182 -12.953125 -0.1328125 C-13.96503906 -0.13410156 -14.97695312 -0.13539063 -16.01953125 -0.13671875 C-17.08558594 -0.13285156 -18.15164062 -0.12898437 -19.25 -0.125 C-20.30058594 -0.12886719 -21.35117188 -0.13273438 -22.43359375 -0.13671875 C-23.45066406 -0.13542969 -24.46773437 -0.13414062 -25.515625 -0.1328125 C-26.44665039 -0.13168457 -27.37767578 -0.13055664 -28.33691406 -0.12939453 C-30.9848715 -0.00073507 -33.41864806 0.41162938 -36 1 C-36 0.34 -36 -0.32 -36 -1 C-24.65810962 -3.64093913 -10.78754323 -5.51868001 0 0 Z " fill="#DB8743" transform="translate(226,182)"/>
<path d="M0 0 C1.33333333 2.66666667 2.66666667 5.33333333 4 8 C2.68 7.67 1.36 7.34 0 7 C-0.12375 7.61875 -0.2475 8.2375 -0.375 8.875 C-1 11 -1 11 -3 13 C-4.32 13 -5.64 13 -7 13 C-7 13.99 -7 14.98 -7 16 C-7.66 16 -8.32 16 -9 16 C-7.56691865 12.04093183 -5.66858051 8.71281819 -3.375 5.1875 C-2.74335938 4.21167969 -2.11171875 3.23585937 -1.4609375 2.23046875 C-0.73777344 1.12638672 -0.73777344 1.12638672 0 0 Z " fill="#E88332" transform="translate(310,136)"/>
<path d="M0 0 C0.64324219 0.06058594 1.28648437 0.12117188 1.94921875 0.18359375 C14.23436038 1.32272956 26.47922604 2.16716121 38.8125 2.5625 C40.08931641 2.60568359 41.36613281 2.64886719 42.68164062 2.69335938 C45.7876865 2.79805755 48.89379246 2.90023438 52 3 C52 3.33 52 3.66 52 4 C35.96608986 4.10778821 20.00072681 4.11586638 4 3 C4 2.34 4 1.68 4 1 C2.68 0.67 1.36 0.34 0 0 Z " fill="#D48D48" transform="translate(212,440)"/>
<path d="M0 0 C1 3 1 3 1 5 C0.01 5 -0.98 5 -2 5 C-2.12375 5.928125 -2.2475 6.85625 -2.375 7.8125 C-3 11 -3 11 -5 14 C-5.66 14 -6.32 14 -7 14 C-7.2475 14.86625 -7.495 15.7325 -7.75 16.625 C-9.07800024 20.21060064 -10.68630848 22.96327987 -13 26 C-13.66 26 -14.32 26 -15 26 C-13.68548454 22.50136058 -12.1445897 19.37030652 -10.21484375 16.171875 C-9.68439453 15.29015625 -9.15394531 14.4084375 -8.60742188 13.5 C-8.05634766 12.5925 -7.50527344 11.685 -6.9375 10.75 C-6.38255859 9.82703125 -5.82761719 8.9040625 -5.25585938 7.953125 C-1.1474084 1.1474084 -1.1474084 1.1474084 0 0 Z " fill="#E1873B" transform="translate(292,165)"/>
<path d="M0 0 C4.54805635 -0.17835515 7.8794254 0.00214565 12 2 C12 2.66 12 3.32 12 4 C13.32 4 14.64 4 16 4 C16 4.66 16 5.32 16 6 C16.70125 6.12375 17.4025 6.2475 18.125 6.375 C21.17656387 7.03838345 24.05340938 7.97211955 27 9 C27 8.34 27 7.68 27 7 C27.66 7.33 28.32 7.66 29 8 C28.67 9.32 28.34 10.64 28 12 C22.06200855 10.1557774 16.36653083 7.7456966 10.625 5.375 C9.60277344 4.95476562 8.58054687 4.53453125 7.52734375 4.1015625 C5.0174955 3.06947537 2.50841219 2.03557134 0 1 C0 0.67 0 0.34 0 0 Z " fill="#E4863B" transform="translate(312,65)"/>
<path d="M0 0 C0.33 0.66 0.66 1.32 1 2 C-0.26342773 4.61376953 -0.26342773 4.61376953 -2.18359375 7.8828125 C-2.51794937 8.45707977 -2.85230499 9.03134705 -3.1967926 9.62301636 C-4.26954635 11.46150925 -5.35333865 13.29321555 -6.4375 15.125 C-7.16544836 16.36805956 -7.89267158 17.61154407 -8.61914062 18.85546875 C-10.40436328 21.90862693 -12.19954443 24.95579415 -14 28 C-15.09658936 24.71023192 -14.79953138 23.28696233 -14 20 C-13.01 20 -12.02 20 -11 20 C-10.855625 19.21625 -10.71125 18.4325 -10.5625 17.625 C-10 15 -10 15 -9 13 C-8.34 13 -7.68 13 -7 13 C-7 11.35 -7 9.7 -7 8 C-6.01 8 -5.02 8 -4 8 C-3.8453125 7.13375 -3.8453125 7.13375 -3.6875 6.25 C-2.90207202 3.67950842 -1.69495803 2.06342716 0 0 Z " fill="#DD873E" transform="translate(240,295)"/>
<path d="M0 0 C0.66 0 1.32 0 2 0 C0.55797524 4.15151338 -1.5010438 7.29978445 -4.125 10.8125 C-5.21167969 12.27623047 -5.21167969 12.27623047 -6.3203125 13.76953125 C-6.87460937 14.50558594 -7.42890625 15.24164063 -8 16 C-8.33 15.34 -8.66 14.68 -9 14 C-10.65 14.66 -12.3 15.32 -14 16 C-13.49396008 13.83125748 -13.00016187 12.00032373 -12 10 C-10.02 10 -8.04 10 -6 10 C-5.67 9.01 -5.34 8.02 -5 7 C-4.34 7 -3.68 7 -3 7 C-3 5.68 -3 4.36 -3 3 C-2.01 3 -1.02 3 0 3 C0 2.01 0 1.02 0 0 Z " fill="#EB842F" transform="translate(423,360)"/>
<path d="M0 0 C0 3.49115604 -0.7434909 4.54677964 -2.58984375 7.44921875 C-3.12673828 8.29677734 -3.66363281 9.14433594 -4.21679688 10.01757812 C-4.78462891 10.89865234 -5.35246094 11.77972656 -5.9375 12.6875 C-6.50146484 13.58017578 -7.06542969 14.47285156 -7.64648438 15.39257812 C-10.73175357 20.22924564 -10.73175357 20.22924564 -12 22 C-12.33 22 -12.66 22 -13 22 C-13.33 20.02 -13.66 18.04 -14 16 C-13.34 15.67 -12.68 15.34 -12 15 C-12 15.66 -12 16.32 -12 17 C-11.34 17 -10.68 17 -10 17 C-10 15.35 -10 13.7 -10 12 C-9.01 12 -8.02 12 -7 12 C-7 10.35 -7 8.7 -7 7 C-6.34 7 -5.68 7 -5 7 C-4.9175 6.401875 -4.835 5.80375 -4.75 5.1875 C-3.79544128 2.4033704 -2.42867729 1.56688858 0 0 Z " fill="#E2893D" transform="translate(320,164)"/>
<path d="M0 0 C4.74316988 2.9342132 8.50197427 6.25265492 12.375 10.25 C12.92027344 10.80429688 13.46554687 11.35859375 14.02734375 11.9296875 C15.35622977 13.28188731 16.67878548 14.6403035 18 16 C17.67 16.66 17.34 17.32 17 18 C16.46375 17.319375 15.9275 16.63875 15.375 15.9375 C13.08837848 13.61740673 13.08837848 13.61740673 9.75 14.25 C8.8425 14.4975 7.935 14.745 7 15 C7 14.34 7 13.68 7 13 C7.66 13 8.32 13 9 13 C8.67 11.68 8.34 10.36 8 9 C6.68 9 5.36 9 4 9 C3.67 7.35 3.34 5.7 3 4 C2.34 4 1.68 4 1 4 C0.67 2.68 0.34 1.36 0 0 Z " fill="#DD8338" transform="translate(386,93)"/>
<path d="M0 0 C2 3.75 2 3.75 2 6 C1.01 6 0.02 6 -1 6 C-1 6.66 -1 7.32 -1 8 C-1.99 8.495 -1.99 8.495 -3 9 C-3 9.99 -3 10.98 -3 12 C-3.66 12 -4.32 12 -5 12 C-5.33 13.65 -5.66 15.3 -6 17 C-6.99 17.33 -7.98 17.66 -9 18 C-9 18.99 -9 19.98 -9 21 C-9.66 21 -10.32 21 -11 21 C-11 21.99 -11 22.98 -11 24 C-11.66 24 -12.32 24 -13 24 C-11.71075644 20.59797567 -10.2347924 17.49435446 -8.3984375 14.35546875 C-7.90859375 13.51435547 -7.41875 12.67324219 -6.9140625 11.80664062 C-6.40617188 10.94232422 -5.89828125 10.07800781 -5.375 9.1875 C-4.859375 8.30384766 -4.34375 7.42019531 -3.8125 6.50976562 C-2.54468886 4.33805211 -1.27377652 2.1682182 0 0 Z " fill="#E1853E" transform="translate(218,287)"/>
<path d="M0 0 C-0.61875 0.226875 -1.2375 0.45375 -1.875 0.6875 C-4.24389129 1.84804335 -4.24389129 1.84804335 -4.9375 4.5625 C-5.288125 5.366875 -5.63875 6.17125 -6 7 C-8.4375 7.9375 -8.4375 7.9375 -11 8 C-11.99 7.34 -12.98 6.68 -14 6 C-15.66821323 6.32550502 -17.33499557 6.65846063 -19 7 C-19.66 6.34 -20.32 5.68 -21 5 C-17.87883314 3.96717589 -14.75255182 2.95080882 -11.625 1.9375 C-10.29082031 1.49567383 -10.29082031 1.49567383 -8.9296875 1.04492188 C-8.07890625 0.77099609 -7.228125 0.49707031 -6.3515625 0.21484375 C-5.56604004 -0.04176025 -4.78051758 -0.29836426 -3.97119141 -0.56274414 C-2 -1 -2 -1 0 0 Z " fill="#E78637" transform="translate(319,432)"/>
<path d="M0 0 C4.64932733 1.37468092 9.29110507 2.76866644 13.91015625 4.2421875 C20.88893694 6.4643608 27.80281239 8.58626672 35 10 C30.67941758 11.30102931 27.41944536 10.72449924 23 10 C22.67 9.67 22.34 9.34 22 9 C19.67182036 8.63239269 17.3381615 8.29758419 15 8 C15 7.34 15 6.68 15 6 C14.195625 6.103125 13.39125 6.20625 12.5625 6.3125 C7.60421026 5.8775623 4.16819862 3.59354581 0 1 C0 0.67 0 0.34 0 0 Z " fill="#DD8844" transform="translate(176,429)"/>
<path d="M0 0 C0.99 0.33 1.98 0.66 3 1 C2.67 2.32 2.34 3.64 2 5 C2.99 5.33 3.98 5.66 5 6 C-4.1268659 6.78982493 -12.29969595 4.4179505 -21 2 C-17.04294544 0.54160103 -13.30168612 1.32093907 -9.25 1.9375 C-8.55261719 2.03740234 -7.85523438 2.13730469 -7.13671875 2.24023438 C-5.42348274 2.48665873 -3.71159275 2.74240955 -2 3 C-1.67 2.34 -1.34 1.68 -1 1 C-0.67 0.67 -0.34 0.34 0 0 Z " fill="#E48736" transform="translate(215,448)"/>
<path d="M0 0 C3.22259833 4.07820623 5.15866456 8.3970881 7.25 13.125 C7.81460937 14.36056641 7.81460937 14.36056641 8.390625 15.62109375 C8.74125 16.40871094 9.091875 17.19632813 9.453125 18.0078125 C9.77442383 18.72598145 10.09572266 19.44415039 10.42675781 20.18408203 C11 22 11 22 10 24 C8 21 8 21 8 18 C7.34 18 6.68 18 6 18 C6 16.35 6 14.7 6 13 C5.34 13 4.68 13 4 13 C4 11.68 4 10.36 4 9 C3.01 9.33 2.02 9.66 1 10 C0.22157062 6.59437148 -0.09978121 3.49234244 0 0 Z " fill="#E28743" transform="translate(433,152)"/>
<path d="M0 0 C7.27527041 8.0278846 7.42647225 15.63830378 7 26 C6.67 26 6.34 26 6 26 C5.96132813 24.77023437 5.96132813 24.77023437 5.921875 23.515625 C5.86515625 22.43796875 5.8084375 21.3603125 5.75 20.25 C5.70359375 19.18265625 5.6571875 18.1153125 5.609375 17.015625 C4.88588323 13.43526829 3.71858369 12.34216441 1 10 C-0.25 7.75 -0.25 7.75 -1 6 C-0.34 6 0.32 6 1 6 C0.67 4.02 0.34 2.04 0 0 Z " fill="#DD873A" transform="translate(306,256)"/>
<path d="M0 0 C3.3 0 6.6 0 10 0 C7.24198852 1.83867432 5.88210065 2.40971705 2.76171875 3.0703125 C1.94123047 3.24433594 1.12074219 3.41835938 0.27539062 3.59765625 C-0.57861328 3.77167969 -1.43261719 3.94570313 -2.3125 4.125 C-3.57610352 4.39763672 -3.57610352 4.39763672 -4.86523438 4.67578125 C-9.31667879 5.60157031 -13.42581758 6.22385885 -18 6 C-18 5.34 -18 4.68 -18 4 C-17.28972656 3.93941406 -16.57945312 3.87882812 -15.84765625 3.81640625 C-14.46900391 3.69072266 -14.46900391 3.69072266 -13.0625 3.5625 C-12.14597656 3.48128906 -11.22945313 3.40007812 -10.28515625 3.31640625 C-8.03840268 3.23955024 -8.03840268 3.23955024 -7 2 C-4.66702567 1.95907063 -2.33294775 1.95758277 0 2 C0 1.34 0 0.68 0 0 Z " fill="#E18C41" transform="translate(296,449)"/>
<path d="M0 0 C2.08573846 0.22906954 4.16863641 0.48409892 6.25 0.75 C7.41015625 0.88921875 8.5703125 1.0284375 9.765625 1.171875 C13.34645095 2.08870483 14.68714518 3.18335502 17 6 C16.67 6.66 16.34 7.32 16 8 C15.566875 7.29875 15.13375 6.5975 14.6875 5.875 C12.19686581 3.71870572 12.19686581 3.71870572 9.4609375 4.1796875 C7.55068115 4.55556004 5.64736622 4.96891935 3.75390625 5.421875 C1.0789883 5.98341806 -1.2770503 6.09883665 -4 6 C-3.34 5.566875 -2.68 5.13375 -2 4.6875 C-1.01 3.8521875 -1.01 3.8521875 0 3 C0 2.01 0 1.02 0 0 Z " fill="#E08A3A" transform="translate(264,259)"/>
<path d="M0 0 C2.97 0 5.94 0 9 0 C6.30611072 4.04083392 3.30622172 4.13944474 -1.1875 5.0625 C-2.68133858 5.38510694 -4.17483343 5.70930989 -5.66796875 6.03515625 C-6.39161621 6.19129395 -7.11526367 6.34743164 -7.86083984 6.50830078 C-10.94676376 7.21761952 -13.96590689 8.09580007 -17 9 C-17 8.34 -17 7.68 -17 7 C-15.28490234 6.49339844 -15.28490234 6.49339844 -13.53515625 5.9765625 C-12.04414843 5.52644693 -10.55326959 5.07590397 -9.0625 4.625 C-7.93038086 4.29242188 -7.93038086 4.29242188 -6.77539062 3.953125 C-4.83152088 3.36037548 -2.91313548 2.68548828 -1 2 C-0.67 1.34 -0.34 0.68 0 0 Z " fill="#D98848" transform="translate(187,204)"/>
<path d="M0 0 C2.3145363 3.47180445 3.44955764 6.99795123 4.6875 10.9375 C4.92533203 11.65357422 5.16316406 12.36964844 5.40820312 13.10742188 C6.58772664 16.83969715 7.18041207 19.26865804 6 23 C2.57142857 14.57142857 2.57142857 14.57142857 3 10 C1.68 10 0.36 10 -1 10 C-1 9.01 -1 8.02 -1 7 C-1.66 6.67 -2.32 6.34 -3 6 C-2.67 5.34 -2.34 4.68 -2 4 C-1.34 4 -0.68 4 0 4 C0 2.68 0 1.36 0 0 Z " fill="#E48B3A" transform="translate(444,176)"/>
<path d="M0 0 C0.12375 0.515625 0.2475 1.03125 0.375 1.5625 C1.18641628 4.72702351 2.0945913 7.86124985 3 11 C-0.28696233 11.79953138 -1.71023192 12.09658936 -5 11 C-3.77472971 6.94718288 -2.30119506 3.55639236 0 0 Z " fill="#EC7F26" transform="translate(422,338)"/>
<path d="M0 0 C0 5.34843228 -3.80167854 9.51117637 -7.0625 13.5625 C-7.701875 14.036875 -8.34125 14.51125 -9 15 C-11.12109375 14.58984375 -11.12109375 14.58984375 -13 14 C-11.2088872 12.04115757 -9.41713468 10.08290714 -7.625 8.125 C-7.11710937 7.56941406 -6.60921875 7.01382813 -6.0859375 6.44140625 C-4.0883974 4.25988219 -2.09183907 2.09183907 0 0 Z " fill="#E2843B" transform="translate(104,101)"/>
<path d="M0 0 C3.3 0 6.6 0 10 0 C10.2295711 3.36704285 10.33943529 5.41370268 8.625 8.375 C8.08875 8.91125 7.5525 9.4475 7 10 C6.34 10 5.68 10 5 10 C4.896875 10.639375 4.79375 11.27875 4.6875 11.9375 C4.460625 12.618125 4.23375 13.29875 4 14 C3.01 14.33 2.02 14.66 1 15 C2.64178265 10.22390502 5.26546702 6.20617096 8 2 C5.36 1.67 2.72 1.34 0 1 C0 0.67 0 0.34 0 0 Z " fill="#DE8740" transform="translate(218,272)"/>
<path d="M0 0 C0.93423645 3.01031744 1.04449911 3.86650268 0 7 C-0.99 7 -1.98 7 -3 7 C-3.33 9.31 -3.66 11.62 -4 14 C-4.99 14 -5.98 14 -7 14 C-7 14.99 -7 15.98 -7 17 C-7.66 17 -8.32 17 -9 17 C-9.33 17.99 -9.66 18.98 -10 20 C-10.33 19.34 -10.66 18.68 -11 18 C-10.10375977 16.12060547 -10.10375977 16.12060547 -8.69140625 13.8671875 C-8.19189453 13.06152344 -7.69238281 12.25585938 -7.17773438 11.42578125 C-6.64470703 10.58402344 -6.11167969 9.74226562 -5.5625 8.875 C-5.03333984 8.02550781 -4.50417969 7.17601562 -3.95898438 6.30078125 C-2.64641442 4.19593934 -1.32653522 2.09605827 0 0 Z " fill="#E3863D" transform="translate(268,204)"/>
<path d="M0 0 C0.66 0.33 1.32 0.66 2 1 C1.34 2.65 0.68 4.3 0 6 C-0.804375 5.896875 -1.60875 5.79375 -2.4375 5.6875 C-7.4158285 6.12419548 -10.798687 8.43719907 -15 11 C-15.99 11.495 -15.99 11.495 -17 12 C-17.66 11.34 -18.32 10.68 -19 10 C-15.88187059 8.29956587 -12.75449747 6.61690705 -9.625 4.9375 C-8.29082031 4.20950195 -8.29082031 4.20950195 -6.9296875 3.46679688 C-6.07890625 3.01240234 -5.228125 2.55800781 -4.3515625 2.08984375 C-3.56604004 1.66566162 -2.78051758 1.24147949 -1.97119141 0.80444336 C-1.32069824 0.53897705 -0.67020508 0.27351074 0 0 Z " fill="#E0873E" transform="translate(348,416)"/>
<path d="M0 0 C2.82898917 2.82898917 3.16826363 5.3390793 3.25 9.1875 C3.21832679 14.01766486 1.92142467 17.59673512 0 22 C-0.66 20.68 -1.32 19.36 -2 18 C-1.34 18 -0.68 18 0 18 C-0.185625 16.865625 -0.37125 15.73125 -0.5625 14.5625 C-0.7790625 12.7990625 -0.7790625 12.7990625 -1 11 C-0.67 10.67 -0.34 10.34 0 10 C0.07205511 8.31391034 0.08386068 6.62499341 0.0625 4.9375 C0.04896484 3.55884766 0.04896484 3.55884766 0.03515625 2.15234375 C0.02355469 1.44207031 0.01195312 0.73179687 0 0 Z " fill="#DE893C" transform="translate(203,265)"/>
<path d="M0 0 C6.93 0 13.86 0 21 0 C21 0.33 21 0.66 21 1 C1.03189066 4.25968109 1.03189066 4.25968109 -8 5 C-8 4.34 -8 3.68 -8 3 C-6.865625 2.87625 -5.73125 2.7525 -4.5625 2.625 C-3.386875 2.41875 -2.21125 2.2125 -1 2 C-0.67 1.34 -0.34 0.68 0 0 Z " fill="#E28A4A" transform="translate(209,56)"/>
<path d="M0 0 C0.33 0 0.66 0 1 0 C0.56901343 8.96452064 -1.69889434 17.37352947 -4 26 C-5.20220203 22.46905698 -4.79532349 19.87101018 -4.0625 16.25 C-3.86785156 15.26515625 -3.67320312 14.2803125 -3.47265625 13.265625 C-3.31667969 12.51796875 -3.16070312 11.7703125 -3 11 C-3.66 10.67 -4.32 10.34 -5 10 C-4.54625 9.649375 -4.0925 9.29875 -3.625 8.9375 C-1.35338666 6.22903794 -0.83201146 3.39204672 0 0 Z " fill="#E28941" transform="translate(454,281)"/>
<path d="M0 0 C4.52615993 3.67832017 8.39424999 7.41086363 12 12 C6.51219512 11.51219512 6.51219512 11.51219512 4.125 9.125 C3 7 3 7 3 4 C1.68 4 0.36 4 -1 4 C-0.67 2.68 -0.34 1.36 0 0 Z " fill="#E28436" transform="translate(103,377)"/>
<path d="M0 0 C3 2 3 2 3.6875 3.6875 C4.57819699 10.2786577 3.8187319 15.97463731 1 22 C0.34 22.33 -0.32 22.66 -1 23 C-1.33 21.35 -1.66 19.7 -2 18 C-1.01 18 -0.02 18 1 18 C1 15.03 1 12.06 1 9 C1.66 9 2.32 9 3 9 C2.01 6.03 1.02 3.06 0 0 Z " fill="#DD893C" transform="translate(228,185)"/>
<path d="M0 0 C-0.33 0.99 -0.66 1.98 -1 3 C1.64 3.66 4.28 4.32 7 5 C2.30227464 6.17443134 -0.38154447 5.14389742 -4.75 3.5625 C-5.44738281 3.31951172 -6.14476562 3.07652344 -6.86328125 2.82617188 C-8.57885098 2.22689752 -10.28989715 1.61470115 -12 1 C-12 0.67 -12 0.34 -12 0 C-7.6835078 -0.76173392 -4.25566547 -1.16063604 0 0 Z " fill="#E2853B" transform="translate(187,443)"/>
<path d="M0 0 C0 3.13604096 -0.45408323 4.23568381 -1.875 6.9375 C-2.22304688 7.60652344 -2.57109375 8.27554687 -2.9296875 8.96484375 C-3.28289062 9.63644531 -3.63609375 10.30804688 -4 11 C-4.3196875 11.72832031 -4.639375 12.45664062 -4.96875 13.20703125 C-6 15 -6 15 -8.625 15.75 C-9.40875 15.8325 -10.1925 15.915 -11 16 C-9.32076975 12.19866558 -6.88537166 9.02917298 -4.375 5.75 C-3.95476562 5.19570313 -3.53453125 4.64140625 -3.1015625 4.0703125 C-2.07061281 2.71133337 -1.03570089 1.35536165 0 0 Z " fill="#E28740" transform="translate(411,357)"/>
<path d="M0 0 C1.32 0.33 2.64 0.66 4 1 C2.55575365 4.23861303 0.74227753 6.61969163 -1.625 9.25 C-2.25664062 9.95640625 -2.88828125 10.6628125 -3.5390625 11.390625 C-4.02117187 11.92171875 -4.50328125 12.4528125 -5 13 C-5.33 12.01 -5.66 11.02 -6 10 C-6.66 9.67 -7.32 9.34 -8 9 C-6.35 8.67 -4.7 8.34 -3 8 C-2.67 6.35 -2.34 4.7 -2 3 C-1.34 3 -0.68 3 0 3 C0 2.01 0 1.02 0 0 Z " fill="#E68534" transform="translate(281,331)"/>
<path d="M0 0 C6.20477864 1.93624298 12.10825719 4.25609141 18 7 C14.59068103 8.13643966 13.99664544 7.86747764 10.8125 6.5625 C10.09707031 6.27503906 9.38164062 5.98757812 8.64453125 5.69140625 C8.10183594 5.46324219 7.55914062 5.23507813 7 5 C7 5.66 7 6.32 7 7 C5.02 6.34 3.04 5.68 1 5 C1.99 4.67 2.98 4.34 4 4 C4 3.34 4 2.68 4 2 C2.68 1.67 1.36 1.34 0 1 C0 0.67 0 0.34 0 0 Z " fill="#E2873D" transform="translate(325,56)"/>
<path d="M0 0 C2 0 2 0 3.5625 1.1875 C5.32681541 3.4120716 5.62403791 5.21788056 6 8 C6.66 8 7.32 8 8 8 C8.99 9.485 8.99 9.485 10 11 C10.66 11 11.32 11 12 11 C12 12.98 12 14.96 12 17 C6.85104502 12.47516078 3.43278366 6.89607799 0 1 C0 0.67 0 0.34 0 0 Z " fill="#DE863E" transform="translate(72,357)"/>
<path d="M0 0 C1.70133647 5.02299339 -0.14070874 9.23181759 -2 14 C-3.20050641 16.17806163 -4.48602919 18.01617618 -6 20 C-7 18 -7 18 -5.8203125 14.375 C-5.26298335 12.91367764 -4.69750804 11.45544267 -4.125 10 C-3.84269531 9.26265625 -3.56039062 8.5253125 -3.26953125 7.765625 C-1.21552579 2.43105159 -1.21552579 2.43105159 0 0 Z " fill="#D88844" transform="translate(59,166)"/>
<path d="M0 0 C2.54469163 0.97913032 3.75136687 1.49378296 4.9765625 3.98828125 C5.19054688 4.75527344 5.40453125 5.52226562 5.625 6.3125 C6.39419534 8.94551482 7.15291722 11.3517096 8.25 13.875 C9 16 9 16 8 19 C6.66042079 16.21128823 5.32941565 13.41856938 4 10.625 C3.6184375 9.8309375 3.236875 9.036875 2.84375 8.21875 C2.4828125 7.45820313 2.121875 6.69765625 1.75 5.9140625 C1.41484375 5.2123291 1.0796875 4.5105957 0.734375 3.78759766 C0 2 0 2 0 0 Z " fill="#DD873E" transform="translate(58,329)"/>
<path d="M0 0 C0.33 0 0.66 0 1 0 C1 4.95 1 9.9 1 15 C1.99 15.33 2.98 15.66 4 16 C4.33 16.99 4.66 17.98 5 19 C2.62910595 18.05164238 1.26873945 17.42230485 -0.12109375 15.23828125 C-1.13735149 12.65021154 -1.23350127 10.71012225 -1.1875 7.9375 C-1.18105469 7.08027344 -1.17460937 6.22304688 -1.16796875 5.33984375 C-1 3 -1 3 0 0 Z " fill="#DA8743" transform="translate(352,304)"/>
<path d="M0 0 C-3.70090521 3.9252025 -7.54959656 6.94580156 -12 10 C-12.33 9.34 -12.66 8.68 -13 8 C-11.6875 6.5 -11.6875 6.5 -10 5 C-9.01 5 -8.02 5 -7 5 C-7 3.68 -7 2.36 -7 1 C-4.53721199 -0.231394 -2.7204945 -0.07159196 0 0 Z " fill="#E4883D" transform="translate(381,410)"/>
<path d="M0 0 C0.33 0 0.66 0 1 0 C1.33 3.63 1.66 7.26 2 11 C1.67 10.34 1.34 9.68 1 9 C0.34 9 -0.32 9 -1 9 C-1 12.3 -1 15.6 -1 19 C-3.41077095 15.38384358 -3.38939188 14.28331067 -3 10 C-2.12671982 6.62298011 -1.0989264 3.30986165 0 0 Z " fill="#E18638" transform="translate(172,381)"/>
<path d="M0 0 C0 0.66 0 1.32 0 2 C1.65 1.34 3.3 0.68 5 0 C3.515 2.475 3.515 2.475 2 5 C1.278125 4.7525 0.55625 4.505 -0.1875 4.25 C-3.1794348 3.68262931 -3.1794348 3.68262931 -5.8125 5.9375 C-6.8953125 6.9584375 -6.8953125 6.9584375 -8 8 C-6.48291727 4.46014029 -4.24676932 0 0 0 Z " fill="#E58634" transform="translate(259,330)"/>
<path d="M0 0 C6.93 0.495 6.93 0.495 14 1 C14 1.66 14 2.32 14 3 C15.98 3 17.96 3 20 3 C20 3.66 20 4.32 20 5 C13.13963599 4.34034961 6.65556077 2.7637236 0 1 C0 0.67 0 0.34 0 0 Z " fill="#DD8B3E" transform="translate(136,264)"/>
<path d="M0 0 C0.66 0.33 1.32 0.66 2 1 C1.01 1.66 0.02 2.32 -1 3 C-1.73343428 6.06556598 -1.73343428 6.06556598 -2 9 C-3.98 9 -5.96 9 -8 9 C-8.33 9.66 -8.66 10.32 -9 11 C-9.66 10.67 -10.32 10.34 -11 10 C-7.50640535 6.40365256 -3.88901869 3.16548033 0 0 Z " fill="#E1863D" transform="translate(228,241)"/>
<path d="M0 0 C0.66 0.33 1.32 0.66 2 1 C0.04594482 2.50587739 -1.91281284 4.00478644 -3.875 5.5 C-4.43058594 5.92925781 -4.98617187 6.35851562 -5.55859375 6.80078125 C-9.7734375 10 -9.7734375 10 -12 10 C-12 9.01 -12 8.02 -12 7 C-11.34 7 -10.68 7 -10 7 C-10 6.34 -10 5.68 -10 5 C-9.01 5 -8.02 5 -7 5 C-7 4.34 -7 3.68 -7 3 C-5.68 3 -4.36 3 -3 3 C-3 2.34 -3 1.68 -3 1 C-2.01 0.67 -1.02 0.34 0 0 Z " fill="#E3893A" transform="translate(142,86)"/>
<path d="M0 0 C0.33 0.66 0.66 1.32 1 2 C0.2884375 3.0828125 0.2884375 3.0828125 -0.4375 4.1875 C-2.36452814 7.65615065 -2.22985328 10.09249429 -2 14 C-2.66 14 -3.32 14 -4 14 C-4.33 12.35 -4.66 10.7 -5 9 C-5.99 9.99 -6.98 10.98 -8 12 C-8.66 11.67 -9.32 11.34 -10 11 C-9.44570313 10.45730469 -8.89140625 9.91460937 -8.3203125 9.35546875 C-7.23363281 8.28232422 -7.23363281 8.28232422 -6.125 7.1875 C-5.40570313 6.47980469 -4.68640625 5.77210938 -3.9453125 5.04296875 C-1.84641063 2.95600806 -1.84641063 2.95600806 0 0 Z " fill="#E2863F" transform="translate(394,378)"/>
<path d="M0 0 C0.33 0.66 0.66 1.32 1 2 C-0.1796875 4.3828125 -0.1796875 4.3828125 -1.875 7.125 C-2.70644531 8.49011719 -2.70644531 8.49011719 -3.5546875 9.8828125 C-4.03164063 10.58148438 -4.50859375 11.28015625 -5 12 C-5.33 12 -5.66 12 -6 12 C-6.625 8.625 -6.625 8.625 -7 5 C-6.34 4.34 -5.68 3.68 -5 3 C-3.68 3 -2.36 3 -1 3 C-0.67 2.01 -0.34 1.02 0 0 Z " fill="#E5853A" transform="translate(433,345)"/>
<path d="M0 0 C0.33 0 0.66 0 1 0 C1 1.65 1 3.3 1 5 C0.01 5.33 -0.98 5.66 -2 6 C-2.33 7.65 -2.66 9.3 -3 11 C-4.32 10.67 -5.64 10.34 -7 10 C-5.85821872 8.33055479 -4.71147095 6.6645052 -3.5625 5 C-2.92441406 4.071875 -2.28632813 3.14375 -1.62890625 2.1875 C-1.09136719 1.465625 -0.55382812 0.74375 0 0 Z " fill="#E38638" transform="translate(269,314)"/>
<path d="M0 0 C6.30367803 0.58367389 11.98660063 2.04071619 18 4 C18 4.33 18 4.66 18 5 C15.36 5 12.72 5 10 5 C10 4.34 10 3.68 10 3 C8.906875 3.061875 7.81375 3.12375 6.6875 3.1875 C3 3 3 3 1.0625 1.5 C0.5365625 0.7575 0.5365625 0.7575 0 0 Z " fill="#DE8540" transform="translate(161,244)"/>
<path d="M0 0 C0 0.66 0 1.32 0 2 C-0.9590625 2.1546875 -0.9590625 2.1546875 -1.9375 2.3125 C-2.618125 2.539375 -3.29875 2.76625 -4 3 C-4.33 3.99 -4.66 4.98 -5 6 C-5.99 6.33 -6.98 6.66 -8 7 C-9.66710346 8.49985609 -9.66710346 8.49985609 -11 10 C-11 9.34 -11 8.68 -11 8 C-11.66 7.67 -12.32 7.34 -13 7 C-11.21190303 5.82786955 -9.41940875 4.66244474 -7.625 3.5 C-6.62726563 2.8503125 -5.62953125 2.200625 -4.6015625 1.53125 C-2 0 -2 0 0 0 Z " fill="#E2873A" transform="translate(149,68)"/>
<path d="M0 0 C0.99 0.99 1.98 1.98 3 3 C2.67 3.66 2.34 4.32 2 5 C-0.50390625 5.4140625 -0.50390625 5.4140625 -3.5625 5.625 C-4.57441406 5.69976562 -5.58632812 5.77453125 -6.62890625 5.8515625 C-7.41136719 5.90054687 -8.19382813 5.94953125 -9 6 C-6.22719294 2.91910327 -3.93673644 1.31224548 0 0 Z " fill="#E98532" transform="translate(214,374)"/>
<path d="M0 0 C4.50884026 2.31883213 6.93906776 5.06451569 10 9 C9.236875 8.835 8.47375 8.67 7.6875 8.5 C4.96403764 7.90854604 4.96403764 7.90854604 2 8 C2 6.02 2 4.04 2 2 C1.34 2 0.68 2 0 2 C0 1.34 0 0.68 0 0 Z " fill="#E0863B" transform="translate(192,254)"/>
<path d="M0 0 C0.33 0.66 0.66 1.32 1 2 C3.97 2 6.94 2 10 2 C9.67 2.99 9.34 3.98 9 5 C5.7 4.67 2.4 4.34 -1 4 C-1.33 3.01 -1.66 2.02 -2 1 C-1.34 0.67 -0.68 0.34 0 0 Z " fill="#F77D1E" transform="translate(268,256)"/>
<path d="M0 0 C2.875 -0.125 2.875 -0.125 6 0 C6.66 0.66 7.32 1.32 8 2 C6.68 3.32 5.36 4.64 4 6 C4 5.01 4 4.02 4 3 C1.69 3.33 -0.62 3.66 -3 4 C-3 3.34 -3 2.68 -3 2 C-2.01 2 -1.02 2 0 2 C0 1.34 0 0.68 0 0 Z " fill="#EB832F" transform="translate(134,230)"/>
<path d="M0 0 C0.99 0.33 1.98 0.66 3 1 C2.67 2.32 2.34 3.64 2 5 C1.34 5 0.68 5 0 5 C0 6.65 0 8.3 0 10 C-0.66 10 -1.32 10 -2 10 C-2.6875 6.6875 -2.6875 6.6875 -3 3 C-1.5625 1.0625 -1.5625 1.0625 0 0 Z " fill="#F57E1D" transform="translate(76,151)"/>
<path d="M0 0 C5.40428606 0.87165904 5.40428606 0.87165904 8 2 C9.65746963 5.24587803 10 7.37737934 10 11 C8.33035479 9.35718838 6.6643536 7.71067239 5 6.0625 C4.071875 5.14597656 3.14375 4.22945313 2.1875 3.28515625 C0 1 0 1 0 0 Z " fill="#DB843E" transform="translate(381,106)"/>
<path d="M0 0 C0 0.99 0 1.98 0 3 C-0.99 3 -1.98 3 -3 3 C-3.28875 3.804375 -3.5775 4.60875 -3.875 5.4375 C-5 8 -5 8 -7 9 C-7 7.35 -7 5.7 -7 4 C-6.34 4 -5.68 4 -5 4 C-5 3.34 -5 2.68 -5 2 C-5.66 1.67 -6.32 1.34 -7 1 C-4.53721199 -0.231394 -2.7204945 -0.07159196 0 0 Z " fill="#E38635" transform="translate(368,92)"/>
<path d="M0 0 C3 1 3 1 5 4 C7.56282742 4.72965366 7.56282742 4.72965366 10 5 C10 6.98 10 8.96 10 11 C5.86062408 7.69984002 2.41337795 4.82675589 0 0 Z " fill="#DE863C" transform="translate(91,383)"/>
<path d="M0 0 C0 0.99 0 1.98 0 3 C-1 4 -2 5 -3 6 C-3.71447643 8.10332891 -3.71447643 8.10332891 -4 10 C-4.5775 10.12375 -5.155 10.2475 -5.75 10.375 C-8.02612206 11.00725613 -9.90760206 11.91863468 -12 13 C-8.19524578 8.43969176 -4.25030379 4.14910608 0 0 Z " fill="#DA8941" transform="translate(242,346)"/>
<path d="M0 0 C-1.45365269 1.17249353 -2.91307419 2.33783816 -4.375 3.5 C-5.18710938 4.1496875 -5.99921875 4.799375 -6.8359375 5.46875 C-9 7 -9 7 -11 7 C-11 6.34 -11 5.68 -11 5 C-11.66 4.67 -12.32 4.34 -13 4 C-10.50907189 2.75453595 -9.58919267 3.2232422 -7 4 C-7 2.68 -7 1.36 -7 0 C-2.25 -1.125 -2.25 -1.125 0 0 Z " fill="#E18739" transform="translate(195,297)"/>
<path d="M0 0 C-0.66 0 -1.32 0 -2 0 C-2 0.66 -2 1.32 -2 2 C-2.95712891 2.09087891 -2.95712891 2.09087891 -3.93359375 2.18359375 C-5.17302734 2.30927734 -5.17302734 2.30927734 -6.4375 2.4375 C-7.67306641 2.55931641 -7.67306641 2.55931641 -8.93359375 2.68359375 C-10.98662025 2.78930815 -10.98662025 2.78930815 -12 4 C-13.99958364 4.04080783 -16.00045254 4.04254356 -18 4 C-15.07089056 2.04726038 -12.91867709 1.24603637 -9.5625 0.3125 C-8.61503906 0.04050781 -7.66757813 -0.23148438 -6.69140625 -0.51171875 C-4.01081763 -0.99803744 -2.53712417 -0.89369149 0 0 Z " fill="#DD873F" transform="translate(249,237)"/>
<path d="M0 0 C-0.0625 1.75 -0.0625 1.75 -1 4 C-2.73378487 5.0595352 -4.47424278 6.11405734 -6.27734375 7.05078125 C-8.19666616 8.10836707 -9.58225015 9.332059 -11 11 C-11.66 10.67 -12.32 10.34 -13 10 C-3.24657534 0 -3.24657534 0 0 0 Z " fill="#DC873F" transform="translate(138,204)"/>
<path d="M0 0 C-0.33 0.99 -0.66 1.98 -1 3 C-2.8125 3.6953125 -2.8125 3.6953125 -5 4.125 C-7.77345082 4.53607145 -7.77345082 4.53607145 -10 6 C-11.99958364 6.04080783 -14.00045254 6.04254356 -16 6 C-13.31998165 4.2133211 -10.96871256 3.0677863 -8 1.875 C-7.13375 1.52179687 -6.2675 1.16859375 -5.375 0.8046875 C-3 0 -3 0 0 0 Z " fill="#DE883C" transform="translate(183,53)"/>
<path d="M0 0 C2.97 0.99 5.94 1.98 9 3 C9 3.66 9 4.32 9 5 C9.66 5 10.32 5 11 5 C11 5.66 11 6.32 11 7 C11.99 7 12.98 7 14 7 C14.33 7.99 14.66 8.98 15 10 C11.13518578 8.61423779 8.03192572 6.81080359 4.6875 4.4375 C3.80449219 3.81746094 2.92148438 3.19742187 2.01171875 2.55859375 C1.34785156 2.04425781 0.68398437 1.52992188 0 1 C0 0.67 0 0.34 0 0 Z " fill="#D88541" transform="translate(126,416)"/>
<path d="M0 0 C0.33 0 0.66 0 1 0 C1.26618595 6.95041086 0.6120509 13.23514355 -1 20 C-1.33 20 -1.66 20 -2 20 C-2.23668569 12.96517526 -1.7879537 6.8165735 0 0 Z " fill="#E2853E" transform="translate(48,197)"/>
<path d="M0 0 C0.33 0.66 0.66 1.32 1 2 C-0.21484375 4.6015625 -0.21484375 4.6015625 -1.9375 7.625 C-2.50339844 8.62789063 -3.06929688 9.63078125 -3.65234375 10.6640625 C-4.09707031 11.43492187 -4.54179687 12.20578125 -5 13 C-5.33 13 -5.66 13 -6 13 C-6.33 11.02 -6.66 9.04 -7 7 C-6.360625 6.7525 -5.72125 6.505 -5.0625 6.25 C-2.80939427 5.19851273 -2.80939427 5.19851273 -2.375 2.9375 C-2.189375 1.9784375 -2.189375 1.9784375 -2 1 C-1.34 0.67 -0.68 0.34 0 0 Z " fill="#DF873C" transform="translate(305,299)"/>
<path d="M0 0 C1.32 0.33 2.64 0.66 4 1 C2.91343356 5.93133998 1.8990762 9.78316189 -1 14 C-2.24546405 11.50907189 -1.7767578 10.58919267 -1 8 C-0.34 8 0.32 8 1 8 C0.67 5.36 0.34 2.72 0 0 Z " fill="#E4873F" transform="translate(384,299)"/>
<path d="M0 0 C2.97 0.99 5.94 1.98 9 3 C5.66203244 3.83449189 2.39305036 4.46019653 -1 5 C-0.67 3.35 -0.34 1.7 0 0 Z " fill="#E48434" transform="translate(166,425)"/>
<path d="M0 0 C2.64 0.66 5.28 1.32 8 2 C8.12375 2.763125 8.2475 3.52625 8.375 4.3125 C8.88102792 7.20267136 8.88102792 7.20267136 11 10 C7.81326038 8.59698853 5.67778594 6.92234929 3.25 4.4375 C2.63640625 3.81746094 2.0228125 3.19742187 1.390625 2.55859375 C0 1 0 1 0 0 Z " fill="#DA853E" transform="translate(101,394)"/>
<path d="M0 0 C-1.28716647 1.00578589 -2.57988658 2.00446798 -3.875 3 C-4.95394531 3.8353125 -4.95394531 3.8353125 -6.0546875 4.6875 C-8 6 -8 6 -10 6 C-10 4.68 -10 3.36 -10 2 C-8.68 2 -7.36 2 -6 2 C-6 1.34 -6 0.68 -6 0 C-3 -1 -3 -1 0 0 Z " fill="#E0883A" transform="translate(224,394)"/>
<path d="M0 0 C2.50298434 2.93828597 3.46930939 5.17902761 4 9 C1.03 8.505 1.03 8.505 -2 8 C-2 7.01 -2 6.02 -2 5 C-1.34 5 -0.68 5 0 5 C0 3.35 0 1.7 0 0 Z " fill="#E98931" transform="translate(68,319)"/>
<path d="M0 0 C1.1351555 3.4054665 0.84899821 4.31723087 -0.25 7.625 C-0.62898438 8.81996094 -0.62898438 8.81996094 -1.015625 10.0390625 C-2 12 -2 12 -5 13 C-4.54554036 11.58208592 -4.08625056 10.16571954 -3.625 8.75 C-3.24214844 7.56664062 -3.24214844 7.56664062 -2.8515625 6.359375 C-2.04826333 4.13372042 -1.10288338 2.09068328 0 0 Z " fill="#DE8740" transform="translate(65,153)"/>
<path d="M0 0 C0.66 0 1.32 0 2 0 C0.44298069 4.67105792 -2.08447373 8.08705685 -5 12 C-5.33 11.34 -5.66 10.68 -6 10 C-5.67 9.01 -5.34 8.02 -5 7 C-4.34 7 -3.68 7 -3 7 C-3 5.68 -3 4.36 -3 3 C-2.01 3 -1.02 3 0 3 C0 2.01 0 1.02 0 0 Z " fill="#E38F3A" transform="translate(423,360)"/>
<path d="M0 0 C0 3 0 3 -0.9375 4.8125 C-2.24430347 7.50297774 -2.59786703 10.05102485 -3 13 C-4.48400777 10.64304648 -5.01570001 9.31400019 -4.875 6.5 C-3.8281942 3.50912627 -2.36678851 2.06139645 0 0 Z " fill="#E0863F" transform="translate(216,252)"/>
<path d="M0 0 C1.125 3.75 1.125 3.75 0 6 C-0.66 6 -1.32 6 -2 6 C-1.67 7.32 -1.34 8.64 -1 10 C-1.99 10 -2.98 10 -4 10 C-4.33 9.34 -4.66 8.68 -5 8 C-4.00390625 6.0546875 -4.00390625 6.0546875 -2.5625 3.875 C-2.08941406 3.15054688 -1.61632812 2.42609375 -1.12890625 1.6796875 C-0.75636719 1.12539062 -0.38382813 0.57109375 0 0 Z " fill="#E58A34" transform="translate(256,224)"/>
<path d="M0 0 C1.32 0 2.64 0 4 0 C2.52307692 4.67692308 2.52307692 4.67692308 -0.125 6.3125 C-1.053125 6.6528125 -1.053125 6.6528125 -2 7 C-2.125 4.625 -2.125 4.625 -2 2 C-1.34 1.34 -0.68 0.68 0 0 Z " fill="#E98A30" transform="translate(277,228)"/>
<path d="M0 0 C2.97 0 5.94 0 9 0 C8.01 1.485 8.01 1.485 7 3 C5.0546875 3.29296875 5.0546875 3.29296875 2.875 3.1875 C1.59625 3.125625 0.3175 3.06375 -1 3 C-0.67 2.01 -0.34 1.02 0 0 Z " fill="#E38536" transform="translate(187,204)"/>
<path d="M0 0 C1.41377341 2.63904371 2.37240135 5.07120629 3 8 C1.35 8.66 -0.3 9.32 -2 10 C-1.54177532 6.53058454 -1.10868317 3.32604951 0 0 Z " fill="#E48539" transform="translate(51,187)"/>
<path d="M0 0 C0.33 0.66 0.66 1.32 1 2 C-0.21484375 4.6015625 -0.21484375 4.6015625 -1.9375 7.625 C-2.78634766 9.12933594 -2.78634766 9.12933594 -3.65234375 10.6640625 C-4.09707031 11.43492187 -4.54179687 12.20578125 -5 13 C-6.33332095 10.3333581 -5.67102033 8.83319697 -5 6 C-4.34 6 -3.68 6 -3 6 C-3 4.68 -3 3.36 -3 2 C-2.01 1.34 -1.02 0.68 0 0 Z " fill="#E08443" transform="translate(212,344)"/>
<path d="M0 0 C2.64 0 5.28 0 8 0 C4.16295224 2.55803184 0.24287209 4.34505724 -4.4375 3.625 C-4.953125 3.41875 -5.46875 3.2125 -6 3 C-5 2 -5 2 -2.4375 1.9375 C-1.2309375 1.9684375 -1.2309375 1.9684375 0 2 C0 1.34 0 0.68 0 0 Z " fill="#E1863B" transform="translate(151,315)"/>
<path d="M0 0 C2.50298434 2.93828597 3.46930939 5.17902761 4 9 C3.01 9.33 2.02 9.66 1 10 C0.22157062 6.59437148 -0.09978121 3.49234244 0 0 Z " fill="#E68735" transform="translate(433,152)"/>
<path d="M0 0 C1.31611677 0.95336021 2.62778961 1.91285774 3.9375 2.875 C4.66839844 3.40867187 5.39929688 3.94234375 6.15234375 4.4921875 C8 6 8 6 9 8 C6.03 7.505 6.03 7.505 3 7 C3 6.34 3 5.68 3 5 C2.34 5 1.68 5 1 5 C0.67 3.35 0.34 1.7 0 0 Z " fill="#E1863C" transform="translate(377,85)"/>
<path d="M0 0 C1.46726798 3.81489674 0.43336419 6.29011622 -1 10 C-1.99 10 -2.98 10 -4 10 C-2.8905928 6.51329166 -1.73662334 3.22515763 0 0 Z " fill="#E0853B" transform="translate(187,341)"/>
<path d="M0 0 C0.66 0 1.32 0 2 0 C1.54917531 1.46067199 1.08906463 2.91848032 0.625 4.375 C0.36976563 5.18710937 0.11453125 5.99921875 -0.1484375 6.8359375 C-1 9 -1 9 -3 11 C-3.33 8.69 -3.66 6.38 -4 4 C-3.01 4 -2.02 4 -1 4 C-0.67 2.68 -0.34 1.36 0 0 Z " fill="#E0873E" transform="translate(439,330)"/>
<path d="M0 0 C2.04563599 1.26220093 4.04402816 2.60287726 6 4 C7.3191582 4.69429379 8.64649406 5.37530495 10 6 C8 7 8 7 5.65234375 6.29296875 C4.30849609 5.74576172 4.30849609 5.74576172 2.9375 5.1875 C2.03902344 4.83042969 1.14054687 4.47335937 0.21484375 4.10546875 C-2 3 -2 3 -3 1 C-2.01 0.67 -1.02 0.34 0 0 Z " fill="#D98742" transform="translate(125,257)"/>
<path d="M0 0 C0.33 0 0.66 0 1 0 C0.25 6.75 0.25 6.75 -2 9 C-2.99 8.67 -3.98 8.34 -5 8 C-4.19185349 6.66402348 -3.37836819 5.331275 -2.5625 4 C-2.11003906 3.2575 -1.65757813 2.515 -1.19140625 1.75 C-0.79824219 1.1725 -0.40507813 0.595 0 0 Z " fill="#DF873A" transform="translate(81,127)"/>
<path d="M0 0 C-3.27301919 2.96909598 -5.38065762 3.34354794 -9.75 3.1875 C-10.73484375 3.16042969 -11.7196875 3.13335937 -12.734375 3.10546875 C-13.48203125 3.07066406 -14.2296875 3.03585937 -15 3 C-15 2.67 -15 2.34 -15 2 C-13.43883181 1.66048381 -11.87598662 1.32867456 -10.3125 1 C-9.44238281 0.814375 -8.57226562 0.62875 -7.67578125 0.4375 C-5.06287036 0.01027953 -2.64186962 -0.07616201 0 0 Z " fill="#E18B40" transform="translate(297,438)"/>
<path d="M0 0 C0 3 0 3 -1.3125 4.38671875 C-2.875 5.59114583 -4.4375 6.79557292 -6 8 C-5.8125 5.125 -5.8125 5.125 -5 2 C-2.4375 0.625 -2.4375 0.625 0 0 Z " fill="#E0873D" transform="translate(273,345)"/>
<path d="M0 0 C0.87656469 2.45438114 1.15930238 3.59561703 0.1875 6.0625 C-0.83619809 7.73274425 -1.91334336 9.37001504 -3 11 C-3.66 11 -4.32 11 -5 11 C-3.77472971 6.94718288 -2.30119506 3.55639236 0 0 Z " fill="#E28C3A" transform="translate(422,338)"/>
<path d="M0 0 C0.66 0 1.32 0 2 0 C0.55049545 3.7910119 -1.15172566 7.3874638 -3 11 C-3.33 11 -3.66 11 -4 11 C-4 9.02 -4 7.04 -4 5 C-3.34 5 -2.68 5 -2 5 C-2 4.34 -2 3.68 -2 3 C-1.34 3 -0.68 3 0 3 C0 2.01 0 1.02 0 0 Z " fill="#E0873E" transform="translate(217,333)"/>
<path d="M0 0 C0.33 0.66 0.66 1.32 1 2 C-1.64 3.65 -4.28 5.3 -7 7 C-7.99 6.34 -8.98 5.68 -10 5 C-6.7 3.35 -3.4 1.7 0 0 Z " fill="#E08739" transform="translate(172,283)"/>
<path d="M0 0 C0.33 0.99 0.66 1.98 1 3 C0.01 3.33 -0.98 3.66 -2 4 C-2.73323796 6.01508358 -2.73323796 6.01508358 -3 8 C-4.32 7.67 -5.64 7.34 -7 7 C-4.69 4.69 -2.38 2.38 0 0 Z " fill="#DD873E" transform="translate(112,93)"/>
<path d="M0 0 C0.66 0 1.32 0 2 0 C0.6302836 3.99500618 -1.25722422 6.80009492 -4 10 C-4.33 8.68 -4.66 7.36 -5 6 C-4.01 6 -3.02 6 -2 6 C-1.855625 5.195625 -1.71125 4.39125 -1.5625 3.5625 C-1 1 -1 1 0 0 Z " fill="#DF873D" transform="translate(285,218)"/>
<path d="M0 0 C2.87529818 1.28892677 5.05008298 2.49296383 7 5 C7.6875 7.6875 7.6875 7.6875 8 10 C4.71211176 6.88983545 2.16264012 3.98381075 0 0 Z " fill="#DD8A43" transform="translate(398,124)"/>
<path d="M0 0 C0.33 0.66 0.66 1.32 1 2 C2.32 2.33 3.64 2.66 5 3 C0.05 5.475 0.05 5.475 -5 8 C-5 6 -5 6 -3.0625 4 C-2.381875 3.34 -1.70125 2.68 -1 2 C-0.67 1.34 -0.34 0.68 0 0 Z " fill="#E18A3D" transform="translate(155,75)"/>
<path d="M0 0 C0.66 0.33 1.32 0.66 2 1 C0.88121617 2.17262904 -0.24523051 3.33795138 -1.375 4.5 C-2.00148437 5.1496875 -2.62796875 5.799375 -3.2734375 6.46875 C-5 8 -5 8 -7 8 C-7 7.01 -7 6.02 -7 5 C-6.01 5 -5.02 5 -4 5 C-4 4.34 -4 3.68 -4 3 C-2 1.375 -2 1.375 0 0 Z " fill="#DA8C43" transform="translate(241,377)"/>
<path d="M0 0 C0.99 0 1.98 0 3 0 C5.1519437 3.22791555 5.20086443 4.28400809 5 8 C2.27573689 5.64722731 1.1858237 3.37503669 0 0 Z " fill="#E0893F" transform="translate(67,348)"/>
<path d="M0 0 C0.66 0 1.32 0 2 0 C1.39009109 3.55780196 0.4216319 6.6828589 -1 10 C-1.33 10 -1.66 10 -2 10 C-1.85950482 8.52031676 -1.71245174 7.04125484 -1.5625 5.5625 C-1.48128906 4.73878906 -1.40007812 3.91507812 -1.31640625 3.06640625 C-1 1 -1 1 0 0 Z " fill="#E48E3F" transform="translate(443,320)"/>
<path d="M0 0 C0.33 0 0.66 0 1 0 C1.25 2.75 1.25 2.75 1 6 C-1 8.375 -1 8.375 -3 10 C-3.33 8.02 -3.66 6.04 -4 4 C-3.34 3.67 -2.68 3.34 -2 3 C-2 3.66 -2 4.32 -2 5 C-1.34 5 -0.68 5 0 5 C0 3.35 0 1.7 0 0 Z " fill="#E98435" transform="translate(310,176)"/>
<path d="M0 0 C-1.2491742 3.45925163 -2.67527795 6.14693203 -5 9 C-5 8.34 -5 7.68 -5 7 C-5.66 6.67 -6.32 6.34 -7 6 C-6.01 6 -5.02 6 -4 6 C-4 4.35 -4 2.7 -4 1 C-2 0 -2 0 0 0 Z " fill="#E5863D" transform="translate(80,155)"/>
<path d="M0 0 C0.66 1.32 1.32 2.64 2 4 C0.68 5.32 -0.64 6.64 -2 8 C-2.125 5.125 -2.125 5.125 -2 2 C-1.34 1.34 -0.68 0.68 0 0 Z " fill="#EA8430" transform="translate(84,124)"/>
<path d="M0 0 C1.32 0 2.64 0 4 0 C4.33 1.32 4.66 2.64 5 4 C4.01 4.66 3.02 5.32 2 6 C2 5.34 2 4.68 2 4 C1.34 4 0.68 4 0 4 C0 2.68 0 1.36 0 0 Z " fill="#E98634" transform="translate(96,122)"/>
<path d="M0 0 C0 3.57575896 -1.08840607 5.05295935 -3 8 C-3.33 7.34 -3.66 6.68 -4 6 C-4.66 6 -5.32 6 -6 6 C-5.67 5.34 -5.34 4.68 -5 4 C-4.34 4.33 -3.68 4.66 -3 5 C-3 3.68 -3 2.36 -3 1 C-2.01 0.67 -1.02 0.34 0 0 Z " fill="#E68737" transform="translate(353,112)"/>
<path d="M0 0 C3.91402949 1.26941497 5.79072873 2.51167694 8 6 C6.35 6 4.7 6 3 6 C2.67 5.01 2.34 4.02 2 3 C1.34 2.67 0.68 2.34 0 2 C0 1.34 0 0.68 0 0 Z " fill="#E08D3C" transform="translate(368,79)"/>
<path d="M0 0 C2.97 0.495 2.97 0.495 6 1 C3.37801226 3.15377564 1.35595828 4.40072174 -2 5 C-1.34 3.35 -0.68 1.7 0 0 Z " fill="#E38939" transform="translate(162,72)"/>
<path d="M0 0 C1.98 0 3.96 0 6 0 C4.35830472 2.02054804 2.69088222 4.02043058 1 6 C0.67 6 0.34 6 0 6 C0 4.02 0 2.04 0 0 Z " fill="#E4863D" transform="translate(404,382)"/>
<path d="M0 0 C0.33 0 0.66 0 1 0 C1.25532751 3.06393013 1.21861333 4.63233212 -0.375 7.3125 C-1.179375 8.1478125 -1.179375 8.1478125 -2 9 C-2.66 9 -3.32 9 -4 9 C-2.80100302 5.9168649 -1.52299523 2.93720508 0 0 Z " fill="#DD8640" transform="translate(276,302)"/>
<path d="M0 0 C0.99 0.33 1.98 0.66 3 1 C3 1.66 3 2.32 3 3 C-1.455 3.495 -1.455 3.495 -6 4 C-5.34 3.01 -4.68 2.02 -4 1 C-2.68 1.33 -1.36 1.66 0 2 C0 1.34 0 0.68 0 0 Z " fill="#E48739" transform="translate(332,245)"/>
<path d="M0 0 C1.33333333 2.66666667 2.66666667 5.33333333 4 8 C2 7 0 6 -2 5 C-1.34 3.35 -0.68 1.7 0 0 Z " fill="#E78436" transform="translate(310,136)"/>
<path d="M0 0 C2.96404505 2.80804268 5.44499019 5.18315774 7 9 C5.35 8.67 3.7 8.34 2 8 C1.855625 7.236875 1.71125 6.47375 1.5625 5.6875 C1.0367406 2.91827092 1.0367406 2.91827092 0 0 Z " fill="#E2883C" transform="translate(410,118)"/>
<path d="M0 0 C0.33 0.99 0.66 1.98 1 3 C-0.25 4.5625 -0.25 4.5625 -2 6 C-4.1875 5.6875 -4.1875 5.6875 -6 5 C-4.02 3.35 -2.04 1.7 0 0 Z " fill="#E08840" transform="translate(370,401)"/>
<path d="M0 0 C0.66 0.33 1.32 0.66 2 1 C0.68 3.31 -0.64 5.62 -2 8 C-2.33 8 -2.66 8 -3 8 C-3 5.69 -3 3.38 -3 1 C-2.01 0.67 -1.02 0.34 0 0 Z " fill="#DD8638" transform="translate(222,325)"/>
<path d="M0 0 C0.7425 0.45375 1.485 0.9075 2.25 1.375 C4.44874794 2.67426015 6.71569364 3.85784682 9 5 C6.03 5 3.06 5 0 5 C0 3.35 0 1.7 0 0 Z " fill="#DC863E" transform="translate(137,236)"/>
<path d="M0 0 C0.33 0.66 0.66 1.32 1 2 C0.14883791 4.43189168 -0.84845643 6.69691285 -2 9 C-2.99 9 -3.98 9 -5 9 C-3.7508258 5.54074837 -2.32472205 2.85306797 0 0 Z " fill="#DC8A42" transform="translate(325,113)"/>
<path d="M0 0 C0.66 0.33 1.32 0.66 2 1 C1.67 2.32 1.34 3.64 1 5 C-1.31 5.33 -3.62 5.66 -6 6 C-4 4 -2 2 0 0 Z " fill="#DD873B" transform="translate(119,87)"/>
<path d="M0 0 C6.75 1.875 6.75 1.875 9 3 C9 3.66 9 4.32 9 5 C5.22454612 3.90931332 2.52956528 3.0916909 0 0 Z " fill="#DF8644" transform="translate(148,430)"/>
<path d="M0 0 C1.98 1.65 3.96 3.3 6 5 C2.25 6.125 2.25 6.125 0 5 C0 3.35 0 1.7 0 0 Z " fill="#E38439" transform="translate(115,389)"/>
<path d="M0 0 C0.33 1.32 0.66 2.64 1 4 C0.34 4 -0.32 4 -1 4 C-1.33 5.32 -1.66 6.64 -2 8 C-2.66 8 -3.32 8 -4 8 C-2.87548273 5.0280615 -1.77706209 2.66559313 0 0 Z " fill="#DC8847" transform="translate(416,349)"/>
<path d="M0 0 C0.93423645 3.01031744 1.04449911 3.86650268 0 7 C-0.99 7 -1.98 7 -3 7 C-1.125 1.125 -1.125 1.125 0 0 Z " fill="#DF883E" transform="translate(196,325)"/>
<path d="M0 0 C2.97 0.495 2.97 0.495 6 1 C4.68 2.32 3.36 3.64 2 5 C1.01 4.67 0.02 4.34 -1 4 C-0.34 4 0.32 4 1 4 C0.67 2.68 0.34 1.36 0 0 Z " fill="#E58539" transform="translate(370,318)"/>
<path d="M0 0 C1.32 0 2.64 0 4 0 C2.8141763 3.37503669 1.72426311 5.64722731 -1 8 C-0.67 5.36 -0.34 2.72 0 0 Z " fill="#DC8C46" transform="translate(322,156)"/>
<path d="M0 0 C0.66 0.33 1.32 0.66 2 1 C-0.475 4.465 -0.475 4.465 -3 8 C-4 6 -4 6 -3.75 4 C-3 2 -3 2 0 0 Z " fill="#DF8C43" transform="translate(96,128)"/>
</svg>
