<?xml version="1.0" encoding="UTF-8"?>
<svg version="1.1" xmlns="http://www.w3.org/2000/svg" width="500" height="500">
<path d="M0 0 C165 0 330 0 500 0 C500 165 500 330 500 500 C335 500 170 500 0 500 C0 335 0 170 0 0 Z " fill="#2D2D2C" transform="translate(0,0)"/>
<path d="M0 0 C165 0 330 0 500 0 C500 165 500 330 500 500 C335 500 170 500 0 500 C0 335 0 170 0 0 Z M194.25 49.3125 C192.65671875 49.77088257 192.65671875 49.77088257 191.03125 50.23852539 C182.77421727 52.6646581 174.86009597 55.47470779 167 59 C166.33629395 59.28955566 165.67258789 59.57911133 164.98876953 59.87744141 C142.39941916 69.76322284 122.6571929 83.85934233 105 101 C104.10539062 101.85464844 103.21078125 102.70929688 102.2890625 103.58984375 C73.33152743 131.79002791 55.17092725 168.99589426 46 208 C45.83016602 208.70825928 45.66033203 209.41651855 45.48535156 210.14624023 C38.79620346 239.64237699 41.12745733 276.31572655 50 305 C50.26409668 305.8780127 50.52819336 306.75602539 50.80029297 307.66064453 C63.88020845 350.68915587 88.85851413 388.01101583 125 415 C125.92425781 415.70769531 126.84851563 416.41539062 127.80078125 417.14453125 C148.43628544 432.64408773 171.90200264 443.08411842 196.625 450.125 C197.45249756 450.36702148 198.27999512 450.60904297 199.13256836 450.85839844 C214.77792893 455.15222163 230.61527852 456.50449072 246.78173828 456.39111328 C249.49953342 456.37500277 252.2158424 456.39109631 254.93359375 456.41015625 C270.48283704 456.42897136 285.85741378 454.71998148 300.9375 450.8125 C301.74485596 450.6060083 302.55221191 450.3995166 303.3840332 450.18676758 C355.54236767 436.23271966 401.37947254 400.99533628 428.75463867 354.57348633 C440.827404 333.54630043 449.49375814 310.86518703 454 287 C454.22212158 285.86473877 454.22212158 285.86473877 454.44873047 284.70654297 C464.20138344 233.15080699 451.70990963 177.0433197 422.23828125 133.77148438 C416.68466667 125.82648685 410.64788995 118.38543127 404.0703125 111.2578125 C402.21571134 109.23524746 400.44964839 107.16516016 398.6875 105.0625 C368.48558183 70.55594061 319.38514257 47.09506362 274 43 C270.46211492 42.84494173 266.92769784 42.81273167 263.38671875 42.796875 C262.37768997 42.79117493 261.36866119 42.78547485 260.32905579 42.77960205 C258.19683872 42.77019169 256.06460737 42.76363392 253.93237305 42.75976562 C250.73524106 42.75014368 247.53877612 42.71911658 244.34179688 42.6875 C227.036592 42.5963687 210.88952917 44.43591841 194.25 49.3125 Z " fill="#2D2D2C" transform="translate(0,0)"/>
<path d="M0 0 C3.05602796 0.00849976 6.1101708 -0.02037455 9.16601562 -0.05200195 C27.96473571 -0.11749385 46.46309056 2.43285466 64.32226562 8.44604492 C65.0007959 8.67098633 65.67932617 8.89592773 66.37841797 9.12768555 C93.80062979 18.33115535 118.88330761 31.92276154 140.32226562 51.44604492 C141.44183127 52.44499621 142.56162964 53.44368672 143.68164062 54.44213867 C183.40614044 90.16626568 206.97701926 141.31655394 210.32226562 194.44604492 C212.95766806 246.18278 197.22842303 298.74281091 163.32226562 338.44604492 C162.68417969 339.19499023 162.04609375 339.94393555 161.38867188 340.71557617 C125.74834954 381.34150125 76.42378274 409.96948696 21.64126587 413.62493896 C16.27418748 413.8508809 10.9116061 413.87482626 5.54052734 413.8371582 C2.82273221 413.82104769 0.10642323 413.83714124 -2.61132812 413.85620117 C-18.73219407 413.87670864 -34.54069675 412.10916513 -50.05273438 407.57104492 C-50.97787842 407.30694824 -51.90302246 407.04285156 -52.85620117 406.77075195 C-55.46926522 406.01411637 -58.07436688 405.23529872 -60.67773438 404.44604492 C-62.47017578 403.91237305 -62.47017578 403.91237305 -64.29882812 403.36791992 C-90.05119025 394.92038865 -113.60275049 380.50463456 -133.67773438 362.44604492 C-135.05225468 361.27881314 -136.4271988 360.11208009 -137.80273438 358.94604492 C-176.27975594 324.82491259 -199.53513387 274.94692514 -203.47924805 223.88696289 C-204.68681581 202.95281764 -204.75307984 181.88647736 -199.67773438 161.44604492 C-199.46342773 160.5649707 -199.24912109 159.68389648 -199.02832031 158.77612305 C-189.5469093 120.7676719 -170.40902891 88.77664768 -143.67773438 60.44604492 C-142.8759375 59.59010742 -142.07414062 58.73416992 -141.24804688 57.85229492 C-117.15466962 32.8899762 -85.18091699 16.12368018 -52.11523438 6.63354492 C-51.16003906 6.35559082 -50.20484375 6.07763672 -49.22070312 5.79125977 C-32.92537413 1.31712448 -16.85033611 -0.07105886 0 0 Z M-138.57226562 72.43432617 C-140.31561559 74.40631219 -141.9981096 76.41954111 -143.67773438 78.44604492 C-144.43570313 79.31616211 -145.19367188 80.1862793 -145.97460938 81.08276367 C-165.78104944 104.11851462 -179.63025733 131.93885132 -186.67773438 161.44604492 C-187.09152344 163.02385742 -187.09152344 163.02385742 -187.51367188 164.63354492 C-193.34606124 187.73211667 -193.55978211 213.00726616 -189.67773438 236.44604492 C-189.48308594 237.64229492 -189.2884375 238.83854492 -189.08789062 240.07104492 C-179.59898136 292.17582478 -150.68291667 337.11725204 -107.50585938 367.69213867 C-60.51151316 399.22781837 -7.52609442 407.5376349 47.61083984 397.0090332 C51.94998271 396.1160941 56.13673874 394.879647 60.32226562 393.44604492 C61.62744141 393.00349365 61.62744141 393.00349365 62.95898438 392.55200195 C113.28544737 375.20818585 154.37292811 340.76745646 178.15356445 292.9284668 C186.3096072 276.09614306 192.32349138 258.93590537 195.32226562 240.44604492 C195.49814209 239.37201416 195.67401855 238.2979834 195.85522461 237.19140625 C197.37291514 227.02566631 197.76140315 217.02330951 197.75976562 206.75854492 C197.76116547 205.91209412 197.76256531 205.06564331 197.76400757 204.19354248 C197.7428284 188.50585942 196.02290036 173.73230968 192.32226562 158.44604492 C192.13535156 157.6366748 191.9484375 156.82730469 191.75585938 155.9934082 C182.79500939 118.0840345 155.17444983 72.59617063 121.32226562 51.44604492 C117.8283941 52.61066876 117.56799454 53.20984934 115.74804688 56.25854492 C115.25377197 57.07379639 114.75949707 57.88904785 114.25024414 58.72900391 C113.71713623 59.62562744 113.18402832 60.52225098 112.63476562 61.44604492 C111.46473702 63.37555118 110.29277881 65.30388834 109.11914062 67.23120117 C108.50103516 68.24843262 107.88292969 69.26566406 107.24609375 70.3137207 C104.03041306 75.54940385 100.70792676 80.71565744 97.38476562 85.88354492 C96.02401307 88.00328814 94.66333583 90.12307971 93.30273438 92.24291992 C92.3037915 93.79849609 92.3037915 93.79849609 91.28466797 95.38549805 C86.51300052 102.82735213 81.77807392 110.29267113 77.03564453 117.75317383 C75.31448772 120.45826925 73.59029325 123.16140522 71.86523438 125.86401367 C64.56632947 137.30412667 57.33412382 148.78385157 50.15820312 160.30151367 C47.48942067 164.58357719 44.8051499 168.85547199 42.11132812 173.12182617 C41.42482178 174.21188965 40.73831543 175.30195313 40.03100586 176.42504883 C38.7134089 178.51658878 37.39275355 180.60620614 36.06860352 182.69360352 C35.17902954 184.10826904 35.17902954 184.10826904 34.27148438 185.55151367 C33.74901123 186.37804443 33.22653809 187.2045752 32.68823242 188.05615234 C31.31460194 190.45945329 30.2857859 192.85425902 29.32226562 195.44604492 C30.45677542 196.79671021 30.45677542 196.79671021 33.44726562 196.69604492 C40.18067372 196.6235127 46.76523368 194.84624445 53.32226562 193.44604492 C66.09231953 190.7584698 76.30149884 190.43566153 88.32226562 196.44604492 C88.32226562 199.08604492 88.32226562 201.72604492 88.32226562 204.44604492 C81.69315484 206.72950775 75.00736013 208.73182204 68.25976562 210.63354492 C66.81827148 211.0425 66.81827148 211.0425 65.34765625 211.4597168 C63.00637259 212.12366291 60.66457767 212.78573783 58.32226562 213.44604492 C59.35538432 216.1294701 60.35623714 218.50039935 61.88476562 220.94604492 C65.95759743 228.02923067 65.35649492 238.56498539 63.32226562 246.25854492 C55.4182924 269.01463527 40.34996292 289.15582725 24.02539062 306.53198242 C22.01892114 308.69502611 20.08544737 310.87666539 18.16601562 313.11401367 C13.97520973 317.92332157 9.50886985 322.44551619 4.99902344 326.95458984 C3.58306615 328.37272776 2.17528273 329.79901157 0.76757812 331.2253418 C-12.48850395 344.50911764 -37.00961531 368.66009547 -57.55273438 368.75854492 C-63.69005674 368.61263533 -67.88444701 367.00542524 -72.55273438 362.94604492 C-75.98013044 358.91381426 -76.14077815 355.21956008 -76.08007812 350.11401367 C-72.62540803 318.61949702 -52.36502156 288.9025963 -36.48583984 262.46069336 C-33.29669086 257.14343551 -30.12907136 251.81340374 -26.96380615 246.48190308 C-25.8798827 244.65819088 -24.79289308 242.83633307 -23.70556641 241.01464844 C-23.05056152 239.91306396 -22.39555664 238.81147949 -21.72070312 237.67651367 C-21.13313232 236.69062256 -20.54556152 235.70473145 -19.94018555 234.68896484 C-18.59598439 232.72977223 -18.59598439 232.72977223 -18.67773438 231.44604492 C-19.36480469 231.40866211 -20.051875 231.3712793 -20.75976562 231.33276367 C-22.11134766 231.23415039 -22.11134766 231.23415039 -23.49023438 231.13354492 C-24.38355469 231.07553711 -25.276875 231.0175293 -26.19726562 230.95776367 C-29.05986706 230.36721125 -29.96141355 229.77724704 -31.67773438 227.44604492 C-32.44335938 225.54370117 -32.44335938 225.54370117 -32.92773438 223.50854492 C-33.09789062 222.83952148 -33.26804688 222.17049805 -33.44335938 221.48120117 C-33.8621493 217.84470863 -33.08499574 216.00512023 -30.92773438 213.04370117 C-25.00480493 206.37012269 -19.89670246 201.00027162 -10.70507812 200.02416992 C-4.1959946 199.23510315 1.05707228 198.02338501 5.52978516 192.93432617 C10.33863358 186.07927599 14.26217963 178.70876799 18.20458984 171.33422852 C21.21538079 165.7423618 24.54543051 160.34810303 27.87438965 154.94189453 C28.9479684 153.19490132 30.01383231 151.44344148 31.07714844 149.69018555 C38.04417596 138.20385281 45.16200221 126.8127081 52.32226562 115.44604492 C53.12422363 114.17277344 53.12422363 114.17277344 53.94238281 112.8737793 C56.44087064 108.90936592 58.94364511 104.94771556 61.45117188 100.98901367 C63.34466741 97.99817321 65.22687909 95.00070928 67.09960938 91.99682617 C72.79369625 82.88215532 78.62179556 73.85881186 84.55267334 64.89672852 C85.34988856 63.69096922 86.14521539 62.483959 86.9385376 61.27563477 C88.05919938 59.57060208 89.18767934 57.8710082 90.31835938 56.17260742 C90.9698999 55.18856934 91.62144043 54.20453125 92.29272461 53.19067383 C96.38530277 47.65611787 100.00845473 44.79824898 106.32226562 42.44604492 C88.04169105 22.57194525 45.85114933 13.83315444 19.91992188 12.57885742 C18.38745443 12.53174785 16.85488645 12.48786847 15.32226562 12.44604492 C14.31534668 12.41349609 13.30842773 12.38094727 12.27099609 12.34741211 C-44.95820095 10.71535378 -98.6802398 30.56826195 -138.57226562 72.43432617 Z " fill="#F07E24" transform="translate(246.677734375,42.553955078125)"/>
<path d="M0 0 C2.76797381 4.48012256 2.5926993 8.89078198 2 14 C0.21095655 20.6955219 -3.12439085 25.3501602 -9 29 C-15.98113103 32.72195702 -23.003468 35.59629452 -31 34 C-33.6875 32.4375 -33.6875 32.4375 -35 30 C-34.82594075 26.63485445 -34.51178502 24.02357005 -33 21 C-54.77755855 24.43856188 -76.24233685 32.78272633 -91 50 C-91 50.99 -91 51.98 -91 53 C-85.69642152 54.98884193 -80.65494934 56.27613788 -75.0625 57.1875 C-67.43165884 58.50869135 -60.04518673 60.54861334 -52.625 62.75 C-51.53195557 63.06090576 -50.43891113 63.37181152 -49.31274414 63.69213867 C-39.03901324 66.82666936 -30.52247893 71.55834247 -25 81 C-23.00310805 87.40832647 -23.12455419 93.85992027 -25.875 100 C-36.50108107 119.03714806 -60.11504643 127.31186907 -80 133 C-85.7017307 134.29064964 -91.43163495 134.22004703 -97.25 134.25 C-98.72919922 134.2809375 -98.72919922 134.2809375 -100.23828125 134.3125 C-108.00374048 134.35342469 -115.99527972 133.60167917 -122.375 128.75 C-126.48947291 124.43959981 -129.17748825 120.78297203 -129.5 114.6875 C-129.13168607 107.72517854 -126.79569809 101.28214345 -121.75 96.375 C-119.0587066 94.31729403 -117.0721652 93.61056982 -113.6875 93.5 C-110 94 -110 94 -108 96 C-107.42214485 98.25577528 -107.04962025 100.51340296 -106.66015625 102.80859375 C-105.85952605 105.46630701 -105.32384205 106.46051554 -103 108 C-86.77073238 109.89138081 -69.06054524 106.315802 -55.390625 97.26953125 C-53.73771764 95.96026923 -53.73771764 95.96026923 -53 93.1875 C-53 92.465625 -53 91.74375 -53 91 C-58.33412847 88.15712021 -63.25181786 86.16134696 -69.12109375 84.78125 C-70.23738914 84.50432312 -70.23738914 84.50432312 -71.37623596 84.22180176 C-73.72789217 83.63887613 -76.08221185 83.0680586 -78.4375 82.5 C-107.08844821 75.57417573 -107.08844821 75.57417573 -115 65.4375 C-117.69137452 56.1859001 -116.5811456 48.43486597 -112.04223633 39.9621582 C-98.88005456 17.04973576 -69.30035146 4.32299642 -44.85253906 -2.60888672 C-40.93262996 -3.61229927 -36.99506077 -4.36948701 -33 -5 C-32.24847656 -5.12890625 -31.49695313 -5.2578125 -30.72265625 -5.390625 C-20.15292746 -6.98131686 -8.58587636 -7.11999503 0 0 Z " fill="#F17F24" transform="translate(229,187)"/>
<path d="M0 0 C1.765625 1.77734375 1.765625 1.77734375 3.25 3.9375 C3.75015625 4.64777344 4.2503125 5.35804688 4.765625 6.08984375 C7.86275428 10.8825533 7.58235869 15.41738907 7 21 C0.26910069 47.13882873 -18.76836196 68.03729133 -37 87 C-37.68191406 87.7105957 -38.36382812 88.42119141 -39.06640625 89.15332031 C-48.16008834 98.57775788 -57.39176443 107.30435304 -68 115 C-68.89976562 115.66 -69.79953125 116.32 -70.7265625 117 C-76.41174769 121 -76.41174769 121 -81 121 C-81.38714736 114.6120685 -80.36523266 110.42204793 -77.625 104.6875 C-77.26631836 103.91188721 -76.90763672 103.13627441 -76.53808594 102.3371582 C-66.75988603 81.47993102 -54.98016437 61.62671918 -43.23193359 41.83764648 C-39.95433967 36.31653709 -36.70095255 30.78213083 -33.46875 25.234375 C-32.6890791 23.89776728 -31.90937538 22.5611787 -31.12963867 21.22460938 C-29.97556851 19.24622067 -28.82252473 17.26727129 -27.67276001 15.28637695 C-26.60357426 13.44452427 -25.5306629 11.60488862 -24.45703125 9.765625 C-23.83803955 8.70118164 -23.21904785 7.63673828 -22.58129883 6.54003906 C-20.54075949 3.26232234 -19.67614419 2.19453071 -15.91796875 1.11328125 C-14.68691406 0.84902344 -13.45585937 0.58476562 -12.1875 0.3125 C-10.96417969 0.04050781 -9.74085938 -0.23148437 -8.48046875 -0.51171875 C-5.15119866 -0.97878807 -3.13591982 -1.15219238 0 0 Z " fill="#2E2D2C" transform="translate(278,264)"/>
<path d="M0 0 C1.54300781 -0.03867187 1.54300781 -0.03867187 3.1171875 -0.078125 C6.5642797 0.29792142 8.36092829 1.18898486 11.125 3.25 C13.86369202 7.35803804 13.83850715 10.42639437 13.125 15.25 C10.32271943 23.469189 5.38998001 29.17524697 -1.5625 34.1875 C-6.69789155 35.83470106 -11.54817031 36.12911315 -16.875 35.25 C-20.74791003 32.49427556 -20.74791003 32.49427556 -21.875 29.25 C-22.89906551 23.07742164 -22.36461597 17.55994311 -19.22265625 12.109375 C-16.82258126 8.79796719 -14.09153738 5.78520188 -10.875 3.25 C-10.215 3.25 -9.555 3.25 -8.875 3.25 C-8.875 2.59 -8.875 1.93 -8.875 1.25 C-5.71490467 0.19663489 -3.3196864 0.04967112 0 0 Z " fill="#F17E24" transform="translate(373.875,289.75)"/>
</svg>
